<?xml version="1.0" encoding="UTF-8" standalone="no"?><svg xmlns="http://www.w3.org/2000/svg" xmlns:xlink="http://www.w3.org/1999/xlink" clip-rule="evenodd" stroke-miterlimit="4.00" viewBox="0 0 576 35"><desc>SVG generated by Keynote</desc><defs></defs><g transform="matrix(1.00, 0.00, -0.00, -1.00, 0.0, 35.0)"><text xml:space="preserve" font-family="Helvetica-Light" font-size="25.9" fill="#FEFFFF" transform="matrix(1.00, 0.00, -0.00, -1.00, 0.0, 12.4)">•</text><text xml:space="preserve" font-family="Helvetica-Light" font-size="34.6" fill="#FEFFFF" transform="matrix(1.00, 0.00, -0.00, -1.00, 32.0, 9.0)">T</text><text xml:space="preserve" font-family="Helvetica-Light" font-size="34.6" fill="#FEFFFF" transform="matrix(1.00, 0.00, -0.00, -1.00, 48.0, 9.0)">u</text><text xml:space="preserve" font-family="Helvetica-Light" font-size="34.6" fill="#FEFFFF" transform="matrix(1.00, 0.00, -0.00, -1.00, 67.3, 9.0)">r</text><text xml:space="preserve" font-family="Helvetica-Light" font-size="34.6" fill="#FEFFFF" transform="matrix(1.00, 0.00, -0.00, -1.00, 79.4, 9.0)">n</text><text xml:space="preserve" font-family="Helvetica-Light" font-size="34.6" fill="#FEFFFF" transform="matrix(1.00, 0.00, -0.00, -1.00, 98.6, 9.0)"> </text><text xml:space="preserve" font-family="Helvetica-Light" font-size="34.6" fill="#FEFFFF" transform="matrix(1.00, 0.00, -0.00, -1.00, 108.2, 9.0)">r</text><text xml:space="preserve" font-family="Helvetica-Light" font-size="34.6" fill="#FEFFFF" transform="matrix(1.00, 0.00, -0.00, -1.00, 119.8, 9.0)">a</text><text xml:space="preserve" font-family="Helvetica-Light" font-size="34.6" fill="#FEFFFF" transform="matrix(1.00, 0.00, -0.00, -1.00, 139.0, 9.0)">w</text><text xml:space="preserve" font-family="Helvetica-Light" font-size="34.6" fill="#FEFFFF" transform="matrix(1.00, 0.00, -0.00, -1.00, 164.0, 9.0)"> </text><text xml:space="preserve" font-family="Helvetica-Light" font-size="34.6" fill="#FEFFFF" transform="matrix(1.00, 0.00, -0.00, -1.00, 173.6, 9.0)">d</text><text xml:space="preserve" font-family="Helvetica-Light" font-size="34.6" fill="#FEFFFF" transform="matrix(1.00, 0.00, -0.00, -1.00, 194.7, 9.0)">a</text><text xml:space="preserve" font-family="Helvetica-Light" font-size="34.6" fill="#FEFFFF" transform="matrix(1.00, 0.00, -0.00, -1.00, 213.9, 9.0)">t</text><text xml:space="preserve" font-family="Helvetica-Light" font-size="34.6" fill="#FEFFFF" transform="matrix(1.00, 0.00, -0.00, -1.00, 223.5, 9.0)">a</text><text xml:space="preserve" font-family="Helvetica-Light" font-size="34.6" fill="#FEFFFF" transform="matrix(1.00, 0.00, -0.00, -1.00, 242.8, 9.0)"> </text><text xml:space="preserve" font-family="Helvetica-Light" font-size="34.6" fill="#FEFFFF" transform="matrix(1.00, 0.00, -0.00, -1.00, 252.4, 9.0)">i</text><text xml:space="preserve" font-family="Helvetica-Light" font-size="34.6" fill="#FEFFFF" transform="matrix(1.00, 0.00, -0.00, -1.00, 260.1, 9.0)">n</text><text xml:space="preserve" font-family="Helvetica-Light" font-size="34.6" fill="#FEFFFF" transform="matrix(1.00, 0.00, -0.00, -1.00, 279.3, 9.0)">t</text><text xml:space="preserve" font-family="Helvetica-Light" font-size="34.6" fill="#FEFFFF" transform="matrix(1.00, 0.00, -0.00, -1.00, 288.9, 9.0)">o</text><text xml:space="preserve" font-family="Helvetica-Light" font-size="34.6" fill="#FEFFFF" transform="matrix(1.00, 0.00, -0.00, -1.00, 308.1, 9.0)"> </text><text xml:space="preserve" font-family="Helvetica-Light" font-size="34.6" fill="#FEFFFF" transform="matrix(1.00, 0.00, -0.00, -1.00, 317.7, 9.0)">g</text><text xml:space="preserve" font-family="Helvetica-Light" font-size="34.6" fill="#FEFFFF" transform="matrix(1.00, 0.00, -0.00, -1.00, 338.9, 9.0)">e</text><text xml:space="preserve" font-family="Helvetica-Light" font-size="34.6" fill="#FEFFFF" transform="matrix(1.00, 0.00, -0.00, -1.00, 358.1, 9.0)">o</text><text xml:space="preserve" font-family="Helvetica-Light" font-size="34.6" fill="#FEFFFF" transform="matrix(1.00, 0.00, -0.00, -1.00, 377.3, 9.0)">g</text><text xml:space="preserve" font-family="Helvetica-Light" font-size="34.6" fill="#FEFFFF" transform="matrix(1.00, 0.00, -0.00, -1.00, 398.4, 9.0)">r</text><text xml:space="preserve" font-family="Helvetica-Light" font-size="34.6" fill="#FEFFFF" transform="matrix(1.00, 0.00, -0.00, -1.00, 410.0, 9.0)">a</text><text xml:space="preserve" font-family="Helvetica-Light" font-size="34.6" fill="#FEFFFF" transform="matrix(1.00, 0.00, -0.00, -1.00, 429.2, 9.0)">p</text><text xml:space="preserve" font-family="Helvetica-Light" font-size="34.6" fill="#FEFFFF" transform="matrix(1.00, 0.00, -0.00, -1.00, 450.3, 9.0)">h</text><text xml:space="preserve" font-family="Helvetica-Light" font-size="34.6" fill="#FEFFFF" transform="matrix(1.00, 0.00, -0.00, -1.00, 469.5, 9.0)">i</text><text xml:space="preserve" font-family="Helvetica-Light" font-size="34.6" fill="#FEFFFF" transform="matrix(1.00, 0.00, -0.00, -1.00, 477.2, 9.0)">c</text><text xml:space="preserve" font-family="Helvetica-Light" font-size="34.6" fill="#FEFFFF" transform="matrix(1.00, 0.00, -0.00, -1.00, 496.4, 9.0)"> </text><text xml:space="preserve" font-family="Helvetica-Light" font-size="34.6" fill="#FEFFFF" transform="matrix(1.00, 0.00, -0.00, -1.00, 506.1, 9.0)">d</text><text xml:space="preserve" font-family="Helvetica-Light" font-size="34.6" fill="#FEFFFF" transform="matrix(1.00, 0.00, -0.00, -1.00, 527.2, 9.0)">a</text><text xml:space="preserve" font-family="Helvetica-Light" font-size="34.6" fill="#FEFFFF" transform="matrix(1.00, 0.00, -0.00, -1.00, 546.4, 9.0)">t</text><text xml:space="preserve" font-family="Helvetica-Light" font-size="34.6" fill="#FEFFFF" transform="matrix(1.00, 0.00, -0.00, -1.00, 556.0, 9.0)">a</text></g></svg>