<?xml version="1.0" encoding="UTF-8" standalone="no"?><svg xmlns="http://www.w3.org/2000/svg" xmlns:xlink="http://www.w3.org/1999/xlink" clip-rule="evenodd" stroke-miterlimit="4.00" viewBox="0 0 816 36"><desc>SVG generated by Keynote</desc><defs></defs><g transform="matrix(1.00, 0.00, -0.00, -1.00, 0.0, 36.0)"><text xml:space="preserve" font-family="Helvetica-Bold" font-weight="bold" font-size="25.9" fill="#FEFFFF" transform="matrix(1.00, 0.00, -0.00, -1.00, 0.0, 12.6)">•</text><text xml:space="preserve" font-family="Helvetica-Bold" font-weight="bold" font-size="34.6" fill="#FEFFFF" transform="matrix(1.00, 0.00, -0.00, -1.00, 32.0, 9.0)">P</text><text xml:space="preserve" font-family="Helvetica-Bold" font-weight="bold" font-size="34.6" fill="#FEFFFF" transform="matrix(1.00, 0.00, -0.00, -1.00, 55.1, 9.0)">r</text><text xml:space="preserve" font-family="Helvetica-Bold" font-weight="bold" font-size="34.6" fill="#FEFFFF" transform="matrix(1.00, 0.00, -0.00, -1.00, 68.5, 9.0)">o</text><text xml:space="preserve" font-family="Helvetica-Bold" font-weight="bold" font-size="34.6" fill="#FEFFFF" transform="matrix(1.00, 0.00, -0.00, -1.00, 89.6, 9.0)">c</text><text xml:space="preserve" font-family="Helvetica-Bold" font-weight="bold" font-size="34.6" fill="#FEFFFF" transform="matrix(1.00, 0.00, -0.00, -1.00, 108.9, 9.0)">e</text><text xml:space="preserve" font-family="Helvetica-Bold" font-weight="bold" font-size="34.6" fill="#FEFFFF" transform="matrix(1.00, 0.00, -0.00, -1.00, 128.1, 9.0)">s</text><text xml:space="preserve" font-family="Helvetica-Bold" font-weight="bold" font-size="34.6" fill="#FEFFFF" transform="matrix(1.00, 0.00, -0.00, -1.00, 147.4, 9.0)">s</text><text xml:space="preserve" font-family="Helvetica-Bold" font-weight="bold" font-size="34.6" fill="#FEFFFF" transform="matrix(1.00, 0.00, -0.00, -1.00, 166.6, 9.0)">i</text><text xml:space="preserve" font-family="Helvetica-Bold" font-weight="bold" font-size="34.6" fill="#FEFFFF" transform="matrix(1.00, 0.00, -0.00, -1.00, 176.2, 9.0)">n</text><text xml:space="preserve" font-family="Helvetica-Bold" font-weight="bold" font-size="34.6" fill="#FEFFFF" transform="matrix(1.00, 0.00, -0.00, -1.00, 197.3, 9.0)">g</text><text xml:space="preserve" font-family="Helvetica-Bold" font-weight="bold" font-size="34.6" fill="#FEFFFF" transform="matrix(1.00, 0.00, -0.00, -1.00, 218.4, 9.0)">,</text><text xml:space="preserve" font-family="Helvetica-Bold" font-weight="bold" font-size="34.6" fill="#FEFFFF" transform="matrix(1.00, 0.00, -0.00, -1.00, 228.0, 9.0)"> </text><text xml:space="preserve" font-family="Helvetica-Bold" font-weight="bold" font-size="34.6" fill="#FEFFFF" transform="matrix(1.00, 0.00, -0.00, -1.00, 237.6, 9.0)">s</text><text xml:space="preserve" font-family="Helvetica-Bold" font-weight="bold" font-size="34.6" fill="#FEFFFF" transform="matrix(1.00, 0.00, -0.00, -1.00, 256.9, 9.0)">t</text><text xml:space="preserve" font-family="Helvetica-Bold" font-weight="bold" font-size="34.6" fill="#FEFFFF" transform="matrix(1.00, 0.00, -0.00, -1.00, 268.4, 9.0)">o</text><text xml:space="preserve" font-family="Helvetica-Bold" font-weight="bold" font-size="34.6" fill="#FEFFFF" transform="matrix(1.00, 0.00, -0.00, -1.00, 289.5, 9.0)">r</text><text xml:space="preserve" font-family="Helvetica-Bold" font-weight="bold" font-size="34.6" fill="#FEFFFF" transform="matrix(1.00, 0.00, -0.00, -1.00, 303.0, 9.0)">a</text><text xml:space="preserve" font-family="Helvetica-Bold" font-weight="bold" font-size="34.6" fill="#FEFFFF" transform="matrix(1.00, 0.00, -0.00, -1.00, 322.2, 9.0)">g</text><text xml:space="preserve" font-family="Helvetica-Bold" font-weight="bold" font-size="34.6" fill="#FEFFFF" transform="matrix(1.00, 0.00, -0.00, -1.00, 343.3, 9.0)">e</text><text xml:space="preserve" font-family="Helvetica-Bold" font-weight="bold" font-size="34.6" fill="#FEFFFF" transform="matrix(1.00, 0.00, -0.00, -1.00, 362.6, 9.0)">,</text><text xml:space="preserve" font-family="Helvetica-Bold" font-weight="bold" font-size="34.6" fill="#FEFFFF" transform="matrix(1.00, 0.00, -0.00, -1.00, 372.2, 9.0)"> </text><text xml:space="preserve" font-family="Helvetica-Bold" font-weight="bold" font-size="34.6" fill="#FEFFFF" transform="matrix(1.00, 0.00, -0.00, -1.00, 381.8, 9.0)">a</text><text xml:space="preserve" font-family="Helvetica-Bold" font-weight="bold" font-size="34.6" fill="#FEFFFF" transform="matrix(1.00, 0.00, -0.00, -1.00, 401.0, 9.0)">r</text><text xml:space="preserve" font-family="Helvetica-Bold" font-weight="bold" font-size="34.6" fill="#FEFFFF" transform="matrix(1.00, 0.00, -0.00, -1.00, 414.5, 9.0)">c</text><text xml:space="preserve" font-family="Helvetica-Bold" font-weight="bold" font-size="34.6" fill="#FEFFFF" transform="matrix(1.00, 0.00, -0.00, -1.00, 433.7, 9.0)">h</text><text xml:space="preserve" font-family="Helvetica-Bold" font-weight="bold" font-size="34.6" fill="#FEFFFF" transform="matrix(1.00, 0.00, -0.00, -1.00, 454.8, 9.0)">i</text><text xml:space="preserve" font-family="Helvetica-Bold" font-weight="bold" font-size="34.6" fill="#FEFFFF" transform="matrix(1.00, 0.00, -0.00, -1.00, 464.4, 9.0)">v</text><text xml:space="preserve" font-family="Helvetica-Bold" font-weight="bold" font-size="34.6" fill="#FEFFFF" transform="matrix(1.00, 0.00, -0.00, -1.00, 483.7, 9.0)">i</text><text xml:space="preserve" font-family="Helvetica-Bold" font-weight="bold" font-size="34.6" fill="#FEFFFF" transform="matrix(1.00, 0.00, -0.00, -1.00, 493.3, 9.0)">n</text><text xml:space="preserve" font-family="Helvetica-Bold" font-weight="bold" font-size="34.6" fill="#FEFFFF" transform="matrix(1.00, 0.00, -0.00, -1.00, 514.4, 9.0)">g</text><text xml:space="preserve" font-family="Helvetica-Bold" font-weight="bold" font-size="34.6" fill="#FEFFFF" transform="matrix(1.00, 0.00, -0.00, -1.00, 535.5, 9.0)"> </text><text xml:space="preserve" font-family="Helvetica-Bold" font-weight="bold" font-size="34.6" fill="#FEFFFF" transform="matrix(1.00, 0.00, -0.00, -1.00, 545.1, 9.0)">o</text><text xml:space="preserve" font-family="Helvetica-Bold" font-weight="bold" font-size="34.6" fill="#FEFFFF" transform="matrix(1.00, 0.00, -0.00, -1.00, 566.2, 9.0)">f</text><text xml:space="preserve" font-family="Helvetica-Bold" font-weight="bold" font-size="34.6" fill="#FEFFFF" transform="matrix(1.00, 0.00, -0.00, -1.00, 577.7, 9.0)"> </text><text xml:space="preserve" font-family="Helvetica-Bold" font-weight="bold" font-size="34.6" fill="#FEFFFF" transform="matrix(1.00, 0.00, -0.00, -1.00, 587.3, 9.0)">m</text><text xml:space="preserve" font-family="Helvetica-Bold" font-weight="bold" font-size="34.6" fill="#FEFFFF" transform="matrix(1.00, 0.00, -0.00, -1.00, 618.1, 9.0)">e</text><text xml:space="preserve" font-family="Helvetica-Bold" font-weight="bold" font-size="34.6" fill="#FEFFFF" transform="matrix(1.00, 0.00, -0.00, -1.00, 637.3, 9.0)">t</text><text xml:space="preserve" font-family="Helvetica-Bold" font-weight="bold" font-size="34.6" fill="#FEFFFF" transform="matrix(1.00, 0.00, -0.00, -1.00, 648.8, 9.0)">r</text><text xml:space="preserve" font-family="Helvetica-Bold" font-weight="bold" font-size="34.6" fill="#FEFFFF" transform="matrix(1.00, 0.00, -0.00, -1.00, 662.3, 9.0)">i</text><text xml:space="preserve" font-family="Helvetica-Bold" font-weight="bold" font-size="34.6" fill="#FEFFFF" transform="matrix(1.00, 0.00, -0.00, -1.00, 671.9, 9.0)">c</text><text xml:space="preserve" font-family="Helvetica-Bold" font-weight="bold" font-size="34.6" fill="#FEFFFF" transform="matrix(1.00, 0.00, -0.00, -1.00, 691.1, 9.0)"> </text><text xml:space="preserve" font-family="Helvetica-Bold" font-weight="bold" font-size="34.6" fill="#FEFFFF" transform="matrix(1.00, 0.00, -0.00, -1.00, 700.7, 9.0)">p</text><text xml:space="preserve" font-family="Helvetica-Bold" font-weight="bold" font-size="34.6" fill="#FEFFFF" transform="matrix(1.00, 0.00, -0.00, -1.00, 721.9, 9.0)">h</text><text xml:space="preserve" font-family="Helvetica-Bold" font-weight="bold" font-size="34.6" fill="#FEFFFF" transform="matrix(1.00, 0.00, -0.00, -1.00, 743.0, 9.0)">o</text><text xml:space="preserve" font-family="Helvetica-Bold" font-weight="bold" font-size="34.6" fill="#FEFFFF" transform="matrix(1.00, 0.00, -0.00, -1.00, 764.1, 9.0)">t</text><text xml:space="preserve" font-family="Helvetica-Bold" font-weight="bold" font-size="34.6" fill="#FEFFFF" transform="matrix(1.00, 0.00, -0.00, -1.00, 775.6, 9.0)">o</text><text xml:space="preserve" font-family="Helvetica-Bold" font-weight="bold" font-size="34.6" fill="#FEFFFF" transform="matrix(1.00, 0.00, -0.00, -1.00, 796.7, 9.0)">s</text></g></svg>