<?xml version="1.0" encoding="UTF-8" standalone="no"?><svg xmlns="http://www.w3.org/2000/svg" xmlns:xlink="http://www.w3.org/1999/xlink" clip-rule="evenodd" stroke-miterlimit="4.00" viewBox="0 0 831 71"><desc>SVG generated by Keynote</desc><defs></defs><g transform="matrix(1.00, 0.00, -0.00, -1.00, 0.0, 71.0)"><text xml:space="preserve" font-family="Helvetica-Light" font-size="25.9" fill="#FEFFFF" transform="matrix(1.00, 0.00, -0.00, -1.00, 0.0, 47.2)">•</text><text xml:space="preserve" font-family="Helvetica-Light" font-size="34.6" fill="#FEFFFF" transform="matrix(1.00, 0.00, -0.00, -1.00, 32.0, 44.0)">5</text><text xml:space="preserve" font-family="Helvetica-Light" font-size="34.6" fill="#FEFFFF" transform="matrix(1.00, 0.00, -0.00, -1.00, 51.2, 44.0)">7</text><text xml:space="preserve" font-family="Helvetica-Light" font-size="34.6" fill="#FEFFFF" transform="matrix(1.00, 0.00, -0.00, -1.00, 70.5, 44.0)">3</text><text xml:space="preserve" font-family="Helvetica-Light" font-size="34.6" fill="#FEFFFF" transform="matrix(1.00, 0.00, -0.00, -1.00, 89.7, 44.0)">7</text><text xml:space="preserve" font-family="Helvetica-Light" font-size="34.6" fill="#FEFFFF" transform="matrix(1.00, 0.00, -0.00, -1.00, 108.9, 44.0)"> </text><text xml:space="preserve" font-family="Helvetica-Light" font-size="34.6" fill="#FEFFFF" transform="matrix(1.00, 0.00, -0.00, -1.00, 118.5, 44.0)">P</text><text xml:space="preserve" font-family="Helvetica-Light" font-size="34.6" fill="#FEFFFF" transform="matrix(1.00, 0.00, -0.00, -1.00, 139.6, 44.0)">h</text><text xml:space="preserve" font-family="Helvetica-Light" font-size="34.6" fill="#FEFFFF" transform="matrix(1.00, 0.00, -0.00, -1.00, 158.9, 44.0)">o</text><text xml:space="preserve" font-family="Helvetica-Light" font-size="34.6" fill="#FEFFFF" transform="matrix(1.00, 0.00, -0.00, -1.00, 178.1, 44.0)">t</text><text xml:space="preserve" font-family="Helvetica-Light" font-size="34.6" fill="#FEFFFF" transform="matrix(1.00, 0.00, -0.00, -1.00, 187.7, 44.0)">o</text><text xml:space="preserve" font-family="Helvetica-Light" font-size="34.6" fill="#FEFFFF" transform="matrix(1.00, 0.00, -0.00, -1.00, 206.9, 44.0)">s</text><text xml:space="preserve" font-family="Helvetica-Light" font-size="34.6" fill="#FEFFFF" transform="matrix(1.00, 0.00, -0.00, -1.00, 224.2, 44.0)"> </text><text xml:space="preserve" font-family="Helvetica-Light" font-size="34.6" fill="#FEFFFF" transform="matrix(1.00, 0.00, -0.00, -1.00, 233.8, 44.0)">c</text><text xml:space="preserve" font-family="Helvetica-Light" font-size="34.6" fill="#FEFFFF" transform="matrix(1.00, 0.00, -0.00, -1.00, 253.1, 44.0)">o</text><text xml:space="preserve" font-family="Helvetica-Light" font-size="34.6" fill="#FEFFFF" transform="matrix(1.00, 0.00, -0.00, -1.00, 272.3, 44.0)">l</text><text xml:space="preserve" font-family="Helvetica-Light" font-size="34.6" fill="#FEFFFF" transform="matrix(1.00, 0.00, -0.00, -1.00, 280.0, 44.0)">l</text><text xml:space="preserve" font-family="Helvetica-Light" font-size="34.6" fill="#FEFFFF" transform="matrix(1.00, 0.00, -0.00, -1.00, 287.6, 44.0)">e</text><text xml:space="preserve" font-family="Helvetica-Light" font-size="34.6" fill="#FEFFFF" transform="matrix(1.00, 0.00, -0.00, -1.00, 306.9, 44.0)">c</text><text xml:space="preserve" font-family="Helvetica-Light" font-size="34.6" fill="#FEFFFF" transform="matrix(1.00, 0.00, -0.00, -1.00, 326.1, 44.0)">t</text><text xml:space="preserve" font-family="Helvetica-Light" font-size="34.6" fill="#FEFFFF" transform="matrix(1.00, 0.00, -0.00, -1.00, 335.7, 44.0)">e</text><text xml:space="preserve" font-family="Helvetica-Light" font-size="34.6" fill="#FEFFFF" transform="matrix(1.00, 0.00, -0.00, -1.00, 354.9, 44.0)">d</text><text xml:space="preserve" font-family="Helvetica-Light" font-size="34.6" fill="#FEFFFF" transform="matrix(1.00, 0.00, -0.00, -1.00, 376.1, 44.0)"> </text><text xml:space="preserve" font-family="Helvetica-Light" font-size="34.6" fill="#FEFFFF" transform="matrix(1.00, 0.00, -0.00, -1.00, 385.7, 44.0)">f</text><text xml:space="preserve" font-family="Helvetica-Light" font-size="34.6" fill="#FEFFFF" transform="matrix(1.00, 0.00, -0.00, -1.00, 395.3, 44.0)">r</text><text xml:space="preserve" font-family="Helvetica-Light" font-size="34.6" fill="#FEFFFF" transform="matrix(1.00, 0.00, -0.00, -1.00, 406.2, 44.0)">o</text><text xml:space="preserve" font-family="Helvetica-Light" font-size="34.6" fill="#FEFFFF" transform="matrix(1.00, 0.00, -0.00, -1.00, 425.4, 44.0)">m</text><text xml:space="preserve" font-family="Helvetica-Light" font-size="34.6" fill="#FEFFFF" transform="matrix(1.00, 0.00, -0.00, -1.00, 454.2, 44.0)"> </text><text xml:space="preserve" font-family="Helvetica-Light" font-size="34.6" fill="#FEFFFF" transform="matrix(1.00, 0.00, -0.00, -1.00, 463.8, 44.0)">d</text><text xml:space="preserve" font-family="Helvetica-Light" font-size="34.6" fill="#FEFFFF" transform="matrix(1.00, 0.00, -0.00, -1.00, 485.0, 44.0)">r</text><text xml:space="preserve" font-family="Helvetica-Light" font-size="34.6" fill="#FEFFFF" transform="matrix(1.00, 0.00, -0.00, -1.00, 495.9, 44.0)">o</text><text xml:space="preserve" font-family="Helvetica-Light" font-size="34.6" fill="#FEFFFF" transform="matrix(1.00, 0.00, -0.00, -1.00, 515.1, 44.0)">n</text><text xml:space="preserve" font-family="Helvetica-Light" font-size="34.6" fill="#FEFFFF" transform="matrix(1.00, 0.00, -0.00, -1.00, 534.3, 44.0)">e</text><text xml:space="preserve" font-family="Helvetica-Light" font-size="34.6" fill="#FEFFFF" transform="matrix(1.00, 0.00, -0.00, -1.00, 553.5, 44.0)">,</text><text xml:space="preserve" font-family="Helvetica-Light" font-size="34.6" fill="#FEFFFF" transform="matrix(1.00, 0.00, -0.00, -1.00, 563.1, 44.0)"> </text><text xml:space="preserve" font-family="Helvetica-Light" font-size="34.6" fill="#FEFFFF" transform="matrix(1.00, 0.00, -0.00, -1.00, 572.8, 44.0)">k</text><text xml:space="preserve" font-family="Helvetica-Light" font-size="34.6" fill="#FEFFFF" transform="matrix(1.00, 0.00, -0.00, -1.00, 590.1, 44.0)">i</text><text xml:space="preserve" font-family="Helvetica-Light" font-size="34.6" fill="#FEFFFF" transform="matrix(1.00, 0.00, -0.00, -1.00, 597.7, 44.0)">t</text><text xml:space="preserve" font-family="Helvetica-Light" font-size="34.6" fill="#FEFFFF" transform="matrix(1.00, 0.00, -0.00, -1.00, 607.3, 44.0)">e</text><text xml:space="preserve" font-family="Helvetica-Light" font-size="34.6" fill="#FEFFFF" transform="matrix(1.00, 0.00, -0.00, -1.00, 626.6, 44.0)">,</text><text xml:space="preserve" font-family="Helvetica-Light" font-size="34.6" fill="#FEFFFF" transform="matrix(1.00, 0.00, -0.00, -1.00, 636.2, 44.0)"> </text><text xml:space="preserve" font-family="Helvetica-Light" font-size="34.6" fill="#FEFFFF" transform="matrix(1.00, 0.00, -0.00, -1.00, 645.8, 44.0)">a</text><text xml:space="preserve" font-family="Helvetica-Light" font-size="34.6" fill="#FEFFFF" transform="matrix(1.00, 0.00, -0.00, -1.00, 665.0, 44.0)">n</text><text xml:space="preserve" font-family="Helvetica-Light" font-size="34.6" fill="#FEFFFF" transform="matrix(1.00, 0.00, -0.00, -1.00, 684.2, 44.0)">d</text><text xml:space="preserve" font-family="Helvetica-Light" font-size="34.6" fill="#FEFFFF" transform="matrix(1.00, 0.00, -0.00, -1.00, 705.4, 44.0)"> </text><text xml:space="preserve" font-family="Helvetica-Light" font-size="34.6" fill="#FEFFFF" transform="matrix(1.00, 0.00, -0.00, -1.00, 715.0, 44.0)">b</text><text xml:space="preserve" font-family="Helvetica-Light" font-size="34.6" fill="#FEFFFF" transform="matrix(1.00, 0.00, -0.00, -1.00, 736.1, 44.0)">a</text><text xml:space="preserve" font-family="Helvetica-Light" font-size="34.6" fill="#FEFFFF" transform="matrix(1.00, 0.00, -0.00, -1.00, 755.3, 44.0)">l</text><text xml:space="preserve" font-family="Helvetica-Light" font-size="34.6" fill="#FEFFFF" transform="matrix(1.00, 0.00, -0.00, -1.00, 763.0, 44.0)">l</text><text xml:space="preserve" font-family="Helvetica-Light" font-size="34.6" fill="#FEFFFF" transform="matrix(1.00, 0.00, -0.00, -1.00, 770.7, 44.0)">o</text><text xml:space="preserve" font-family="Helvetica-Light" font-size="34.6" fill="#FEFFFF" transform="matrix(1.00, 0.00, -0.00, -1.00, 789.9, 44.0)">o</text><text xml:space="preserve" font-family="Helvetica-Light" font-size="34.6" fill="#FEFFFF" transform="matrix(1.00, 0.00, -0.00, -1.00, 809.2, 44.0)">n</text><text xml:space="preserve" font-family="Helvetica-Light" font-size="34.6" fill="#FEFFFF" transform="matrix(1.00, 0.00, -0.00, -1.00, 828.4, 44.0)"> </text><text xml:space="preserve" font-family="Helvetica-Light" font-size="34.6" fill="#FEFFFF" transform="matrix(1.00, 0.00, -0.00, -1.00, 32.0, 2.0)">i</text><text xml:space="preserve" font-family="Helvetica-Light" font-size="34.6" fill="#FEFFFF" transform="matrix(1.00, 0.00, -0.00, -1.00, 39.7, 2.0)">n</text><text xml:space="preserve" font-family="Helvetica-Light" font-size="34.6" fill="#FEFFFF" transform="matrix(1.00, 0.00, -0.00, -1.00, 58.9, 2.0)"> </text><text xml:space="preserve" font-family="Helvetica-Light" font-size="34.6" fill="#FEFFFF" transform="matrix(1.00, 0.00, -0.00, -1.00, 68.5, 2.0)">2</text><text xml:space="preserve" font-family="Helvetica-Light" font-size="34.6" fill="#FEFFFF" transform="matrix(1.00, 0.00, -0.00, -1.00, 87.7, 2.0)">0</text><text xml:space="preserve" font-family="Helvetica-Light" font-size="34.6" fill="#FEFFFF" transform="matrix(1.00, 0.00, -0.00, -1.00, 107.0, 2.0)">1</text><text xml:space="preserve" font-family="Helvetica-Light" font-size="34.6" fill="#FEFFFF" transform="matrix(1.00, 0.00, -0.00, -1.00, 126.2, 2.0)">5</text></g></svg>