<?xml version="1.0" encoding="UTF-8" standalone="no"?><svg xmlns="http://www.w3.org/2000/svg" xmlns:xlink="http://www.w3.org/1999/xlink" clip-rule="evenodd" stroke-miterlimit="4.00" viewBox="0 0 1024 768"><desc>SVG generated by Keynote</desc><defs></defs><g transform="matrix(1.00, 0.00, -0.00, -1.00, 0.0, 768.0)"><path d="M 0.0 768.0 L 1024.0 768.0 L 1024.0 0.0 L 0.0 0.0 Z M 0.0 768.0 " fill="#000000"></path><text xml:space="preserve" font-family="Helvetica-Bold" font-weight="bold" font-size="25.9" fill="#FEFFFF" transform="matrix(1.00, 0.00, -0.00, -1.00, 79.0, 528.5)">•</text><text xml:space="preserve" font-family="Helvetica-Bold" font-weight="bold" font-size="34.6" fill="#FEFFFF" transform="matrix(1.00, 0.00, -0.00, -1.00, 111.0, 525.0)">M</text><text xml:space="preserve" font-family="Helvetica-Bold" font-weight="bold" font-size="34.6" fill="#FEFFFF" transform="matrix(1.00, 0.00, -0.00, -1.00, 139.8, 525.0)">a</text><text xml:space="preserve" font-family="Helvetica-Bold" font-weight="bold" font-size="34.6" fill="#FEFFFF" transform="matrix(1.00, 0.00, -0.00, -1.00, 159.0, 525.0)">n</text><text xml:space="preserve" font-family="Helvetica-Bold" font-weight="bold" font-size="34.6" fill="#FEFFFF" transform="matrix(1.00, 0.00, -0.00, -1.00, 180.2, 525.0)">a</text><text xml:space="preserve" font-family="Helvetica-Bold" font-weight="bold" font-size="34.6" fill="#FEFFFF" transform="matrix(1.00, 0.00, -0.00, -1.00, 199.4, 525.0)">g</text><text xml:space="preserve" font-family="Helvetica-Bold" font-weight="bold" font-size="34.6" fill="#FEFFFF" transform="matrix(1.00, 0.00, -0.00, -1.00, 220.5, 525.0)">e</text><text xml:space="preserve" font-family="Helvetica-Bold" font-weight="bold" font-size="34.6" fill="#FEFFFF" transform="matrix(1.00, 0.00, -0.00, -1.00, 239.8, 525.0)">m</text><text xml:space="preserve" font-family="Helvetica-Bold" font-weight="bold" font-size="34.6" fill="#FEFFFF" transform="matrix(1.00, 0.00, -0.00, -1.00, 270.5, 525.0)">e</text><text xml:space="preserve" font-family="Helvetica-Bold" font-weight="bold" font-size="34.6" fill="#FEFFFF" transform="matrix(1.00, 0.00, -0.00, -1.00, 289.7, 525.0)">n</text><text xml:space="preserve" font-family="Helvetica-Bold" font-weight="bold" font-size="34.6" fill="#FEFFFF" transform="matrix(1.00, 0.00, -0.00, -1.00, 310.9, 525.0)">t</text><text xml:space="preserve" font-family="Helvetica-Bold" font-weight="bold" font-size="34.6" fill="#FEFFFF" transform="matrix(1.00, 0.00, -0.00, -1.00, 322.4, 525.0)"> </text><text xml:space="preserve" font-family="Helvetica-Bold" font-weight="bold" font-size="34.6" fill="#FEFFFF" transform="matrix(1.00, 0.00, -0.00, -1.00, 332.0, 525.0)">o</text><text xml:space="preserve" font-family="Helvetica-Bold" font-weight="bold" font-size="34.6" fill="#FEFFFF" transform="matrix(1.00, 0.00, -0.00, -1.00, 353.1, 525.0)">f</text><text xml:space="preserve" font-family="Helvetica-Bold" font-weight="bold" font-size="34.6" fill="#FEFFFF" transform="matrix(1.00, 0.00, -0.00, -1.00, 364.6, 525.0)"> </text><text xml:space="preserve" font-family="Helvetica-Bold" font-weight="bold" font-size="34.6" fill="#FEFFFF" transform="matrix(1.00, 0.00, -0.00, -1.00, 374.2, 525.0)">r</text><text xml:space="preserve" font-family="Helvetica-Bold" font-weight="bold" font-size="34.6" fill="#FEFFFF" transform="matrix(1.00, 0.00, -0.00, -1.00, 387.7, 525.0)">a</text><text xml:space="preserve" font-family="Helvetica-Bold" font-weight="bold" font-size="34.6" fill="#FEFFFF" transform="matrix(1.00, 0.00, -0.00, -1.00, 406.9, 525.0)">w</text><text xml:space="preserve" font-family="Helvetica-Bold" font-weight="bold" font-size="34.6" fill="#FEFFFF" transform="matrix(1.00, 0.00, -0.00, -1.00, 433.8, 525.0)"> </text><text xml:space="preserve" font-family="Helvetica-Bold" font-weight="bold" font-size="34.6" fill="#FEFFFF" transform="matrix(1.00, 0.00, -0.00, -1.00, 443.4, 525.0)">p</text><text xml:space="preserve" font-family="Helvetica-Bold" font-weight="bold" font-size="34.6" fill="#FEFFFF" transform="matrix(1.00, 0.00, -0.00, -1.00, 464.5, 525.0)">h</text><text xml:space="preserve" font-family="Helvetica-Bold" font-weight="bold" font-size="34.6" fill="#FEFFFF" transform="matrix(1.00, 0.00, -0.00, -1.00, 485.6, 525.0)">o</text><text xml:space="preserve" font-family="Helvetica-Bold" font-weight="bold" font-size="34.6" fill="#FEFFFF" transform="matrix(1.00, 0.00, -0.00, -1.00, 506.8, 525.0)">t</text><text xml:space="preserve" font-family="Helvetica-Bold" font-weight="bold" font-size="34.6" fill="#FEFFFF" transform="matrix(1.00, 0.00, -0.00, -1.00, 518.3, 525.0)">o</text><text xml:space="preserve" font-family="Helvetica-Bold" font-weight="bold" font-size="34.6" fill="#FEFFFF" transform="matrix(1.00, 0.00, -0.00, -1.00, 539.4, 525.0)">s</text><text xml:space="preserve" font-family="Helvetica-Light" font-size="25.9" fill="#FEFFFF" transform="matrix(1.00, 0.00, -0.00, -1.00, 114.0, 448.2)">•</text><text xml:space="preserve" font-family="Helvetica-Light" font-size="34.6" fill="#FEFFFF" transform="matrix(1.00, 0.00, -0.00, -1.00, 146.0, 445.0)">5</text><text xml:space="preserve" font-family="Helvetica-Light" font-size="34.6" fill="#FEFFFF" transform="matrix(1.00, 0.00, -0.00, -1.00, 165.2, 445.0)">7</text><text xml:space="preserve" font-family="Helvetica-Light" font-size="34.6" fill="#FEFFFF" transform="matrix(1.00, 0.00, -0.00, -1.00, 184.5, 445.0)">3</text><text xml:space="preserve" font-family="Helvetica-Light" font-size="34.6" fill="#FEFFFF" transform="matrix(1.00, 0.00, -0.00, -1.00, 203.7, 445.0)">7</text><text xml:space="preserve" font-family="Helvetica-Light" font-size="34.6" fill="#FEFFFF" transform="matrix(1.00, 0.00, -0.00, -1.00, 222.9, 445.0)"> </text><text xml:space="preserve" font-family="Helvetica-Light" font-size="34.6" fill="#FEFFFF" transform="matrix(1.00, 0.00, -0.00, -1.00, 232.5, 445.0)">P</text><text xml:space="preserve" font-family="Helvetica-Light" font-size="34.6" fill="#FEFFFF" transform="matrix(1.00, 0.00, -0.00, -1.00, 253.6, 445.0)">h</text><text xml:space="preserve" font-family="Helvetica-Light" font-size="34.6" fill="#FEFFFF" transform="matrix(1.00, 0.00, -0.00, -1.00, 272.9, 445.0)">o</text><text xml:space="preserve" font-family="Helvetica-Light" font-size="34.6" fill="#FEFFFF" transform="matrix(1.00, 0.00, -0.00, -1.00, 292.1, 445.0)">t</text><text xml:space="preserve" font-family="Helvetica-Light" font-size="34.6" fill="#FEFFFF" transform="matrix(1.00, 0.00, -0.00, -1.00, 301.7, 445.0)">o</text><text xml:space="preserve" font-family="Helvetica-Light" font-size="34.6" fill="#FEFFFF" transform="matrix(1.00, 0.00, -0.00, -1.00, 320.9, 445.0)">s</text><text xml:space="preserve" font-family="Helvetica-Light" font-size="34.6" fill="#FEFFFF" transform="matrix(1.00, 0.00, -0.00, -1.00, 338.2, 445.0)"> </text><text xml:space="preserve" font-family="Helvetica-Light" font-size="34.6" fill="#FEFFFF" transform="matrix(1.00, 0.00, -0.00, -1.00, 347.8, 445.0)">c</text><text xml:space="preserve" font-family="Helvetica-Light" font-size="34.6" fill="#FEFFFF" transform="matrix(1.00, 0.00, -0.00, -1.00, 367.1, 445.0)">o</text><text xml:space="preserve" font-family="Helvetica-Light" font-size="34.6" fill="#FEFFFF" transform="matrix(1.00, 0.00, -0.00, -1.00, 386.3, 445.0)">l</text><text xml:space="preserve" font-family="Helvetica-Light" font-size="34.6" fill="#FEFFFF" transform="matrix(1.00, 0.00, -0.00, -1.00, 394.0, 445.0)">l</text><text xml:space="preserve" font-family="Helvetica-Light" font-size="34.6" fill="#FEFFFF" transform="matrix(1.00, 0.00, -0.00, -1.00, 401.6, 445.0)">e</text><text xml:space="preserve" font-family="Helvetica-Light" font-size="34.6" fill="#FEFFFF" transform="matrix(1.00, 0.00, -0.00, -1.00, 420.9, 445.0)">c</text><text xml:space="preserve" font-family="Helvetica-Light" font-size="34.6" fill="#FEFFFF" transform="matrix(1.00, 0.00, -0.00, -1.00, 440.1, 445.0)">t</text><text xml:space="preserve" font-family="Helvetica-Light" font-size="34.6" fill="#FEFFFF" transform="matrix(1.00, 0.00, -0.00, -1.00, 449.7, 445.0)">e</text><text xml:space="preserve" font-family="Helvetica-Light" font-size="34.6" fill="#FEFFFF" transform="matrix(1.00, 0.00, -0.00, -1.00, 468.9, 445.0)">d</text><text xml:space="preserve" font-family="Helvetica-Light" font-size="34.6" fill="#FEFFFF" transform="matrix(1.00, 0.00, -0.00, -1.00, 490.1, 445.0)"> </text><text xml:space="preserve" font-family="Helvetica-Light" font-size="34.6" fill="#FEFFFF" transform="matrix(1.00, 0.00, -0.00, -1.00, 499.7, 445.0)">f</text><text xml:space="preserve" font-family="Helvetica-Light" font-size="34.6" fill="#FEFFFF" transform="matrix(1.00, 0.00, -0.00, -1.00, 509.3, 445.0)">r</text><text xml:space="preserve" font-family="Helvetica-Light" font-size="34.6" fill="#FEFFFF" transform="matrix(1.00, 0.00, -0.00, -1.00, 520.2, 445.0)">o</text><text xml:space="preserve" font-family="Helvetica-Light" font-size="34.6" fill="#FEFFFF" transform="matrix(1.00, 0.00, -0.00, -1.00, 539.4, 445.0)">m</text><text xml:space="preserve" font-family="Helvetica-Light" font-size="34.6" fill="#FEFFFF" transform="matrix(1.00, 0.00, -0.00, -1.00, 568.2, 445.0)"> </text><text xml:space="preserve" font-family="Helvetica-Light" font-size="34.6" fill="#FEFFFF" transform="matrix(1.00, 0.00, -0.00, -1.00, 577.8, 445.0)">d</text><text xml:space="preserve" font-family="Helvetica-Light" font-size="34.6" fill="#FEFFFF" transform="matrix(1.00, 0.00, -0.00, -1.00, 599.0, 445.0)">r</text><text xml:space="preserve" font-family="Helvetica-Light" font-size="34.6" fill="#FEFFFF" transform="matrix(1.00, 0.00, -0.00, -1.00, 609.9, 445.0)">o</text><text xml:space="preserve" font-family="Helvetica-Light" font-size="34.6" fill="#FEFFFF" transform="matrix(1.00, 0.00, -0.00, -1.00, 629.1, 445.0)">n</text><text xml:space="preserve" font-family="Helvetica-Light" font-size="34.6" fill="#FEFFFF" transform="matrix(1.00, 0.00, -0.00, -1.00, 648.3, 445.0)">e</text><text xml:space="preserve" font-family="Helvetica-Light" font-size="34.6" fill="#FEFFFF" transform="matrix(1.00, 0.00, -0.00, -1.00, 667.5, 445.0)">,</text><text xml:space="preserve" font-family="Helvetica-Light" font-size="34.6" fill="#FEFFFF" transform="matrix(1.00, 0.00, -0.00, -1.00, 677.1, 445.0)"> </text><text xml:space="preserve" font-family="Helvetica-Light" font-size="34.6" fill="#FEFFFF" transform="matrix(1.00, 0.00, -0.00, -1.00, 686.8, 445.0)">k</text><text xml:space="preserve" font-family="Helvetica-Light" font-size="34.6" fill="#FEFFFF" transform="matrix(1.00, 0.00, -0.00, -1.00, 704.1, 445.0)">i</text><text xml:space="preserve" font-family="Helvetica-Light" font-size="34.6" fill="#FEFFFF" transform="matrix(1.00, 0.00, -0.00, -1.00, 711.7, 445.0)">t</text><text xml:space="preserve" font-family="Helvetica-Light" font-size="34.6" fill="#FEFFFF" transform="matrix(1.00, 0.00, -0.00, -1.00, 721.3, 445.0)">e</text><text xml:space="preserve" font-family="Helvetica-Light" font-size="34.6" fill="#FEFFFF" transform="matrix(1.00, 0.00, -0.00, -1.00, 740.6, 445.0)">,</text><text xml:space="preserve" font-family="Helvetica-Light" font-size="34.6" fill="#FEFFFF" transform="matrix(1.00, 0.00, -0.00, -1.00, 750.2, 445.0)"> </text><text xml:space="preserve" font-family="Helvetica-Light" font-size="34.6" fill="#FEFFFF" transform="matrix(1.00, 0.00, -0.00, -1.00, 759.8, 445.0)">a</text><text xml:space="preserve" font-family="Helvetica-Light" font-size="34.6" fill="#FEFFFF" transform="matrix(1.00, 0.00, -0.00, -1.00, 779.0, 445.0)">n</text><text xml:space="preserve" font-family="Helvetica-Light" font-size="34.6" fill="#FEFFFF" transform="matrix(1.00, 0.00, -0.00, -1.00, 798.2, 445.0)">d</text><text xml:space="preserve" font-family="Helvetica-Light" font-size="34.6" fill="#FEFFFF" transform="matrix(1.00, 0.00, -0.00, -1.00, 819.4, 445.0)"> </text><text xml:space="preserve" font-family="Helvetica-Light" font-size="34.6" fill="#FEFFFF" transform="matrix(1.00, 0.00, -0.00, -1.00, 829.0, 445.0)">b</text><text xml:space="preserve" font-family="Helvetica-Light" font-size="34.6" fill="#FEFFFF" transform="matrix(1.00, 0.00, -0.00, -1.00, 850.1, 445.0)">a</text><text xml:space="preserve" font-family="Helvetica-Light" font-size="34.6" fill="#FEFFFF" transform="matrix(1.00, 0.00, -0.00, -1.00, 869.3, 445.0)">l</text><text xml:space="preserve" font-family="Helvetica-Light" font-size="34.6" fill="#FEFFFF" transform="matrix(1.00, 0.00, -0.00, -1.00, 877.0, 445.0)">l</text><text xml:space="preserve" font-family="Helvetica-Light" font-size="34.6" fill="#FEFFFF" transform="matrix(1.00, 0.00, -0.00, -1.00, 884.7, 445.0)">o</text><text xml:space="preserve" font-family="Helvetica-Light" font-size="34.6" fill="#FEFFFF" transform="matrix(1.00, 0.00, -0.00, -1.00, 903.9, 445.0)">o</text><text xml:space="preserve" font-family="Helvetica-Light" font-size="34.6" fill="#FEFFFF" transform="matrix(1.00, 0.00, -0.00, -1.00, 923.2, 445.0)">n</text><text xml:space="preserve" font-family="Helvetica-Light" font-size="34.6" fill="#FEFFFF" transform="matrix(1.00, 0.00, -0.00, -1.00, 942.4, 445.0)"> </text><text xml:space="preserve" font-family="Helvetica-Light" font-size="34.6" fill="#FEFFFF" transform="matrix(1.00, 0.00, -0.00, -1.00, 146.0, 403.0)">i</text><text xml:space="preserve" font-family="Helvetica-Light" font-size="34.6" fill="#FEFFFF" transform="matrix(1.00, 0.00, -0.00, -1.00, 153.7, 403.0)">n</text><text xml:space="preserve" font-family="Helvetica-Light" font-size="34.6" fill="#FEFFFF" transform="matrix(1.00, 0.00, -0.00, -1.00, 172.9, 403.0)"> </text><text xml:space="preserve" font-family="Helvetica-Light" font-size="34.6" fill="#FEFFFF" transform="matrix(1.00, 0.00, -0.00, -1.00, 182.5, 403.0)">2</text><text xml:space="preserve" font-family="Helvetica-Light" font-size="34.6" fill="#FEFFFF" transform="matrix(1.00, 0.00, -0.00, -1.00, 201.7, 403.0)">0</text><text xml:space="preserve" font-family="Helvetica-Light" font-size="34.6" fill="#FEFFFF" transform="matrix(1.00, 0.00, -0.00, -1.00, 221.0, 403.0)">1</text><text xml:space="preserve" font-family="Helvetica-Light" font-size="34.6" fill="#FEFFFF" transform="matrix(1.00, 0.00, -0.00, -1.00, 240.2, 403.0)">5</text><text xml:space="preserve" font-family="Helvetica-Light" font-size="25.9" fill="#FEFFFF" transform="matrix(1.00, 0.00, -0.00, -1.00, 114.0, 326.0)">•</text><text xml:space="preserve" font-family="Helvetica-Light" font-size="34.6" fill="#FEFFFF" transform="matrix(1.00, 0.00, -0.00, -1.00, 146.0, 323.0)">&gt;</text><text xml:space="preserve" font-family="Helvetica-Light" font-size="34.6" fill="#FEFFFF" transform="matrix(1.00, 0.00, -0.00, -1.00, 168.8, 323.0)">1</text><text xml:space="preserve" font-family="Helvetica-Light" font-size="34.6" fill="#FEFFFF" transform="matrix(1.00, 0.00, -0.00, -1.00, 188.0, 323.0)">0</text><text xml:space="preserve" font-family="Helvetica-Light" font-size="34.6" fill="#FEFFFF" transform="matrix(1.00, 0.00, -0.00, -1.00, 207.3, 323.0)">0</text><text xml:space="preserve" font-family="Helvetica-Light" font-size="34.6" fill="#FEFFFF" transform="matrix(1.00, 0.00, -0.00, -1.00, 226.5, 323.0)">0</text><text xml:space="preserve" font-family="Helvetica-Light" font-size="34.6" fill="#FEFFFF" transform="matrix(1.00, 0.00, -0.00, -1.00, 245.7, 323.0)"> </text><text xml:space="preserve" font-family="Helvetica-Light" font-size="34.6" fill="#FEFFFF" transform="matrix(1.00, 0.00, -0.00, -1.00, 255.3, 323.0)">p</text><text xml:space="preserve" font-family="Helvetica-Light" font-size="34.6" fill="#FEFFFF" transform="matrix(1.00, 0.00, -0.00, -1.00, 276.5, 323.0)">h</text><text xml:space="preserve" font-family="Helvetica-Light" font-size="34.6" fill="#FEFFFF" transform="matrix(1.00, 0.00, -0.00, -1.00, 295.7, 323.0)">o</text><text xml:space="preserve" font-family="Helvetica-Light" font-size="34.6" fill="#FEFFFF" transform="matrix(1.00, 0.00, -0.00, -1.00, 314.9, 323.0)">t</text><text xml:space="preserve" font-family="Helvetica-Light" font-size="34.6" fill="#FEFFFF" transform="matrix(1.00, 0.00, -0.00, -1.00, 324.5, 323.0)">o</text><text xml:space="preserve" font-family="Helvetica-Light" font-size="34.6" fill="#FEFFFF" transform="matrix(1.00, 0.00, -0.00, -1.00, 343.8, 323.0)">s</text><text xml:space="preserve" font-family="Helvetica-Light" font-size="34.6" fill="#FEFFFF" transform="matrix(1.00, 0.00, -0.00, -1.00, 361.1, 323.0)"> </text><text xml:space="preserve" font-family="Helvetica-Light" font-size="34.6" fill="#FEFFFF" transform="matrix(1.00, 0.00, -0.00, -1.00, 370.7, 323.0)">c</text><text xml:space="preserve" font-family="Helvetica-Light" font-size="34.6" fill="#FEFFFF" transform="matrix(1.00, 0.00, -0.00, -1.00, 389.9, 323.0)">o</text><text xml:space="preserve" font-family="Helvetica-Light" font-size="34.6" fill="#FEFFFF" transform="matrix(1.00, 0.00, -0.00, -1.00, 409.1, 323.0)">l</text><text xml:space="preserve" font-family="Helvetica-Light" font-size="34.6" fill="#FEFFFF" transform="matrix(1.00, 0.00, -0.00, -1.00, 416.8, 323.0)">l</text><text xml:space="preserve" font-family="Helvetica-Light" font-size="34.6" fill="#FEFFFF" transform="matrix(1.00, 0.00, -0.00, -1.00, 424.5, 323.0)">e</text><text xml:space="preserve" font-family="Helvetica-Light" font-size="34.6" fill="#FEFFFF" transform="matrix(1.00, 0.00, -0.00, -1.00, 443.7, 323.0)">c</text><text xml:space="preserve" font-family="Helvetica-Light" font-size="34.6" fill="#FEFFFF" transform="matrix(1.00, 0.00, -0.00, -1.00, 462.9, 323.0)">t</text><text xml:space="preserve" font-family="Helvetica-Light" font-size="34.6" fill="#FEFFFF" transform="matrix(1.00, 0.00, -0.00, -1.00, 472.5, 323.0)">e</text><text xml:space="preserve" font-family="Helvetica-Light" font-size="34.6" fill="#FEFFFF" transform="matrix(1.00, 0.00, -0.00, -1.00, 491.8, 323.0)">d</text><text xml:space="preserve" font-family="Helvetica-Light" font-size="34.6" fill="#FEFFFF" transform="matrix(1.00, 0.00, -0.00, -1.00, 512.9, 323.0)"> </text><text xml:space="preserve" font-family="Helvetica-Light" font-size="34.6" fill="#FEFFFF" transform="matrix(1.00, 0.00, -0.00, -1.00, 522.5, 323.0)">i</text><text xml:space="preserve" font-family="Helvetica-Light" font-size="34.6" fill="#FEFFFF" transform="matrix(1.00, 0.00, -0.00, -1.00, 530.2, 323.0)">n</text><text xml:space="preserve" font-family="Helvetica-Light" font-size="34.6" fill="#FEFFFF" transform="matrix(1.00, 0.00, -0.00, -1.00, 549.4, 323.0)"> </text><text xml:space="preserve" font-family="Helvetica-Light" font-size="34.6" fill="#FEFFFF" transform="matrix(1.00, 0.00, -0.00, -1.00, 559.0, 323.0)">t</text><text xml:space="preserve" font-family="Helvetica-Light" font-size="34.6" fill="#FEFFFF" transform="matrix(1.00, 0.00, -0.00, -1.00, 568.6, 323.0)">h</text><text xml:space="preserve" font-family="Helvetica-Light" font-size="34.6" fill="#FEFFFF" transform="matrix(1.00, 0.00, -0.00, -1.00, 587.9, 323.0)">e</text><text xml:space="preserve" font-family="Helvetica-Light" font-size="34.6" fill="#FEFFFF" transform="matrix(1.00, 0.00, -0.00, -1.00, 607.1, 323.0)"> </text><text xml:space="preserve" font-family="Helvetica-Light" font-size="34.6" fill="#FEFFFF" transform="matrix(1.00, 0.00, -0.00, -1.00, 616.7, 323.0)">p</text><text xml:space="preserve" font-family="Helvetica-Light" font-size="34.6" fill="#FEFFFF" transform="matrix(1.00, 0.00, -0.00, -1.00, 637.8, 323.0)">a</text><text xml:space="preserve" font-family="Helvetica-Light" font-size="34.6" fill="#FEFFFF" transform="matrix(1.00, 0.00, -0.00, -1.00, 657.1, 323.0)">s</text><text xml:space="preserve" font-family="Helvetica-Light" font-size="34.6" fill="#FEFFFF" transform="matrix(1.00, 0.00, -0.00, -1.00, 674.3, 323.0)">t</text><text xml:space="preserve" font-family="Helvetica-Light" font-size="34.6" fill="#FEFFFF" transform="matrix(1.00, 0.00, -0.00, -1.00, 684.0, 323.0)"> </text><text xml:space="preserve" font-family="Helvetica-Light" font-size="34.6" fill="#FEFFFF" transform="matrix(1.00, 0.00, -0.00, -1.00, 693.6, 323.0)">2</text><text xml:space="preserve" font-family="Helvetica-Light" font-size="34.6" fill="#FEFFFF" transform="matrix(1.00, 0.00, -0.00, -1.00, 712.8, 323.0)"> </text><text xml:space="preserve" font-family="Helvetica-Light" font-size="34.6" fill="#FEFFFF" transform="matrix(1.00, 0.00, -0.00, -1.00, 722.4, 323.0)">d</text><text xml:space="preserve" font-family="Helvetica-Light" font-size="34.6" fill="#FEFFFF" transform="matrix(1.00, 0.00, -0.00, -1.00, 743.5, 323.0)">a</text><text xml:space="preserve" font-family="Helvetica-Light" font-size="34.6" fill="#FEFFFF" transform="matrix(1.00, 0.00, -0.00, -1.00, 762.8, 323.0)">y</text><text xml:space="preserve" font-family="Helvetica-Light" font-size="34.6" fill="#FEFFFF" transform="matrix(1.00, 0.00, -0.00, -1.00, 780.1, 323.0)">s</text><text xml:space="preserve" font-family="Helvetica-Light" font-size="25.9" fill="#FEFFFF" transform="matrix(1.00, 0.00, -0.00, -1.00, 114.0, 245.8)">•</text><text xml:space="preserve" font-family="Helvetica-Light" font-size="34.6" fill="#FEFFFF" transform="matrix(1.00, 0.00, -0.00, -1.00, 146.0, 242.0)">~</text><text xml:space="preserve" font-family="Helvetica-Light" font-size="34.6" fill="#FEFFFF" transform="matrix(1.00, 0.00, -0.00, -1.00, 168.8, 242.0)">1</text><text xml:space="preserve" font-family="Helvetica-Light" font-size="34.6" fill="#FEFFFF" transform="matrix(1.00, 0.00, -0.00, -1.00, 188.0, 242.0)">2</text><text xml:space="preserve" font-family="Helvetica-Light" font-size="34.6" fill="#FEFFFF" transform="matrix(1.00, 0.00, -0.00, -1.00, 207.3, 242.0)"> </text><text xml:space="preserve" font-family="Helvetica-Light" font-size="34.6" fill="#FEFFFF" transform="matrix(1.00, 0.00, -0.00, -1.00, 216.9, 242.0)">v</text><text xml:space="preserve" font-family="Helvetica-Light" font-size="34.6" fill="#FEFFFF" transform="matrix(1.00, 0.00, -0.00, -1.00, 234.2, 242.0)">o</text><text xml:space="preserve" font-family="Helvetica-Light" font-size="34.6" fill="#FEFFFF" transform="matrix(1.00, 0.00, -0.00, -1.00, 253.4, 242.0)">l</text><text xml:space="preserve" font-family="Helvetica-Light" font-size="34.6" fill="#FEFFFF" transform="matrix(1.00, 0.00, -0.00, -1.00, 261.1, 242.0)">u</text><text xml:space="preserve" font-family="Helvetica-Light" font-size="34.6" fill="#FEFFFF" transform="matrix(1.00, 0.00, -0.00, -1.00, 280.3, 242.0)">n</text><text xml:space="preserve" font-family="Helvetica-Light" font-size="34.6" fill="#FEFFFF" transform="matrix(1.00, 0.00, -0.00, -1.00, 299.5, 242.0)">t</text><text xml:space="preserve" font-family="Helvetica-Light" font-size="34.6" fill="#FEFFFF" transform="matrix(1.00, 0.00, -0.00, -1.00, 309.1, 242.0)">e</text><text xml:space="preserve" font-family="Helvetica-Light" font-size="34.6" fill="#FEFFFF" transform="matrix(1.00, 0.00, -0.00, -1.00, 328.4, 242.0)">e</text><text xml:space="preserve" font-family="Helvetica-Light" font-size="34.6" fill="#FEFFFF" transform="matrix(1.00, 0.00, -0.00, -1.00, 347.6, 242.0)">r</text><text xml:space="preserve" font-family="Helvetica-Light" font-size="34.6" fill="#FEFFFF" transform="matrix(1.00, 0.00, -0.00, -1.00, 359.1, 242.0)">s</text><text xml:space="preserve" font-family="Helvetica-Light" font-size="34.6" fill="#FEFFFF" transform="matrix(1.00, 0.00, -0.00, -1.00, 376.4, 242.0)"> </text><text xml:space="preserve" font-family="Helvetica-Light" font-size="34.6" fill="#FEFFFF" transform="matrix(1.00, 0.00, -0.00, -1.00, 386.0, 242.0)">b</text><text xml:space="preserve" font-family="Helvetica-Light" font-size="34.6" fill="#FEFFFF" transform="matrix(1.00, 0.00, -0.00, -1.00, 407.1, 242.0)">e</text><text xml:space="preserve" font-family="Helvetica-Light" font-size="34.6" fill="#FEFFFF" transform="matrix(1.00, 0.00, -0.00, -1.00, 426.4, 242.0)">i</text><text xml:space="preserve" font-family="Helvetica-Light" font-size="34.6" fill="#FEFFFF" transform="matrix(1.00, 0.00, -0.00, -1.00, 434.1, 242.0)">n</text><text xml:space="preserve" font-family="Helvetica-Light" font-size="34.6" fill="#FEFFFF" transform="matrix(1.00, 0.00, -0.00, -1.00, 453.3, 242.0)">g</text><text xml:space="preserve" font-family="Helvetica-Light" font-size="34.6" fill="#FEFFFF" transform="matrix(1.00, 0.00, -0.00, -1.00, 474.4, 242.0)"> </text><text xml:space="preserve" font-family="Helvetica-Light" font-size="34.6" fill="#FEFFFF" transform="matrix(1.00, 0.00, -0.00, -1.00, 484.0, 242.0)">t</text><text xml:space="preserve" font-family="Helvetica-Light" font-size="34.6" fill="#FEFFFF" transform="matrix(1.00, 0.00, -0.00, -1.00, 493.6, 242.0)">r</text><text xml:space="preserve" font-family="Helvetica-Light" font-size="34.6" fill="#FEFFFF" transform="matrix(1.00, 0.00, -0.00, -1.00, 505.1, 242.0)">a</text><text xml:space="preserve" font-family="Helvetica-Light" font-size="34.6" fill="#FEFFFF" transform="matrix(1.00, 0.00, -0.00, -1.00, 524.4, 242.0)">i</text><text xml:space="preserve" font-family="Helvetica-Light" font-size="34.6" fill="#FEFFFF" transform="matrix(1.00, 0.00, -0.00, -1.00, 532.1, 242.0)">n</text><text xml:space="preserve" font-family="Helvetica-Light" font-size="34.6" fill="#FEFFFF" transform="matrix(1.00, 0.00, -0.00, -1.00, 551.3, 242.0)">e</text><text xml:space="preserve" font-family="Helvetica-Light" font-size="34.6" fill="#FEFFFF" transform="matrix(1.00, 0.00, -0.00, -1.00, 570.5, 242.0)">d</text><text xml:space="preserve" font-family="Helvetica-Light" font-size="34.6" fill="#FEFFFF" transform="matrix(1.00, 0.00, -0.00, -1.00, 591.6, 242.0)"> </text><text xml:space="preserve" font-family="Helvetica-Light" font-size="34.6" fill="#FEFFFF" transform="matrix(1.00, 0.00, -0.00, -1.00, 601.2, 242.0)">t</text><text xml:space="preserve" font-family="Helvetica-Light" font-size="34.6" fill="#FEFFFF" transform="matrix(1.00, 0.00, -0.00, -1.00, 610.9, 242.0)">o</text><text xml:space="preserve" font-family="Helvetica-Light" font-size="34.6" fill="#FEFFFF" transform="matrix(1.00, 0.00, -0.00, -1.00, 630.1, 242.0)"> </text><text xml:space="preserve" font-family="Helvetica-Light" font-size="34.6" fill="#FEFFFF" transform="matrix(1.00, 0.00, -0.00, -1.00, 639.7, 242.0)">c</text><text xml:space="preserve" font-family="Helvetica-Light" font-size="34.6" fill="#FEFFFF" transform="matrix(1.00, 0.00, -0.00, -1.00, 658.9, 242.0)">o</text><text xml:space="preserve" font-family="Helvetica-Light" font-size="34.6" fill="#FEFFFF" transform="matrix(1.00, 0.00, -0.00, -1.00, 678.2, 242.0)">l</text><text xml:space="preserve" font-family="Helvetica-Light" font-size="34.6" fill="#FEFFFF" transform="matrix(1.00, 0.00, -0.00, -1.00, 685.8, 242.0)">l</text><text xml:space="preserve" font-family="Helvetica-Light" font-size="34.6" fill="#FEFFFF" transform="matrix(1.00, 0.00, -0.00, -1.00, 693.5, 242.0)">e</text><text xml:space="preserve" font-family="Helvetica-Light" font-size="34.6" fill="#FEFFFF" transform="matrix(1.00, 0.00, -0.00, -1.00, 712.7, 242.0)">c</text><text xml:space="preserve" font-family="Helvetica-Light" font-size="34.6" fill="#FEFFFF" transform="matrix(1.00, 0.00, -0.00, -1.00, 732.0, 242.0)">t</text><text xml:space="preserve" font-family="Helvetica-Light" font-size="34.6" fill="#FEFFFF" transform="matrix(1.00, 0.00, -0.00, -1.00, 741.6, 242.0)"> </text><text xml:space="preserve" font-family="Helvetica-Light" font-size="34.6" fill="#FEFFFF" transform="matrix(1.00, 0.00, -0.00, -1.00, 751.2, 242.0)">m</text><text xml:space="preserve" font-family="Helvetica-Light" font-size="34.6" fill="#FEFFFF" transform="matrix(1.00, 0.00, -0.00, -1.00, 780.0, 242.0)">o</text><text xml:space="preserve" font-family="Helvetica-Light" font-size="34.6" fill="#FEFFFF" transform="matrix(1.00, 0.00, -0.00, -1.00, 799.2, 242.0)">r</text><text xml:space="preserve" font-family="Helvetica-Light" font-size="34.6" fill="#FEFFFF" transform="matrix(1.00, 0.00, -0.00, -1.00, 810.1, 242.0)">e</text><text xml:space="preserve" font-family="Helvetica-Bold" font-weight="bold" font-size="25.9" fill="#FEFFFF" transform="matrix(1.00, 0.00, -0.00, -1.00, 79.0, 165.6)">•</text><text xml:space="preserve" font-family="Helvetica-Bold" font-weight="bold" font-size="34.6" fill="#FEFFFF" transform="matrix(1.00, 0.00, -0.00, -1.00, 111.0, 162.0)">P</text><text xml:space="preserve" font-family="Helvetica-Bold" font-weight="bold" font-size="34.6" fill="#FEFFFF" transform="matrix(1.00, 0.00, -0.00, -1.00, 134.1, 162.0)">r</text><text xml:space="preserve" font-family="Helvetica-Bold" font-weight="bold" font-size="34.6" fill="#FEFFFF" transform="matrix(1.00, 0.00, -0.00, -1.00, 147.5, 162.0)">o</text><text xml:space="preserve" font-family="Helvetica-Bold" font-weight="bold" font-size="34.6" fill="#FEFFFF" transform="matrix(1.00, 0.00, -0.00, -1.00, 168.6, 162.0)">c</text><text xml:space="preserve" font-family="Helvetica-Bold" font-weight="bold" font-size="34.6" fill="#FEFFFF" transform="matrix(1.00, 0.00, -0.00, -1.00, 187.9, 162.0)">e</text><text xml:space="preserve" font-family="Helvetica-Bold" font-weight="bold" font-size="34.6" fill="#FEFFFF" transform="matrix(1.00, 0.00, -0.00, -1.00, 207.1, 162.0)">s</text><text xml:space="preserve" font-family="Helvetica-Bold" font-weight="bold" font-size="34.6" fill="#FEFFFF" transform="matrix(1.00, 0.00, -0.00, -1.00, 226.4, 162.0)">s</text><text xml:space="preserve" font-family="Helvetica-Bold" font-weight="bold" font-size="34.6" fill="#FEFFFF" transform="matrix(1.00, 0.00, -0.00, -1.00, 245.6, 162.0)">i</text><text xml:space="preserve" font-family="Helvetica-Bold" font-weight="bold" font-size="34.6" fill="#FEFFFF" transform="matrix(1.00, 0.00, -0.00, -1.00, 255.2, 162.0)">n</text><text xml:space="preserve" font-family="Helvetica-Bold" font-weight="bold" font-size="34.6" fill="#FEFFFF" transform="matrix(1.00, 0.00, -0.00, -1.00, 276.3, 162.0)">g</text><text xml:space="preserve" font-family="Helvetica-Bold" font-weight="bold" font-size="34.6" fill="#FEFFFF" transform="matrix(1.00, 0.00, -0.00, -1.00, 297.4, 162.0)">,</text><text xml:space="preserve" font-family="Helvetica-Bold" font-weight="bold" font-size="34.6" fill="#FEFFFF" transform="matrix(1.00, 0.00, -0.00, -1.00, 307.0, 162.0)"> </text><text xml:space="preserve" font-family="Helvetica-Bold" font-weight="bold" font-size="34.6" fill="#FEFFFF" transform="matrix(1.00, 0.00, -0.00, -1.00, 316.6, 162.0)">s</text><text xml:space="preserve" font-family="Helvetica-Bold" font-weight="bold" font-size="34.6" fill="#FEFFFF" transform="matrix(1.00, 0.00, -0.00, -1.00, 335.9, 162.0)">t</text><text xml:space="preserve" font-family="Helvetica-Bold" font-weight="bold" font-size="34.6" fill="#FEFFFF" transform="matrix(1.00, 0.00, -0.00, -1.00, 347.4, 162.0)">o</text><text xml:space="preserve" font-family="Helvetica-Bold" font-weight="bold" font-size="34.6" fill="#FEFFFF" transform="matrix(1.00, 0.00, -0.00, -1.00, 368.5, 162.0)">r</text><text xml:space="preserve" font-family="Helvetica-Bold" font-weight="bold" font-size="34.6" fill="#FEFFFF" transform="matrix(1.00, 0.00, -0.00, -1.00, 382.0, 162.0)">a</text><text xml:space="preserve" font-family="Helvetica-Bold" font-weight="bold" font-size="34.6" fill="#FEFFFF" transform="matrix(1.00, 0.00, -0.00, -1.00, 401.2, 162.0)">g</text><text xml:space="preserve" font-family="Helvetica-Bold" font-weight="bold" font-size="34.6" fill="#FEFFFF" transform="matrix(1.00, 0.00, -0.00, -1.00, 422.3, 162.0)">e</text><text xml:space="preserve" font-family="Helvetica-Bold" font-weight="bold" font-size="34.6" fill="#FEFFFF" transform="matrix(1.00, 0.00, -0.00, -1.00, 441.6, 162.0)">,</text><text xml:space="preserve" font-family="Helvetica-Bold" font-weight="bold" font-size="34.6" fill="#FEFFFF" transform="matrix(1.00, 0.00, -0.00, -1.00, 451.2, 162.0)"> </text><text xml:space="preserve" font-family="Helvetica-Bold" font-weight="bold" font-size="34.6" fill="#FEFFFF" transform="matrix(1.00, 0.00, -0.00, -1.00, 460.8, 162.0)">a</text><text xml:space="preserve" font-family="Helvetica-Bold" font-weight="bold" font-size="34.6" fill="#FEFFFF" transform="matrix(1.00, 0.00, -0.00, -1.00, 480.0, 162.0)">r</text><text xml:space="preserve" font-family="Helvetica-Bold" font-weight="bold" font-size="34.6" fill="#FEFFFF" transform="matrix(1.00, 0.00, -0.00, -1.00, 493.5, 162.0)">c</text><text xml:space="preserve" font-family="Helvetica-Bold" font-weight="bold" font-size="34.6" fill="#FEFFFF" transform="matrix(1.00, 0.00, -0.00, -1.00, 512.7, 162.0)">h</text><text xml:space="preserve" font-family="Helvetica-Bold" font-weight="bold" font-size="34.6" fill="#FEFFFF" transform="matrix(1.00, 0.00, -0.00, -1.00, 533.8, 162.0)">i</text><text xml:space="preserve" font-family="Helvetica-Bold" font-weight="bold" font-size="34.6" fill="#FEFFFF" transform="matrix(1.00, 0.00, -0.00, -1.00, 543.4, 162.0)">v</text><text xml:space="preserve" font-family="Helvetica-Bold" font-weight="bold" font-size="34.6" fill="#FEFFFF" transform="matrix(1.00, 0.00, -0.00, -1.00, 562.7, 162.0)">i</text><text xml:space="preserve" font-family="Helvetica-Bold" font-weight="bold" font-size="34.6" fill="#FEFFFF" transform="matrix(1.00, 0.00, -0.00, -1.00, 572.3, 162.0)">n</text><text xml:space="preserve" font-family="Helvetica-Bold" font-weight="bold" font-size="34.6" fill="#FEFFFF" transform="matrix(1.00, 0.00, -0.00, -1.00, 593.4, 162.0)">g</text><text xml:space="preserve" font-family="Helvetica-Bold" font-weight="bold" font-size="34.6" fill="#FEFFFF" transform="matrix(1.00, 0.00, -0.00, -1.00, 614.5, 162.0)"> </text><text xml:space="preserve" font-family="Helvetica-Bold" font-weight="bold" font-size="34.6" fill="#FEFFFF" transform="matrix(1.00, 0.00, -0.00, -1.00, 624.1, 162.0)">o</text><text xml:space="preserve" font-family="Helvetica-Bold" font-weight="bold" font-size="34.6" fill="#FEFFFF" transform="matrix(1.00, 0.00, -0.00, -1.00, 645.2, 162.0)">f</text><text xml:space="preserve" font-family="Helvetica-Bold" font-weight="bold" font-size="34.6" fill="#FEFFFF" transform="matrix(1.00, 0.00, -0.00, -1.00, 656.7, 162.0)"> </text><text xml:space="preserve" font-family="Helvetica-Bold" font-weight="bold" font-size="34.6" fill="#FEFFFF" transform="matrix(1.00, 0.00, -0.00, -1.00, 666.3, 162.0)">m</text><text xml:space="preserve" font-family="Helvetica-Bold" font-weight="bold" font-size="34.6" fill="#FEFFFF" transform="matrix(1.00, 0.00, -0.00, -1.00, 697.1, 162.0)">e</text><text xml:space="preserve" font-family="Helvetica-Bold" font-weight="bold" font-size="34.6" fill="#FEFFFF" transform="matrix(1.00, 0.00, -0.00, -1.00, 716.3, 162.0)">t</text><text xml:space="preserve" font-family="Helvetica-Bold" font-weight="bold" font-size="34.6" fill="#FEFFFF" transform="matrix(1.00, 0.00, -0.00, -1.00, 727.8, 162.0)">r</text><text xml:space="preserve" font-family="Helvetica-Bold" font-weight="bold" font-size="34.6" fill="#FEFFFF" transform="matrix(1.00, 0.00, -0.00, -1.00, 741.3, 162.0)">i</text><text xml:space="preserve" font-family="Helvetica-Bold" font-weight="bold" font-size="34.6" fill="#FEFFFF" transform="matrix(1.00, 0.00, -0.00, -1.00, 750.9, 162.0)">c</text><text xml:space="preserve" font-family="Helvetica-Bold" font-weight="bold" font-size="34.6" fill="#FEFFFF" transform="matrix(1.00, 0.00, -0.00, -1.00, 770.1, 162.0)"> </text><text xml:space="preserve" font-family="Helvetica-Bold" font-weight="bold" font-size="34.6" fill="#FEFFFF" transform="matrix(1.00, 0.00, -0.00, -1.00, 779.7, 162.0)">p</text><text xml:space="preserve" font-family="Helvetica-Bold" font-weight="bold" font-size="34.6" fill="#FEFFFF" transform="matrix(1.00, 0.00, -0.00, -1.00, 800.9, 162.0)">h</text><text xml:space="preserve" font-family="Helvetica-Bold" font-weight="bold" font-size="34.6" fill="#FEFFFF" transform="matrix(1.00, 0.00, -0.00, -1.00, 822.0, 162.0)">o</text><text xml:space="preserve" font-family="Helvetica-Bold" font-weight="bold" font-size="34.6" fill="#FEFFFF" transform="matrix(1.00, 0.00, -0.00, -1.00, 843.1, 162.0)">t</text><text xml:space="preserve" font-family="Helvetica-Bold" font-weight="bold" font-size="34.6" fill="#FEFFFF" transform="matrix(1.00, 0.00, -0.00, -1.00, 854.6, 162.0)">o</text><text xml:space="preserve" font-family="Helvetica-Bold" font-weight="bold" font-size="34.6" fill="#FEFFFF" transform="matrix(1.00, 0.00, -0.00, -1.00, 875.7, 162.0)">s</text><text xml:space="preserve" font-family="Helvetica-Light" font-size="25.9" fill="#FEFFFF" transform="matrix(1.00, 0.00, -0.00, -1.00, 114.0, 85.4)">•</text><text xml:space="preserve" font-family="Helvetica-Light" font-size="34.6" fill="#FEFFFF" transform="matrix(1.00, 0.00, -0.00, -1.00, 146.0, 82.0)">T</text><text xml:space="preserve" font-family="Helvetica-Light" font-size="34.6" fill="#FEFFFF" transform="matrix(1.00, 0.00, -0.00, -1.00, 162.0, 82.0)">u</text><text xml:space="preserve" font-family="Helvetica-Light" font-size="34.6" fill="#FEFFFF" transform="matrix(1.00, 0.00, -0.00, -1.00, 181.3, 82.0)">r</text><text xml:space="preserve" font-family="Helvetica-Light" font-size="34.6" fill="#FEFFFF" transform="matrix(1.00, 0.00, -0.00, -1.00, 193.4, 82.0)">n</text><text xml:space="preserve" font-family="Helvetica-Light" font-size="34.6" fill="#FEFFFF" transform="matrix(1.00, 0.00, -0.00, -1.00, 212.6, 82.0)"> </text><text xml:space="preserve" font-family="Helvetica-Light" font-size="34.6" fill="#FEFFFF" transform="matrix(1.00, 0.00, -0.00, -1.00, 222.2, 82.0)">r</text><text xml:space="preserve" font-family="Helvetica-Light" font-size="34.6" fill="#FEFFFF" transform="matrix(1.00, 0.00, -0.00, -1.00, 233.8, 82.0)">a</text><text xml:space="preserve" font-family="Helvetica-Light" font-size="34.6" fill="#FEFFFF" transform="matrix(1.00, 0.00, -0.00, -1.00, 253.0, 82.0)">w</text><text xml:space="preserve" font-family="Helvetica-Light" font-size="34.6" fill="#FEFFFF" transform="matrix(1.00, 0.00, -0.00, -1.00, 278.0, 82.0)"> </text><text xml:space="preserve" font-family="Helvetica-Light" font-size="34.6" fill="#FEFFFF" transform="matrix(1.00, 0.00, -0.00, -1.00, 287.6, 82.0)">d</text><text xml:space="preserve" font-family="Helvetica-Light" font-size="34.6" fill="#FEFFFF" transform="matrix(1.00, 0.00, -0.00, -1.00, 308.7, 82.0)">a</text><text xml:space="preserve" font-family="Helvetica-Light" font-size="34.6" fill="#FEFFFF" transform="matrix(1.00, 0.00, -0.00, -1.00, 327.9, 82.0)">t</text><text xml:space="preserve" font-family="Helvetica-Light" font-size="34.6" fill="#FEFFFF" transform="matrix(1.00, 0.00, -0.00, -1.00, 337.5, 82.0)">a</text><text xml:space="preserve" font-family="Helvetica-Light" font-size="34.6" fill="#FEFFFF" transform="matrix(1.00, 0.00, -0.00, -1.00, 356.8, 82.0)"> </text><text xml:space="preserve" font-family="Helvetica-Light" font-size="34.6" fill="#FEFFFF" transform="matrix(1.00, 0.00, -0.00, -1.00, 366.4, 82.0)">i</text><text xml:space="preserve" font-family="Helvetica-Light" font-size="34.6" fill="#FEFFFF" transform="matrix(1.00, 0.00, -0.00, -1.00, 374.1, 82.0)">n</text><text xml:space="preserve" font-family="Helvetica-Light" font-size="34.6" fill="#FEFFFF" transform="matrix(1.00, 0.00, -0.00, -1.00, 393.3, 82.0)">t</text><text xml:space="preserve" font-family="Helvetica-Light" font-size="34.6" fill="#FEFFFF" transform="matrix(1.00, 0.00, -0.00, -1.00, 402.9, 82.0)">o</text><text xml:space="preserve" font-family="Helvetica-Light" font-size="34.6" fill="#FEFFFF" transform="matrix(1.00, 0.00, -0.00, -1.00, 422.1, 82.0)"> </text><text xml:space="preserve" font-family="Helvetica-Light" font-size="34.6" fill="#FEFFFF" transform="matrix(1.00, 0.00, -0.00, -1.00, 431.7, 82.0)">g</text><text xml:space="preserve" font-family="Helvetica-Light" font-size="34.6" fill="#FEFFFF" transform="matrix(1.00, 0.00, -0.00, -1.00, 452.9, 82.0)">e</text><text xml:space="preserve" font-family="Helvetica-Light" font-size="34.6" fill="#FEFFFF" transform="matrix(1.00, 0.00, -0.00, -1.00, 472.1, 82.0)">o</text><text xml:space="preserve" font-family="Helvetica-Light" font-size="34.6" fill="#FEFFFF" transform="matrix(1.00, 0.00, -0.00, -1.00, 491.3, 82.0)">g</text><text xml:space="preserve" font-family="Helvetica-Light" font-size="34.6" fill="#FEFFFF" transform="matrix(1.00, 0.00, -0.00, -1.00, 512.4, 82.0)">r</text><text xml:space="preserve" font-family="Helvetica-Light" font-size="34.6" fill="#FEFFFF" transform="matrix(1.00, 0.00, -0.00, -1.00, 524.0, 82.0)">a</text><text xml:space="preserve" font-family="Helvetica-Light" font-size="34.6" fill="#FEFFFF" transform="matrix(1.00, 0.00, -0.00, -1.00, 543.2, 82.0)">p</text><text xml:space="preserve" font-family="Helvetica-Light" font-size="34.6" fill="#FEFFFF" transform="matrix(1.00, 0.00, -0.00, -1.00, 564.3, 82.0)">h</text><text xml:space="preserve" font-family="Helvetica-Light" font-size="34.6" fill="#FEFFFF" transform="matrix(1.00, 0.00, -0.00, -1.00, 583.5, 82.0)">i</text><text xml:space="preserve" font-family="Helvetica-Light" font-size="34.6" fill="#FEFFFF" transform="matrix(1.00, 0.00, -0.00, -1.00, 591.2, 82.0)">c</text><text xml:space="preserve" font-family="Helvetica-Light" font-size="34.6" fill="#FEFFFF" transform="matrix(1.00, 0.00, -0.00, -1.00, 610.4, 82.0)"> </text><text xml:space="preserve" font-family="Helvetica-Light" font-size="34.6" fill="#FEFFFF" transform="matrix(1.00, 0.00, -0.00, -1.00, 620.1, 82.0)">d</text><text xml:space="preserve" font-family="Helvetica-Light" font-size="34.6" fill="#FEFFFF" transform="matrix(1.00, 0.00, -0.00, -1.00, 641.2, 82.0)">a</text><text xml:space="preserve" font-family="Helvetica-Light" font-size="34.6" fill="#FEFFFF" transform="matrix(1.00, 0.00, -0.00, -1.00, 660.4, 82.0)">t</text><text xml:space="preserve" font-family="Helvetica-Light" font-size="34.6" fill="#FEFFFF" transform="matrix(1.00, 0.00, -0.00, -1.00, 670.0, 82.0)">a</text><text xml:space="preserve" font-family="Aller-Bold" font-weight="bold" font-size="80.0" fill="#A7D3A9" transform="matrix(1.00, 0.00, -0.00, -1.00, 282.0, 629.0)">B</text><text xml:space="preserve" font-family="Aller-Bold" font-weight="bold" font-size="80.0" fill="#A7D3A9" transform="matrix(1.00, 0.00, -0.00, -1.00, 330.4, 629.0)">i</text><text xml:space="preserve" font-family="Aller-Bold" font-weight="bold" font-size="80.0" fill="#A7D3A9" transform="matrix(1.00, 0.00, -0.00, -1.00, 355.0, 629.0)">g</text><text xml:space="preserve" font-family="Aller-Bold" font-weight="bold" font-size="80.0" fill="#A7D3A9" transform="matrix(1.00, 0.00, -0.00, -1.00, 400.2, 629.0)">g</text><text xml:space="preserve" font-family="Aller-Bold" font-weight="bold" font-size="80.0" fill="#A7D3A9" transform="matrix(1.00, 0.00, -0.00, -1.00, 445.5, 629.0)">i</text><text xml:space="preserve" font-family="Aller-Bold" font-weight="bold" font-size="80.0" fill="#A7D3A9" transform="matrix(1.00, 0.00, -0.00, -1.00, 470.1, 629.0)">s</text><text xml:space="preserve" font-family="Aller-Bold" font-weight="bold" font-size="80.0" fill="#A7D3A9" transform="matrix(1.00, 0.00, -0.00, -1.00, 506.9, 629.0)">h</text><text xml:space="preserve" font-family="Aller-Bold" font-weight="bold" font-size="80.0" fill="#A7D3A9" transform="matrix(1.00, 0.00, -0.00, -1.00, 553.8, 629.0)"> </text><text xml:space="preserve" font-family="Aller-Bold" font-weight="bold" font-size="80.0" fill="#A7D3A9" transform="matrix(1.00, 0.00, -0.00, -1.00, 571.4, 629.0)">D</text><text xml:space="preserve" font-family="Aller-Bold" font-weight="bold" font-size="80.0" fill="#A7D3A9" transform="matrix(1.00, 0.00, -0.00, -1.00, 627.4, 629.0)">a</text><text xml:space="preserve" font-family="Aller-Bold" font-weight="bold" font-size="80.0" fill="#A7D3A9" transform="matrix(1.00, 0.00, -0.00, -1.00, 669.1, 629.0)">t</text><text xml:space="preserve" font-family="Aller-Bold" font-weight="bold" font-size="80.0" fill="#A7D3A9" transform="matrix(1.00, 0.00, -0.00, -1.00, 699.8, 629.0)">a</text></g></svg>