<?xml version="1.0" encoding="UTF-8" standalone="no"?><svg xmlns="http://www.w3.org/2000/svg" xmlns:xlink="http://www.w3.org/1999/xlink" clip-rule="evenodd" stroke-miterlimit="4.00" viewBox="0 0 120 154"><desc>SVG generated by Keynote</desc><defs></defs><g transform="matrix(1.00, 0.00, -0.00, -1.00, 0.0, 154.0)"><g><clipPath id="clip-34"><path d="M 1.0 152.5 L 118.8 152.5 L 118.8 2.0 L 1.0 2.0 Z M 1.0 152.5 "></path></clipPath><g clip-path="url(#clip-34)"><g><clipPath id="clip-35"><path d="M 1.0 2.0 L 119.0 2.0 L 119.0 153.0 L 1.0 153.0 Z M 1.0 2.0 "></path></clipPath><g clip-path="url(#clip-35)"><path d="M 1.0 7.1 L 51.7 7.1 L 51.7 2.0 L 1.0 2.0 Z M 1.0 7.1 " fill="#FFFEFE"></path></g></g></g></g><g><clipPath id="clip-36"><path d="M 1.0 2.0 L 119.0 2.0 L 119.0 153.0 L 1.0 153.0 Z M 1.0 2.0 "></path></clipPath><g clip-path="url(#clip-36)"><path d="M 60.2 132.2 C 62.9 132.1 65.1 134.2 65.2 136.8 C 65.2 139.5 63.1 141.7 60.5 141.8 C 57.8 141.9 55.6 139.8 55.5 137.1 C 55.4 134.5 57.5 132.3 60.2 132.2 " fill="#FFFEFE"></path><path d="M 51.2 133.7 C 52.0 133.7 54.8 133.2 56.7 131.8 C 58.5 130.4 60.6 127.4 60.7 127.1 C 60.7 127.4 62.8 130.4 63.6 131.1 C 65.0 132.2 66.5 133.4 70.3 133.7 L 70.2 128.7 C 69.5 128.7 68.1 128.3 66.9 127.2 C 65.6 126.1 64.2 124.1 63.7 122.6 C 63.3 121.2 63.2 119.9 63.2 119.1 L 63.3 109.2 L 58.2 109.2 L 58.3 119.0 C 58.3 119.9 58.1 121.8 57.6 122.8 C 57.1 123.7 56.1 126.3 54.1 127.5 C 53.5 127.9 52.6 128.7 51.2 128.7 L 51.2 133.7 " fill="#FFFEFE"></path><path d="M 60.6 146.6 C 60.8 146.5 65.1 143.6 68.6 140.0 C 69.8 138.9 72.8 135.3 72.8 130.8 C 72.8 126.8 70.5 123.9 70.3 123.7 C 69.4 122.7 66.3 120.2 64.5 120.0 L 64.5 114.8 C 66.7 115.3 70.5 116.7 72.7 118.9 C 74.8 121.0 76.6 123.6 77.4 126.9 C 78.3 130.6 77.6 134.9 76.4 137.3 C 74.9 140.6 72.2 143.8 68.9 146.4 L 60.6 152.5 L 52.4 146.4 C 49.1 143.7 46.4 140.6 44.9 137.3 C 43.7 134.8 43.1 130.5 44.0 126.8 C 44.8 123.5 46.6 120.9 48.7 118.8 C 50.9 116.7 54.7 115.2 56.9 114.8 L 56.9 120.0 C 55.1 120.2 51.9 122.7 51.1 123.6 C 50.8 123.9 48.5 126.8 48.5 130.8 C 48.5 135.2 51.5 138.9 52.7 140.0 C 56.2 143.6 60.5 146.5 60.6 146.6 " fill="#FFFEFE"></path><path d="M 37.0 104.9 C 36.9 105.7 36.4 106.3 35.5 106.3 C 34.5 106.3 33.9 105.4 33.9 103.8 C 33.9 102.6 34.2 101.4 35.6 101.4 C 36.5 101.4 36.9 102.1 37.0 102.9 L 39.7 102.9 C 39.4 100.7 37.9 99.3 35.6 99.3 C 32.8 99.3 31.2 101.1 31.2 103.9 C 31.2 106.6 33.0 108.4 35.4 108.4 C 38.0 108.4 39.4 107.1 39.6 104.9 L 37.0 104.9 " fill="#FFFEFE"></path><path d="M 40.3 108.1 L 42.8 108.1 L 42.8 99.5 L 40.3 99.5 Z M 40.3 108.1 " fill="#FFFEFE"></path><path d="M 45.9 102.1 C 45.9 101.4 46.5 100.9 47.1 100.9 C 47.5 100.9 47.9 101.1 48.0 101.4 L 50.4 101.4 C 50.0 99.9 48.4 99.4 47.0 99.4 C 45.0 99.4 43.5 100.5 43.5 102.6 C 43.5 104.7 45.0 106.0 47.0 106.0 C 49.2 106.0 50.6 104.4 50.6 102.1 L 45.9 102.1 Z M 48.1 103.4 C 48.1 103.9 47.6 104.5 47.1 104.5 C 46.3 104.5 45.9 104.0 45.9 103.4 L 48.1 103.4 " fill="#FFFEFE"></path><path d="M 50.5 105.8 L 53.0 105.8 L 54.1 101.8 L 55.1 105.8 L 57.5 105.8 L 55.4 99.5 L 52.7 99.5 L 50.5 105.8 " fill="#FFFEFE"></path><path d="M 59.6 102.1 C 59.6 101.4 60.2 100.9 60.9 100.9 C 61.2 100.9 61.6 101.1 61.8 101.4 L 64.1 101.4 C 63.7 99.9 62.1 99.4 60.7 99.4 C 58.7 99.4 57.2 100.5 57.2 102.6 C 57.2 104.7 58.7 106.0 60.7 106.0 C 63.0 106.0 64.3 104.4 64.3 102.1 L 59.6 102.1 Z M 61.9 103.4 C 61.9 103.9 61.4 104.5 60.8 104.5 C 60.1 104.5 59.6 104.0 59.6 103.4 L 61.9 103.4 " fill="#FFFEFE"></path><path d="M 64.9 108.1 L 67.3 108.1 L 67.3 99.5 L 64.9 99.5 Z M 64.9 108.1 " fill="#FFFEFE"></path><path d="M 72.5 99.5 L 72.4 100.2 C 71.7 99.6 71.0 99.4 70.1 99.4 C 69.0 99.4 67.9 99.9 67.9 101.3 C 67.9 104.1 72.3 102.8 72.3 104.0 C 72.3 104.4 71.8 104.5 71.5 104.5 C 71.2 104.5 70.7 104.4 70.6 103.9 L 68.3 103.9 C 68.3 105.2 69.2 106.0 71.7 106.0 C 74.6 106.0 74.7 104.9 74.7 103.4 L 74.7 100.5 C 74.7 100.1 74.8 99.9 75.1 99.7 L 75.1 99.5 L 72.5 99.5 Z M 72.3 102.3 C 71.5 101.9 70.4 102.1 70.4 101.3 C 70.4 101.0 70.7 100.8 71.2 100.8 C 72.1 100.8 72.4 101.5 72.3 102.3 " fill="#FFFEFE"></path><path d="M 75.7 105.8 L 77.9 105.8 L 77.9 104.8 C 78.5 105.6 79.1 106.0 80.0 106.0 C 81.6 106.0 82.4 105.0 82.4 103.3 L 82.4 99.5 L 80.0 99.5 L 80.0 102.8 C 80.0 103.5 79.8 104.0 79.1 104.0 C 78.3 104.0 78.1 103.5 78.1 102.7 L 78.1 99.5 L 75.7 99.5 L 75.7 105.8 " fill="#FFFEFE"></path><path d="M 87.6 99.5 L 87.6 100.4 C 87.1 99.6 86.5 99.4 85.7 99.4 C 83.9 99.4 82.9 100.8 82.9 102.6 C 82.9 104.6 84.1 106.0 85.6 106.0 C 86.3 106.0 86.9 105.8 87.4 105.2 L 87.4 108.1 L 89.8 108.1 L 89.8 99.5 L 87.6 99.5 Z M 87.5 102.6 C 87.5 103.3 87.2 104.1 86.4 104.1 C 85.6 104.1 85.4 103.3 85.4 102.6 C 85.4 101.9 85.6 101.2 86.4 101.2 C 87.2 101.2 87.5 101.9 87.5 102.6 " fill="#FFFEFE"></path><path d="M 26.8 89.0 L 26.8 97.5 L 30.2 97.5 L 31.7 92.2 L 33.2 97.5 L 36.5 97.5 L 36.5 89.0 L 34.0 89.0 L 34.0 91.6 L 34.1 92.9 L 34.2 94.5 L 34.2 94.5 L 32.6 89.0 L 30.7 89.0 L 29.2 94.5 L 29.1 94.5 L 29.3 93.2 L 29.3 91.9 L 29.3 89.0 L 26.8 89.0 " fill="#FFFEFE"></path><path d="M 39.5 91.5 C 39.5 90.8 40.1 90.3 40.7 90.3 C 41.1 90.3 41.4 90.5 41.6 90.8 L 44.0 90.8 C 43.5 89.3 42.0 88.8 40.5 88.8 C 38.6 88.8 37.0 89.9 37.0 92.0 C 37.0 94.1 38.6 95.4 40.5 95.4 C 42.8 95.4 44.2 93.8 44.2 91.5 L 39.5 91.5 Z M 41.7 92.8 C 41.7 93.4 41.2 93.9 40.6 93.9 C 39.9 93.9 39.5 93.5 39.5 92.8 L 41.7 92.8 " fill="#FFFEFE"></path><path d="M 48.7 89.0 C 45.5 88.8 45.1 89.0 45.1 91.2 L 45.1 93.8 L 44.3 93.8 L 44.3 95.2 L 45.2 95.2 L 45.2 97.2 L 47.6 97.2 L 47.6 95.2 L 48.7 95.2 L 48.7 93.8 L 47.6 93.8 L 47.6 91.5 C 47.6 90.9 47.7 90.7 48.3 90.7 L 48.7 90.7 L 48.7 89.0 " fill="#FFFEFE"></path><path d="M 49.4 95.2 L 51.6 95.2 L 51.6 93.9 L 51.6 93.9 C 52.0 94.9 52.6 95.4 53.5 95.4 C 53.6 95.4 53.7 95.4 53.8 95.4 L 53.8 92.9 C 53.7 92.9 53.5 92.9 53.3 92.9 C 52.3 92.9 51.8 92.5 51.8 91.1 L 51.8 89.0 L 49.4 89.0 L 49.4 95.2 " fill="#FFFEFE"></path><path d="M 57.4 95.4 C 59.5 95.4 60.9 94.1 60.9 92.1 C 60.9 89.9 59.3 88.8 57.4 88.8 C 55.4 88.8 53.9 89.9 53.9 92.0 C 53.9 94.2 55.3 95.4 57.4 95.4 M 56.3 92.1 C 56.3 91.0 56.7 90.4 57.4 90.4 C 58.0 90.4 58.4 91.0 58.4 92.1 C 58.4 93.1 58.0 93.8 57.4 93.7 C 56.6 93.7 56.3 92.8 56.3 92.1 " fill="#FFFEFE"></path><path d="M 63.6 95.2 L 63.6 94.3 L 63.6 94.3 C 63.9 95.0 64.8 95.4 65.5 95.4 C 67.4 95.4 68.3 93.9 68.3 92.1 C 68.3 89.7 66.8 88.8 65.4 88.8 C 64.7 88.8 64.2 89.1 63.8 89.6 L 63.8 86.8 L 61.4 86.8 L 61.4 95.2 L 63.6 95.2 Z M 65.8 92.1 C 65.8 93.1 65.4 93.6 64.8 93.6 C 64.2 93.6 63.8 93.0 63.8 92.1 C 63.8 91.3 64.1 90.7 64.8 90.7 C 65.4 90.7 65.8 91.2 65.8 92.1 " fill="#FFFEFE"></path><path d="M 73.2 89.0 L 73.1 89.6 C 72.4 89.0 71.7 88.8 70.8 88.8 C 69.6 88.8 68.6 89.4 68.6 90.7 C 68.6 93.5 73.0 92.2 73.0 93.4 C 73.0 93.8 72.4 93.9 72.2 93.9 C 71.8 93.9 71.4 93.8 71.3 93.3 L 69.0 93.3 C 69.0 94.6 69.9 95.4 72.3 95.4 C 75.2 95.4 75.4 94.3 75.4 92.8 L 75.4 89.9 C 75.4 89.5 75.4 89.3 75.7 89.1 L 75.7 89.0 L 73.2 89.0 Z M 73.0 91.7 C 72.2 91.3 71.1 91.5 71.1 90.7 C 71.1 90.4 71.4 90.2 71.9 90.2 C 72.7 90.2 73.0 90.9 73.0 91.7 " fill="#FFFEFE"></path><path d="M 76.4 95.2 L 78.7 95.2 L 78.7 93.9 L 78.7 93.9 C 79.0 94.9 79.6 95.4 80.6 95.4 C 80.7 95.4 80.8 95.4 80.9 95.4 L 80.9 92.9 C 80.7 92.9 80.5 92.9 80.4 92.9 C 79.4 92.9 78.9 92.5 78.9 91.1 L 78.9 89.0 L 76.4 89.0 L 76.4 95.2 " fill="#FFFEFE"></path><path d="M 83.8 90.7 L 83.8 89.0 L 81.3 89.0 L 81.3 97.5 L 83.8 97.5 L 83.8 93.3 L 85.3 95.2 L 88.2 95.2 L 85.9 92.8 L 88.5 89.0 L 85.6 89.0 L 84.2 91.2 L 83.8 90.7 " fill="#FFFEFE"></path></g></g><g><clipPath id="clip-37"><path d="M 1.0 152.5 L 118.8 152.5 L 118.8 2.0 L 1.0 2.0 Z M 1.0 152.5 "></path></clipPath><g clip-path="url(#clip-37)"><g><clipPath id="clip-38"><path d="M 1.0 2.0 L 119.0 2.0 L 119.0 153.0 L 1.0 153.0 Z M 1.0 2.0 "></path></clipPath><g clip-path="url(#clip-38)"><path d="M 90.7 90.9 C 90.7 90.7 90.8 90.5 91.0 90.3 C 91.1 90.2 91.3 90.1 91.6 90.1 C 91.9 90.1 92.3 90.3 92.3 90.7 C 92.3 91.7 88.6 90.9 88.6 93.3 C 88.6 94.9 90.2 95.4 91.5 95.4 C 92.8 95.4 94.4 95.1 94.5 93.4 L 92.3 93.4 C 92.3 93.6 92.2 93.8 92.1 93.9 C 91.9 94.0 91.8 94.0 91.6 94.0 C 91.2 94.0 90.9 93.9 90.9 93.6 C 90.9 92.7 94.8 93.3 94.8 91.0 C 94.8 89.7 93.7 88.8 91.5 88.8 C 90.1 88.8 88.5 89.2 88.4 90.9 L 90.7 90.9 " fill="#FFFEFE"></path><path d="M 73.3 21.7 L 73.3 31.3 C 73.3 35.1 71.5 36.9 67.8 36.9 L 59.7 36.9 L 59.7 2.0 L 64.1 2.0 L 64.1 16.1 L 67.9 16.1 C 71.5 16.1 73.3 18.0 73.3 21.7 M 68.8 22.0 C 68.8 20.7 68.2 20.1 67.0 20.1 L 64.1 20.1 L 64.1 33.0 L 66.8 33.0 C 68.1 33.0 68.8 32.3 68.8 31.1 L 68.8 22.0 " fill="#FFFFFF"></path><path d="M 86.1 6.0 L 80.0 6.0 L 80.0 36.9 L 75.5 36.9 L 75.5 2.0 L 86.1 2.0 L 86.1 6.0 " fill="#FFFFFF"></path><path d="M 102.2 2.0 L 102.2 31.3 C 102.2 35.1 100.4 36.9 96.8 36.9 L 93.5 36.9 C 89.9 36.9 88.1 35.1 88.1 31.3 L 88.1 2.0 L 92.6 2.0 L 92.6 16.2 L 97.7 16.2 L 97.7 2.0 L 102.2 2.0 Z M 97.7 20.2 L 92.6 20.2 L 92.6 31.1 C 92.6 32.3 93.2 33.0 94.5 33.0 L 95.8 33.0 C 97.1 33.0 97.7 32.3 97.7 31.1 L 97.7 20.2 " fill="#FFFFFF"></path><path d="M 113.4 16.3 L 118.8 36.9 L 114.4 36.9 L 111.3 22.7 L 111.2 22.7 L 107.8 36.9 L 103.4 36.9 L 108.9 16.3 L 108.9 2.0 L 113.4 2.0 L 113.4 16.3 " fill="#FFFFFF"></path></g></g></g></g><g><clipPath id="clip-39"><path d="M 1.0 2.0 L 119.0 2.0 L 119.0 153.0 L 1.0 153.0 Z M 1.0 2.0 "></path></clipPath><g clip-path="url(#clip-39)"><path d="M 15.1 11.1 L 15.1 32.5 C 15.1 35.5 13.3 36.9 9.7 36.9 L 6.4 36.9 C 2.8 36.9 1.0 35.5 1.0 32.5 L 1.0 11.1 L 5.5 11.1 L 5.5 20.5 L 10.6 20.5 L 10.6 11.1 L 15.1 11.1 Z M 10.6 23.7 L 5.5 23.7 L 5.5 32.3 C 5.5 33.3 6.1 33.8 7.4 33.8 L 8.7 33.8 C 10.0 33.8 10.6 33.3 10.6 32.3 L 10.6 23.7 " fill="#FFFEFE"></path><path d="M 23.9 36.9 L 19.4 36.9 L 19.4 11.1 L 23.9 11.1 L 23.9 28.0 L 28.7 16.2 L 28.7 11.1 L 33.2 11.1 L 33.2 36.9 L 28.7 36.9 L 28.7 24.4 L 23.9 36.9 " fill="#FFFEFE"></path><path d="M 51.6 14.8 L 51.6 32.0 C 51.6 35.3 49.5 36.9 45.3 36.9 L 37.5 36.9 L 37.5 11.1 L 46.3 11.1 C 49.9 11.1 51.6 12.3 51.6 14.8 M 47.2 15.4 C 47.2 14.6 46.6 14.2 45.4 14.2 L 42.0 14.2 L 42.0 33.8 L 45.1 33.8 C 46.5 33.8 47.2 33.2 47.2 31.9 L 47.2 15.4 " fill="#FFFEFE"></path><path d="M 10.0 49.2 L 10.0 47.3 C 10.0 45.9 9.4 45.3 8.2 45.3 L 7.1 45.3 C 6.0 45.3 5.4 45.9 5.4 47.3 L 5.4 69.7 C 5.4 71.1 6.0 71.7 7.1 71.7 L 8.0 71.7 C 9.3 71.7 10.0 71.1 10.0 69.7 L 10.0 66.1 L 14.3 66.1 L 14.3 70.0 C 14.3 74.0 12.6 76.0 9.1 76.0 L 6.3 76.0 C 2.8 76.0 1.0 74.0 1.0 70.0 L 1.0 47.0 C 1.0 43.0 2.8 41.0 6.3 41.0 L 9.1 41.0 C 12.6 41.0 14.3 43.0 14.3 47.0 L 14.3 49.2 L 10.0 49.2 " fill="#FFFEFE"></path><path d="M 31.5 47.0 L 31.5 70.0 C 31.5 74.0 29.7 76.0 26.2 76.0 L 22.0 76.0 C 18.5 76.0 16.7 74.0 16.7 70.0 L 16.7 47.0 C 16.7 43.0 18.5 41.0 22.0 41.0 L 26.2 41.0 C 29.7 41.0 31.5 43.0 31.5 47.0 M 27.1 47.3 C 27.1 45.9 26.5 45.3 25.3 45.3 L 23.1 45.3 C 21.8 45.3 21.1 45.9 21.1 47.3 L 21.1 69.7 C 21.1 71.1 21.8 71.7 23.1 71.7 L 25.1 71.7 C 26.4 71.7 27.1 71.1 27.1 69.7 L 27.1 47.3 " fill="#FFFEFE"></path><path d="M 38.7 76.0 L 33.9 76.0 L 33.9 41.0 L 38.3 41.0 L 37.8 63.9 L 41.1 47.4 L 44.5 47.4 L 47.8 63.9 L 47.3 41.0 L 51.7 41.0 L 51.7 76.0 L 46.8 76.0 L 42.8 55.4 L 38.7 76.0 " fill="#FFFEFE"></path><path d="M 65.0 41.0 L 65.0 45.3 L 58.5 45.3 L 58.5 56.9 L 64.2 56.9 L 64.2 61.1 L 58.5 61.1 L 58.5 71.7 L 65.0 71.7 L 65.0 76.0 L 54.1 76.0 L 54.1 41.0 L 65.0 41.0 " fill="#FFFEFE"></path><path d="M 86.9 47.0 L 86.9 70.0 C 86.9 74.0 85.1 76.0 81.6 76.0 L 77.4 76.0 C 73.9 76.0 72.2 74.0 72.2 70.0 L 72.2 47.0 C 72.2 43.0 73.9 41.0 77.5 41.0 L 81.6 41.0 C 85.1 41.0 86.9 43.0 86.9 47.0 M 82.5 47.3 C 82.5 45.9 81.9 45.3 80.8 45.3 L 78.5 45.3 C 77.2 45.3 76.6 45.9 76.6 47.3 L 76.6 69.7 C 76.6 71.1 77.2 71.7 78.5 71.7 L 80.5 71.7 C 81.9 71.7 82.5 71.1 82.5 69.7 L 82.5 47.3 " fill="#FFFFFF"></path><path d="M 99.2 76.0 L 99.2 47.6 C 99.2 46.0 98.6 45.3 97.4 45.3 L 95.6 45.3 C 94.3 45.3 93.7 46.0 93.7 47.6 L 93.7 76.0 L 89.3 76.0 L 89.3 47.7 C 89.3 43.3 91.1 41.0 94.6 41.0 L 98.3 41.0 C 101.8 41.0 103.6 43.2 103.6 47.7 L 103.6 76.0 L 99.2 76.0 " fill="#FFFFFF"></path><path d="M 118.8 71.7 L 118.8 76.0 L 106.0 76.0 L 106.0 71.7 L 110.2 71.7 L 110.2 41.0 L 114.6 41.0 L 114.6 71.7 L 118.8 71.7 " fill="#FFFFFF"></path><path d="M 1.0 85.1 L 118.8 85.1 L 118.8 80.0 L 1.0 80.0 Z M 1.0 85.1 " fill="#FFFEFE"></path></g></g></g></svg>