<?xml version="1.0" encoding="UTF-8" standalone="no"?><svg xmlns="http://www.w3.org/2000/svg" xmlns:xlink="http://www.w3.org/1999/xlink" clip-rule="evenodd" stroke-miterlimit="4.00" viewBox="0 0 162 31"><desc>SVG generated by Keynote</desc><defs></defs><g transform="matrix(1.00, 0.00, -0.00, -1.00, 0.0, 31.0)"><text xml:space="preserve" font-family="Aller" font-size="36.0" fill="#FEFFFF" transform="matrix(1.00, 0.00, -0.00, -1.00, -0.4, 2.4)">C</text><text xml:space="preserve" font-family="Aller" font-size="36.0" fill="#FEFFFF" transform="matrix(1.00, 0.00, -0.00, -1.00, 21.9, 2.4)">l</text><text xml:space="preserve" font-family="Aller" font-size="36.0" fill="#FEFFFF" transform="matrix(1.00, 0.00, -0.00, -1.00, 32.6, 2.4)">e</text><text xml:space="preserve" font-family="Aller" font-size="36.0" fill="#FEFFFF" transform="matrix(1.00, 0.00, -0.00, -1.00, 51.9, 2.4)">v</text><text xml:space="preserve" font-family="Aller" font-size="36.0" fill="#FEFFFF" transform="matrix(1.00, 0.00, -0.00, -1.00, 70.3, 2.4)">e</text><text xml:space="preserve" font-family="Aller" font-size="36.0" fill="#FEFFFF" transform="matrix(1.00, 0.00, -0.00, -1.00, 90.3, 2.4)">l</text><text xml:space="preserve" font-family="Aller" font-size="36.0" fill="#FEFFFF" transform="matrix(1.00, 0.00, -0.00, -1.00, 101.0, 2.4)">a</text><text xml:space="preserve" font-family="Aller" font-size="36.0" fill="#FEFFFF" transform="matrix(1.00, 0.00, -0.00, -1.00, 119.7, 2.4)">n</text><text xml:space="preserve" font-family="Aller" font-size="36.0" fill="#FEFFFF" transform="matrix(1.00, 0.00, -0.00, -1.00, 140.5, 2.4)">d</text></g></svg>