<?xml version="1.0" encoding="UTF-8" standalone="no"?><svg xmlns="http://www.w3.org/2000/svg" xmlns:xlink="http://www.w3.org/1999/xlink" clip-rule="evenodd" stroke-miterlimit="4.00" viewBox="0 0 244 40"><desc>SVG generated by Keynote</desc><defs></defs><g transform="matrix(1.00, 0.00, -0.00, -1.00, 0.0, 40.0)"><text xml:space="preserve" font-family="Aller" font-size="36.0" fill="#FEFFFF" transform="matrix(1.00, 0.00, -0.00, -1.00, -1.6, 11.4)">D</text><text xml:space="preserve" font-family="Aller" font-size="36.0" fill="#FEFFFF" transform="matrix(1.00, 0.00, -0.00, -1.00, 23.6, 11.4)">r</text><text xml:space="preserve" font-family="Aller" font-size="36.0" fill="#FEFFFF" transform="matrix(1.00, 0.00, -0.00, -1.00, 36.5, 11.4)">o</text><text xml:space="preserve" font-family="Aller" font-size="36.0" fill="#FEFFFF" transform="matrix(1.00, 0.00, -0.00, -1.00, 57.2, 11.4)">n</text><text xml:space="preserve" font-family="Aller" font-size="36.0" fill="#FEFFFF" transform="matrix(1.00, 0.00, -0.00, -1.00, 78.0, 11.4)">e</text><text xml:space="preserve" font-family="Aller" font-size="36.0" fill="#FEFFFF" transform="matrix(1.00, 0.00, -0.00, -1.00, 98.0, 11.4)"> </text><text xml:space="preserve" font-family="Aller" font-size="36.0" fill="#FEFFFF" transform="matrix(1.00, 0.00, -0.00, -1.00, 106.6, 11.4)">p</text><text xml:space="preserve" font-family="Aller" font-size="36.0" fill="#FEFFFF" transform="matrix(1.00, 0.00, -0.00, -1.00, 127.8, 11.4)">r</text><text xml:space="preserve" font-family="Aller" font-size="36.0" fill="#FEFFFF" transform="matrix(1.00, 0.00, -0.00, -1.00, 140.7, 11.4)">o</text><text xml:space="preserve" font-family="Aller" font-size="36.0" fill="#FEFFFF" transform="matrix(1.00, 0.00, -0.00, -1.00, 161.3, 11.4)">g</text><text xml:space="preserve" font-family="Aller" font-size="36.0" fill="#FEFFFF" transform="matrix(1.00, 0.00, -0.00, -1.00, 181.2, 11.4)">r</text><text xml:space="preserve" font-family="Aller" font-size="36.0" fill="#FEFFFF" transform="matrix(1.00, 0.00, -0.00, -1.00, 194.2, 11.4)">a</text><text xml:space="preserve" font-family="Aller" font-size="36.0" fill="#FEFFFF" transform="matrix(1.00, 0.00, -0.00, -1.00, 212.8, 11.4)">m</text></g></svg>