<?xml version="1.0" encoding="UTF-8" standalone="no"?><svg xmlns="http://www.w3.org/2000/svg" xmlns:xlink="http://www.w3.org/1999/xlink" clip-rule="evenodd" stroke-miterlimit="4.00" viewBox="0 0 673 83"><desc>SVG generated by Keynote</desc><defs></defs><g transform="matrix(1.00, 0.00, -0.00, -1.00, 0.0, 83.0)"><text xml:space="preserve" font-family="Aller-Bold" font-weight="bold" font-size="80.0" fill="#A7D3A9" transform="matrix(1.00, 0.00, -0.00, -1.00, -2.0, 21.0)">G</text><text xml:space="preserve" font-family="Aller-Bold" font-weight="bold" font-size="80.0" fill="#A7D3A9" transform="matrix(1.00, 0.00, -0.00, -1.00, 51.4, 21.0)">r</text><text xml:space="preserve" font-family="Aller-Bold" font-weight="bold" font-size="80.0" fill="#A7D3A9" transform="matrix(1.00, 0.00, -0.00, -1.00, 82.8, 21.0)">a</text><text xml:space="preserve" font-family="Aller-Bold" font-weight="bold" font-size="80.0" fill="#A7D3A9" transform="matrix(1.00, 0.00, -0.00, -1.00, 124.6, 21.0)">n</text><text xml:space="preserve" font-family="Aller-Bold" font-weight="bold" font-size="80.0" fill="#A7D3A9" transform="matrix(1.00, 0.00, -0.00, -1.00, 171.5, 21.0)">t</text><text xml:space="preserve" font-family="Aller-Bold" font-weight="bold" font-size="80.0" fill="#A7D3A9" transform="matrix(1.00, 0.00, -0.00, -1.00, 202.2, 21.0)"> </text><text xml:space="preserve" font-family="Aller-Bold" font-weight="bold" font-size="80.0" fill="#A7D3A9" transform="matrix(1.00, 0.00, -0.00, -1.00, 219.8, 21.0)">O</text><text xml:space="preserve" font-family="Aller-Bold" font-weight="bold" font-size="80.0" fill="#A7D3A9" transform="matrix(1.00, 0.00, -0.00, -1.00, 277.8, 21.0)">p</text><text xml:space="preserve" font-family="Aller-Bold" font-weight="bold" font-size="80.0" fill="#A7D3A9" transform="matrix(1.00, 0.00, -0.00, -1.00, 325.1, 21.0)">p</text><text xml:space="preserve" font-family="Aller-Bold" font-weight="bold" font-size="80.0" fill="#A7D3A9" transform="matrix(1.00, 0.00, -0.00, -1.00, 372.4, 21.0)">o</text><text xml:space="preserve" font-family="Aller-Bold" font-weight="bold" font-size="80.0" fill="#A7D3A9" transform="matrix(1.00, 0.00, -0.00, -1.00, 418.8, 21.0)">r</text><text xml:space="preserve" font-family="Aller-Bold" font-weight="bold" font-size="80.0" fill="#A7D3A9" transform="matrix(1.00, 0.00, -0.00, -1.00, 451.0, 21.0)">t</text><text xml:space="preserve" font-family="Aller-Bold" font-weight="bold" font-size="80.0" fill="#A7D3A9" transform="matrix(1.00, 0.00, -0.00, -1.00, 481.6, 21.0)">u</text><text xml:space="preserve" font-family="Aller-Bold" font-weight="bold" font-size="80.0" fill="#A7D3A9" transform="matrix(1.00, 0.00, -0.00, -1.00, 527.4, 21.0)">n</text><text xml:space="preserve" font-family="Aller-Bold" font-weight="bold" font-size="80.0" fill="#A7D3A9" transform="matrix(1.00, 0.00, -0.00, -1.00, 574.3, 21.0)">i</text><text xml:space="preserve" font-family="Aller-Bold" font-weight="bold" font-size="80.0" fill="#A7D3A9" transform="matrix(1.00, 0.00, -0.00, -1.00, 598.9, 21.0)">t</text><text xml:space="preserve" font-family="Aller-Bold" font-weight="bold" font-size="80.0" fill="#A7D3A9" transform="matrix(1.00, 0.00, -0.00, -1.00, 629.5, 21.0)">y</text></g></svg>