<?xml version="1.0" encoding="UTF-8" standalone="no"?><svg xmlns="http://www.w3.org/2000/svg" xmlns:xlink="http://www.w3.org/1999/xlink" clip-rule="evenodd" stroke-miterlimit="4.00" viewBox="0 0 644 45"><desc>SVG generated by Keynote</desc><defs></defs><g transform="matrix(1.00, 0.00, -0.00, -1.00, 0.0, 45.0)"><text xml:space="preserve" font-family="Aller-Bold" font-weight="bold" font-size="41.6" fill="#A2CCA0" transform="matrix(1.00, 0.00, -0.00, -1.00, 0.0, 12.0)">G</text><text xml:space="preserve" font-family="Aller-Bold" font-weight="bold" font-size="41.6" fill="#A2CCA0" transform="matrix(1.00, 0.00, -0.00, -1.00, 27.8, 12.0)">I</text><text xml:space="preserve" font-family="Aller-Bold" font-weight="bold" font-size="41.6" fill="#A2CCA0" transform="matrix(1.00, 0.00, -0.00, -1.00, 39.7, 12.0)">S</text><text xml:space="preserve" font-family="Aller-Bold" font-weight="bold" font-size="41.6" fill="#A2CCA0" transform="matrix(1.00, 0.00, -0.00, -1.00, 62.6, 12.0)"> </text><text xml:space="preserve" font-family="Aller-Bold" font-weight="bold" font-size="41.6" fill="#A2CCA0" transform="matrix(1.00, 0.00, -0.00, -1.00, 71.8, 12.0)">S</text><text xml:space="preserve" font-family="Aller-Bold" font-weight="bold" font-size="41.6" fill="#A2CCA0" transform="matrix(1.00, 0.00, -0.00, -1.00, 94.6, 12.0)">o</text><text xml:space="preserve" font-family="Aller-Bold" font-weight="bold" font-size="41.6" fill="#A2CCA0" transform="matrix(1.00, 0.00, -0.00, -1.00, 118.8, 12.0)">f</text><text xml:space="preserve" font-family="Aller-Bold" font-weight="bold" font-size="41.6" fill="#A2CCA0" transform="matrix(1.00, 0.00, -0.00, -1.00, 135.2, 12.0)">t</text><text xml:space="preserve" font-family="Aller-Bold" font-weight="bold" font-size="41.6" fill="#A2CCA0" transform="matrix(1.00, 0.00, -0.00, -1.00, 151.2, 12.0)">w</text><text xml:space="preserve" font-family="Aller-Bold" font-weight="bold" font-size="41.6" fill="#A2CCA0" transform="matrix(1.00, 0.00, -0.00, -1.00, 184.7, 12.0)">a</text><text xml:space="preserve" font-family="Aller-Bold" font-weight="bold" font-size="41.6" fill="#A2CCA0" transform="matrix(1.00, 0.00, -0.00, -1.00, 206.4, 12.0)">r</text><text xml:space="preserve" font-family="Aller-Bold" font-weight="bold" font-size="41.6" fill="#A2CCA0" transform="matrix(1.00, 0.00, -0.00, -1.00, 222.5, 12.0)">e</text><text xml:space="preserve" font-family="Aller-Bold" font-weight="bold" font-size="41.6" fill="#A2CCA0" transform="matrix(1.00, 0.00, -0.00, -1.00, 245.9, 12.0)"> </text><text xml:space="preserve" font-family="Aller-Bold" font-weight="bold" font-size="41.6" fill="#A2CCA0" transform="matrix(1.00, 0.00, -0.00, -1.00, 255.0, 12.0)">i</text><text xml:space="preserve" font-family="Aller-Bold" font-weight="bold" font-size="41.6" fill="#A2CCA0" transform="matrix(1.00, 0.00, -0.00, -1.00, 267.8, 12.0)">s</text><text xml:space="preserve" font-family="Aller-Bold" font-weight="bold" font-size="41.6" fill="#A2CCA0" transform="matrix(1.00, 0.00, -0.00, -1.00, 287.0, 12.0)"> </text><text xml:space="preserve" font-family="Aller-Bold" font-weight="bold" font-size="41.6" fill="#A2CCA0" transform="matrix(1.00, 0.00, -0.00, -1.00, 296.1, 12.0)">a</text><text xml:space="preserve" font-family="Aller-Bold" font-weight="bold" font-size="41.6" fill="#A2CCA0" transform="matrix(1.00, 0.00, -0.00, -1.00, 317.8, 12.0)"> </text><text xml:space="preserve" font-family="Aller-Bold" font-weight="bold" font-size="41.6" fill="#A2CCA0" transform="matrix(1.00, 0.00, -0.00, -1.00, 327.0, 12.0)">g</text><text xml:space="preserve" font-family="Aller-Bold" font-weight="bold" font-size="41.6" fill="#A2CCA0" transform="matrix(1.00, 0.00, -0.00, -1.00, 350.1, 12.0)">e</text><text xml:space="preserve" font-family="Aller-Bold" font-weight="bold" font-size="41.6" fill="#A2CCA0" transform="matrix(1.00, 0.00, -0.00, -1.00, 373.5, 12.0)">n</text><text xml:space="preserve" font-family="Aller-Bold" font-weight="bold" font-size="41.6" fill="#A2CCA0" transform="matrix(1.00, 0.00, -0.00, -1.00, 397.9, 12.0)">e</text><text xml:space="preserve" font-family="Aller-Bold" font-weight="bold" font-size="41.6" fill="#A2CCA0" transform="matrix(1.00, 0.00, -0.00, -1.00, 421.3, 12.0)">r</text><text xml:space="preserve" font-family="Aller-Bold" font-weight="bold" font-size="41.6" fill="#A2CCA0" transform="matrix(1.00, 0.00, -0.00, -1.00, 437.6, 12.0)">a</text><text xml:space="preserve" font-family="Aller-Bold" font-weight="bold" font-size="41.6" fill="#A2CCA0" transform="matrix(1.00, 0.00, -0.00, -1.00, 459.3, 12.0)">l</text><text xml:space="preserve" font-family="Aller-Bold" font-weight="bold" font-size="41.6" fill="#A2CCA0" transform="matrix(1.00, 0.00, -0.00, -1.00, 472.8, 12.0)"> </text><text xml:space="preserve" font-family="Aller-Bold" font-weight="bold" font-size="41.6" fill="#A2CCA0" transform="matrix(1.00, 0.00, -0.00, -1.00, 481.9, 12.0)">p</text><text xml:space="preserve" font-family="Aller-Bold" font-weight="bold" font-size="41.6" fill="#A2CCA0" transform="matrix(1.00, 0.00, -0.00, -1.00, 506.5, 12.0)">r</text><text xml:space="preserve" font-family="Aller-Bold" font-weight="bold" font-size="41.6" fill="#A2CCA0" transform="matrix(1.00, 0.00, -0.00, -1.00, 522.6, 12.0)">o</text><text xml:space="preserve" font-family="Aller-Bold" font-weight="bold" font-size="41.6" fill="#A2CCA0" transform="matrix(1.00, 0.00, -0.00, -1.00, 546.7, 12.0)">b</text><text xml:space="preserve" font-family="Aller-Bold" font-weight="bold" font-size="41.6" fill="#A2CCA0" transform="matrix(1.00, 0.00, -0.00, -1.00, 571.3, 12.0)">l</text><text xml:space="preserve" font-family="Aller-Bold" font-weight="bold" font-size="41.6" fill="#A2CCA0" transform="matrix(1.00, 0.00, -0.00, -1.00, 584.8, 12.0)">e</text><text xml:space="preserve" font-family="Aller-Bold" font-weight="bold" font-size="41.6" fill="#A2CCA0" transform="matrix(1.00, 0.00, -0.00, -1.00, 608.2, 12.0)">m</text></g></svg>