<?xml version="1.0" encoding="UTF-8" standalone="no"?><svg xmlns="http://www.w3.org/2000/svg" xmlns:xlink="http://www.w3.org/1999/xlink" clip-rule="evenodd" stroke-miterlimit="4.00" viewBox="0 0 65 84"><desc>SVG generated by Keynote</desc><defs></defs><g transform="matrix(1.00, 0.00, -0.00, -1.00, 0.0, 84.0)"><g><clipPath id="clip-22"><path d="M 1.0 81.7 L 63.9 81.7 L 63.9 2.0 L 1.0 2.0 Z M 1.0 81.7 "></path></clipPath><g clip-path="url(#clip-22)"><g><clipPath id="clip-23"><path d="M 1.0 2.0 L 64.0 2.0 L 64.0 82.0 L 1.0 82.0 Z M 1.0 2.0 "></path></clipPath><g clip-path="url(#clip-23)"><path d="M 1.0 4.7 L 28.1 4.7 L 28.1 2.0 L 1.0 2.0 Z M 1.0 4.7 " fill="#FFFEFE"></path></g></g></g></g><g><clipPath id="clip-24"><path d="M 1.0 2.0 L 64.0 2.0 L 64.0 82.0 L 1.0 82.0 Z M 1.0 2.0 "></path></clipPath><g clip-path="url(#clip-24)"><path d="M 32.6 71.0 C 34.0 70.9 35.2 72.0 35.3 73.4 C 35.3 74.8 34.2 76.0 32.7 76.1 C 31.3 76.1 30.1 75.0 30.1 73.6 C 30.1 72.2 31.2 71.0 32.6 71.0 " fill="#FFFEFE"></path><path d="M 27.8 71.8 C 28.3 71.8 29.7 71.5 30.7 70.8 C 31.7 70.0 32.8 68.5 32.9 68.3 C 32.9 68.5 34.0 70.0 34.4 70.4 C 35.2 71.0 36.0 71.6 38.0 71.8 L 38.0 69.1 C 37.6 69.1 36.8 68.9 36.2 68.3 C 35.5 67.8 34.7 66.7 34.5 65.9 C 34.3 65.1 34.2 64.5 34.2 64.0 L 34.3 58.8 L 31.5 58.8 L 31.6 64.0 C 31.6 64.5 31.5 65.5 31.2 66.0 C 31.0 66.5 30.4 67.8 29.4 68.5 C 29.0 68.7 28.6 69.1 27.8 69.1 L 27.8 71.8 " fill="#FFFEFE"></path><path d="M 32.8 78.6 C 32.9 78.5 35.2 77.0 37.1 75.1 C 37.7 74.5 39.3 72.6 39.3 70.2 C 39.3 68.1 38.1 66.6 38.0 66.5 C 37.5 65.9 35.9 64.6 34.9 64.5 L 34.9 61.8 C 36.1 62.0 38.1 62.8 39.3 63.9 C 40.4 65.0 41.3 66.4 41.8 68.1 C 42.3 70.1 41.9 72.4 41.3 73.7 C 40.4 75.5 39.0 77.1 37.2 78.5 L 32.8 81.7 L 28.4 78.5 C 26.7 77.1 25.2 75.4 24.4 73.7 C 23.8 72.4 23.5 70.1 24.0 68.1 C 24.4 66.4 25.3 65.0 26.5 63.9 C 27.6 62.7 29.7 62.0 30.8 61.8 L 30.8 64.5 C 29.9 64.6 28.2 65.9 27.7 66.4 C 27.6 66.6 26.4 68.1 26.4 70.2 C 26.4 72.6 28.0 74.5 28.6 75.1 C 30.5 77.0 32.8 78.5 32.8 78.6 " fill="#FFFEFE"></path><path d="M 20.2 56.5 C 20.2 57.0 19.9 57.2 19.4 57.2 C 18.9 57.2 18.6 56.8 18.6 55.9 C 18.6 55.3 18.7 54.7 19.5 54.7 C 19.9 54.7 20.2 55.0 20.2 55.4 L 21.7 55.4 C 21.5 54.3 20.7 53.6 19.5 53.6 C 18.0 53.6 17.1 54.5 17.1 56.0 C 17.1 57.4 18.1 58.4 19.4 58.4 C 20.7 58.4 21.5 57.7 21.6 56.5 L 20.2 56.5 " fill="#FFFEFE"></path><path d="M 22.0 58.2 L 23.3 58.2 L 23.3 53.7 L 22.0 53.7 Z M 22.0 58.2 " fill="#FFFEFE"></path><path d="M 25.0 55.0 C 25.0 54.6 25.3 54.4 25.6 54.4 C 25.8 54.4 26.0 54.5 26.1 54.7 L 27.4 54.7 C 27.1 53.9 26.3 53.6 25.5 53.6 C 24.5 53.6 23.7 54.2 23.7 55.3 C 23.7 56.4 24.5 57.1 25.5 57.1 C 26.8 57.1 27.5 56.2 27.5 55.0 L 25.0 55.0 Z M 26.2 55.7 C 26.2 56.0 25.9 56.3 25.6 56.3 C 25.2 56.3 25.0 56.1 25.0 55.7 L 26.2 55.7 " fill="#FFFEFE"></path><path d="M 27.5 57.0 L 28.8 57.0 L 29.3 54.9 L 29.9 57.0 L 31.2 57.0 L 30.1 53.7 L 28.6 53.7 L 27.5 57.0 " fill="#FFFEFE"></path><path d="M 32.3 55.0 C 32.3 54.6 32.6 54.4 33.0 54.4 C 33.2 54.4 33.4 54.5 33.4 54.7 L 34.7 54.7 C 34.5 53.9 33.6 53.6 32.9 53.6 C 31.8 53.6 31.0 54.2 31.0 55.3 C 31.0 56.4 31.8 57.1 32.9 57.1 C 34.1 57.1 34.8 56.2 34.8 55.0 L 32.3 55.0 Z M 33.5 55.7 C 33.5 56.0 33.2 56.3 32.9 56.3 C 32.5 56.3 32.3 56.1 32.3 55.7 L 33.5 55.7 " fill="#FFFEFE"></path><path d="M 35.1 58.2 L 36.4 58.2 L 36.4 53.7 L 35.1 53.7 Z M 35.1 58.2 " fill="#FFFEFE"></path><path d="M 39.2 53.7 L 39.1 54.0 C 38.8 53.7 38.4 53.6 37.9 53.6 C 37.3 53.6 36.7 53.9 36.7 54.6 C 36.7 56.1 39.1 55.4 39.1 56.0 C 39.1 56.3 38.8 56.3 38.6 56.3 C 38.5 56.3 38.2 56.3 38.2 56.0 L 36.9 56.0 C 36.9 56.7 37.4 57.1 38.7 57.1 C 40.3 57.1 40.4 56.5 40.4 55.7 L 40.4 54.2 C 40.4 54.0 40.4 53.9 40.5 53.7 L 40.5 53.7 L 39.2 53.7 Z M 39.1 55.1 C 38.6 54.9 38.1 55.0 38.1 54.6 C 38.1 54.4 38.2 54.3 38.5 54.3 C 38.9 54.3 39.1 54.7 39.1 55.1 " fill="#FFFEFE"></path><path d="M 40.9 57.0 L 42.1 57.0 L 42.1 56.5 C 42.4 56.9 42.7 57.1 43.2 57.1 C 44.1 57.1 44.5 56.6 44.5 55.7 L 44.5 53.7 L 43.2 53.7 L 43.2 55.4 C 43.2 55.8 43.1 56.1 42.7 56.1 C 42.3 56.1 42.2 55.8 42.2 55.4 L 42.2 53.7 L 40.9 53.7 L 40.9 57.0 " fill="#FFFEFE"></path><path d="M 47.3 53.7 L 47.3 54.1 C 46.9 53.7 46.7 53.6 46.2 53.6 C 45.2 53.6 44.7 54.3 44.7 55.3 C 44.7 56.4 45.4 57.1 46.1 57.1 C 46.6 57.1 46.8 57.0 47.1 56.7 L 47.1 58.2 L 48.4 58.2 L 48.4 53.7 L 47.3 53.7 Z M 47.2 55.3 C 47.2 55.7 47.0 56.1 46.6 56.1 C 46.2 56.1 46.1 55.7 46.1 55.3 C 46.1 54.9 46.1 54.5 46.6 54.5 C 47.0 54.5 47.2 54.9 47.2 55.3 " fill="#FFFEFE"></path><path d="M 14.8 48.1 L 14.8 52.6 L 16.6 52.6 L 17.4 49.8 L 18.2 52.6 L 20.0 52.6 L 20.0 48.1 L 18.6 48.1 L 18.6 49.5 L 18.6 50.2 L 18.7 51.0 L 18.7 51.0 L 17.9 48.1 L 16.9 48.1 L 16.0 51.0 L 16.0 51.0 L 16.1 50.3 L 16.1 49.6 L 16.1 48.1 L 14.8 48.1 " fill="#FFFEFE"></path><path d="M 21.5 49.4 C 21.5 49.0 21.8 48.8 22.2 48.8 C 22.4 48.8 22.6 48.9 22.7 49.1 L 23.9 49.1 C 23.7 48.2 22.9 48.0 22.1 48.0 C 21.1 48.0 20.2 48.6 20.2 49.7 C 20.2 50.8 21.1 51.5 22.1 51.5 C 23.3 51.5 24.1 50.6 24.0 49.4 L 21.5 49.4 Z M 22.7 50.1 C 22.7 50.4 22.5 50.7 22.2 50.7 C 21.8 50.7 21.5 50.5 21.5 50.1 L 22.7 50.1 " fill="#FFFEFE"></path><path d="M 26.5 48.1 C 24.8 48.0 24.6 48.1 24.6 49.2 L 24.6 50.6 L 24.1 50.6 L 24.1 51.4 L 24.6 51.4 L 24.6 52.4 L 25.9 52.4 L 25.9 51.4 L 26.5 51.4 L 26.5 50.6 L 25.9 50.6 L 25.9 49.4 C 25.9 49.1 25.9 49.0 26.3 49.0 L 26.5 49.0 L 26.5 48.1 " fill="#FFFEFE"></path><path d="M 26.8 51.4 L 28.0 51.4 L 28.0 50.7 L 28.0 50.7 C 28.2 51.2 28.5 51.5 29.0 51.5 C 29.1 51.5 29.2 51.5 29.2 51.5 L 29.2 50.1 C 29.1 50.2 29.0 50.2 28.9 50.2 C 28.4 50.2 28.1 49.9 28.1 49.2 L 28.1 48.1 L 26.8 48.1 L 26.8 51.4 " fill="#FFFEFE"></path><path d="M 31.1 51.5 C 32.2 51.5 33.0 50.8 33.0 49.8 C 33.0 48.5 32.1 48.0 31.1 48.0 C 30.0 48.0 29.2 48.6 29.2 49.7 C 29.2 50.8 30.0 51.5 31.1 51.5 M 30.5 49.8 C 30.5 49.1 30.8 48.9 31.1 48.9 C 31.4 48.9 31.7 49.1 31.7 49.8 C 31.7 50.2 31.4 50.6 31.1 50.6 C 30.7 50.6 30.5 50.1 30.5 49.8 " fill="#FFFEFE"></path><path d="M 34.4 51.4 L 34.4 50.9 L 34.4 50.9 C 34.6 51.3 35.1 51.5 35.5 51.5 C 36.4 51.5 36.9 50.7 36.9 49.8 C 36.9 48.4 36.1 48.0 35.4 48.0 C 35.0 48.0 34.8 48.1 34.5 48.4 L 34.5 46.9 L 33.2 46.9 L 33.2 51.4 L 34.4 51.4 Z M 35.6 49.7 C 35.6 50.3 35.4 50.5 35.0 50.5 C 34.7 50.5 34.5 50.2 34.5 49.8 C 34.5 49.3 34.7 49.0 35.1 49.0 C 35.4 49.0 35.6 49.3 35.6 49.7 " fill="#FFFEFE"></path><path d="M 39.6 48.1 L 39.5 48.4 C 39.1 48.1 38.7 48.0 38.3 48.0 C 37.6 48.0 37.1 48.3 37.1 49.0 C 37.1 50.5 39.4 49.8 39.4 50.4 C 39.4 50.7 39.1 50.7 39.0 50.7 C 38.8 50.7 38.6 50.6 38.5 50.4 L 37.3 50.4 C 37.3 51.1 37.8 51.5 39.1 51.5 C 40.6 51.5 40.7 50.9 40.7 50.1 L 40.7 48.6 C 40.7 48.4 40.7 48.3 40.9 48.1 L 40.9 48.1 L 39.6 48.1 Z M 39.4 49.5 C 39.0 49.3 38.4 49.4 38.4 49.0 C 38.4 48.8 38.6 48.7 38.8 48.7 C 39.3 48.7 39.5 49.1 39.4 49.5 " fill="#FFFEFE"></path><path d="M 41.3 51.4 L 42.5 51.4 L 42.5 50.7 L 42.5 50.7 C 42.7 51.2 43.0 51.5 43.5 51.5 C 43.5 51.5 43.6 51.5 43.7 51.5 L 43.7 50.1 C 43.6 50.2 43.5 50.2 43.4 50.2 C 42.8 50.2 42.6 49.9 42.6 49.2 L 42.6 48.1 L 41.3 48.1 L 41.3 51.4 " fill="#FFFEFE"></path><path d="M 45.2 49.0 L 45.2 48.1 L 43.9 48.1 L 43.9 52.6 L 45.2 52.6 L 45.2 50.4 L 46.0 51.4 L 47.6 51.4 L 46.3 50.1 L 47.7 48.1 L 46.1 48.1 L 45.4 49.2 L 45.2 49.0 " fill="#FFFEFE"></path></g></g><g><clipPath id="clip-25"><path d="M 1.0 81.7 L 63.9 81.7 L 63.9 2.0 L 1.0 2.0 Z M 1.0 81.7 "></path></clipPath><g clip-path="url(#clip-25)"><g><clipPath id="clip-26"><path d="M 1.0 2.0 L 64.0 2.0 L 64.0 82.0 L 1.0 82.0 Z M 1.0 2.0 "></path></clipPath><g clip-path="url(#clip-26)"><path d="M 48.9 49.1 C 48.9 49.0 48.9 48.9 49.0 48.8 C 49.1 48.7 49.2 48.7 49.4 48.7 C 49.6 48.7 49.8 48.8 49.8 49.0 C 49.8 49.5 47.7 49.1 47.7 50.4 C 47.7 51.2 48.6 51.5 49.3 51.5 C 50.0 51.5 50.9 51.3 50.9 50.4 L 49.8 50.4 C 49.7 50.5 49.7 50.6 49.6 50.7 C 49.6 50.7 49.5 50.8 49.4 50.8 C 49.1 50.8 49.0 50.7 49.0 50.5 C 49.0 50.1 51.1 50.4 51.1 49.1 C 51.1 48.4 50.5 48.0 49.3 48.0 C 48.5 48.0 47.7 48.2 47.6 49.1 L 48.9 49.1 " fill="#FFFEFE"></path><path d="M 39.6 12.4 L 39.6 17.5 C 39.6 19.5 38.6 20.5 36.7 20.5 L 32.3 20.5 L 32.3 2.0 L 34.7 2.0 L 34.7 9.5 L 36.7 9.5 C 38.6 9.5 39.6 10.5 39.6 12.4 M 37.2 12.6 C 37.2 11.9 36.9 11.6 36.2 11.6 L 34.7 11.6 L 34.7 18.4 L 36.1 18.4 C 36.8 18.4 37.2 18.1 37.2 17.4 L 37.2 12.6 " fill="#FFFFFF"></path><path d="M 46.5 4.1 L 43.2 4.1 L 43.2 20.5 L 40.8 20.5 L 40.8 2.0 L 46.5 2.0 L 46.5 4.1 " fill="#FFFFFF"></path><path d="M 55.0 2.0 L 55.0 17.5 C 55.0 19.5 54.1 20.5 52.2 20.5 L 50.4 20.5 C 48.5 20.5 47.5 19.5 47.5 17.5 L 47.5 2.0 L 49.9 2.0 L 49.9 9.5 L 52.6 9.5 L 52.6 2.0 L 55.0 2.0 Z M 52.6 11.6 L 49.9 11.6 L 49.9 17.4 C 49.9 18.1 50.2 18.4 50.9 18.4 L 51.6 18.4 C 52.3 18.4 52.6 18.1 52.6 17.4 L 52.6 11.6 " fill="#FFFFFF"></path><path d="M 61.0 9.6 L 63.9 20.5 L 61.5 20.5 L 59.9 13.0 L 59.8 13.0 L 58.0 20.5 L 55.7 20.5 L 58.6 9.6 L 58.6 2.0 L 61.0 2.0 L 61.0 9.6 " fill="#FFFFFF"></path></g></g></g></g><g><clipPath id="clip-27"><path d="M 1.0 2.0 L 64.0 2.0 L 64.0 82.0 L 1.0 82.0 Z M 1.0 2.0 "></path></clipPath><g clip-path="url(#clip-27)"><path d="M 8.5 6.8 L 8.5 18.2 C 8.5 19.7 7.6 20.5 5.7 20.5 L 3.9 20.5 C 2.0 20.5 1.0 19.7 1.0 18.2 L 1.0 6.8 L 3.4 6.8 L 3.4 11.8 L 6.1 11.8 L 6.1 6.8 L 8.5 6.8 Z M 6.1 13.5 L 3.4 13.5 L 3.4 18.0 C 3.4 18.6 3.7 18.8 4.4 18.8 L 5.1 18.8 C 5.8 18.8 6.1 18.6 6.1 18.0 L 6.1 13.5 " fill="#FFFEFE"></path><path d="M 13.2 20.5 L 10.8 20.5 L 10.8 6.8 L 13.2 6.8 L 13.2 15.8 L 15.8 9.5 L 15.8 6.8 L 18.2 6.8 L 18.2 20.5 L 15.8 20.5 L 15.8 13.9 L 13.2 20.5 " fill="#FFFEFE"></path><path d="M 28.0 8.8 L 28.0 17.9 C 28.0 19.6 26.9 20.5 24.7 20.5 L 20.5 20.5 L 20.5 6.8 L 25.2 6.8 C 27.1 6.8 28.0 7.5 28.0 8.8 M 25.6 9.1 C 25.6 8.7 25.3 8.5 24.7 8.5 L 22.9 8.5 L 22.9 18.8 L 24.6 18.8 C 25.3 18.8 25.6 18.5 25.6 17.9 L 25.6 9.1 " fill="#FFFEFE"></path><path d="M 5.8 27.0 L 5.8 26.0 C 5.8 25.3 5.5 24.9 4.9 24.9 L 4.3 24.9 C 3.7 24.9 3.3 25.3 3.3 26.0 L 3.3 37.9 C 3.3 38.6 3.7 39.0 4.3 39.0 L 4.7 39.0 C 5.4 39.0 5.8 38.6 5.8 37.9 L 5.8 36.0 L 8.1 36.0 L 8.1 38.0 C 8.1 40.1 7.2 41.2 5.3 41.2 L 3.8 41.2 C 1.9 41.2 1.0 40.1 1.0 38.0 L 1.0 25.8 C 1.0 23.7 1.9 22.7 3.8 22.7 L 5.3 22.7 C 7.2 22.7 8.1 23.7 8.1 25.8 L 8.1 27.0 L 5.8 27.0 " fill="#FFFEFE"></path><path d="M 17.3 25.8 L 17.3 38.0 C 17.3 40.1 16.3 41.2 14.5 41.2 L 12.2 41.2 C 10.3 41.2 9.4 40.1 9.4 38.0 L 9.4 25.8 C 9.4 23.7 10.4 22.7 12.2 22.7 L 14.4 22.7 C 16.3 22.7 17.3 23.7 17.3 25.8 M 14.9 26.0 C 14.9 25.3 14.6 24.9 14.0 24.9 L 12.8 24.9 C 12.1 24.9 11.8 25.3 11.8 26.0 L 11.8 37.9 C 11.8 38.6 12.1 39.0 12.8 39.0 L 13.9 39.0 C 14.6 39.0 14.9 38.6 14.9 37.9 L 14.9 26.0 " fill="#FFFEFE"></path><path d="M 21.1 41.2 L 18.5 41.2 L 18.5 22.7 L 20.9 22.7 L 20.6 34.8 L 22.4 26.0 L 24.2 26.0 L 26.0 34.8 L 25.7 22.7 L 28.1 22.7 L 28.1 41.2 L 25.5 41.2 L 23.3 30.3 L 21.1 41.2 " fill="#FFFEFE"></path><path d="M 35.2 22.7 L 35.2 24.9 L 31.7 24.9 L 31.7 31.1 L 34.8 31.1 L 34.8 33.3 L 31.7 33.3 L 31.7 39.0 L 35.2 39.0 L 35.2 41.2 L 29.3 41.2 L 29.3 22.7 L 35.2 22.7 " fill="#FFFEFE"></path><path d="M 46.9 25.8 L 46.9 38.0 C 46.9 40.1 45.9 41.2 44.1 41.2 L 41.8 41.2 C 39.9 41.2 39.0 40.1 39.0 38.0 L 39.0 25.8 C 39.0 23.7 39.9 22.7 41.8 22.7 L 44.0 22.7 C 45.9 22.7 46.9 23.7 46.9 25.8 M 44.5 26.0 C 44.5 25.3 44.2 24.9 43.6 24.9 L 42.4 24.9 C 41.7 24.9 41.3 25.3 41.3 26.0 L 41.3 37.9 C 41.3 38.6 41.7 39.0 42.4 39.0 L 43.5 39.0 C 44.2 39.0 44.5 38.6 44.5 37.9 L 44.5 26.0 " fill="#FFFFFF"></path><path d="M 53.4 41.2 L 53.4 26.1 C 53.4 25.3 53.1 24.9 52.5 24.9 L 51.5 24.9 C 50.8 24.9 50.5 25.3 50.5 26.1 L 50.5 41.2 L 48.2 41.2 L 48.2 26.2 C 48.2 23.9 49.1 22.7 51.0 22.7 L 52.9 22.7 C 54.8 22.7 55.8 23.8 55.8 26.2 L 55.8 41.2 L 53.4 41.2 " fill="#FFFFFF"></path><path d="M 63.9 39.0 L 63.9 41.2 L 57.1 41.2 L 57.1 39.0 L 59.3 39.0 L 59.3 22.7 L 61.6 22.7 L 61.6 39.0 L 63.9 39.0 " fill="#FFFFFF"></path><path d="M 1.0 46.1 L 63.9 46.1 L 63.9 43.3 L 1.0 43.3 Z M 1.0 46.1 " fill="#FFFEFE"></path></g></g></g></svg>