<?xml version="1.0" encoding="UTF-8" standalone="no"?><svg xmlns="http://www.w3.org/2000/svg" xmlns:xlink="http://www.w3.org/1999/xlink" clip-rule="evenodd" stroke-miterlimit="4.00" viewBox="0 0 244 40"><desc>SVG generated by Keynote</desc><defs></defs><g transform="matrix(1.00, 0.00, -0.00, -1.00, 0.0, 40.0)"><text xml:space="preserve" font-family="Aller" font-size="36.0" fill="#FEFFFF" transform="matrix(1.00, 0.00, -0.00, -1.00, -1.3, 10.9)">D</text><text xml:space="preserve" font-family="Aller" font-size="36.0" fill="#FEFFFF" transform="matrix(1.00, 0.00, -0.00, -1.00, 23.8, 10.9)">r</text><text xml:space="preserve" font-family="Aller" font-size="36.0" fill="#FEFFFF" transform="matrix(1.00, 0.00, -0.00, -1.00, 36.7, 10.9)">o</text><text xml:space="preserve" font-family="Aller" font-size="36.0" fill="#FEFFFF" transform="matrix(1.00, 0.00, -0.00, -1.00, 57.5, 10.9)">n</text><text xml:space="preserve" font-family="Aller" font-size="36.0" fill="#FEFFFF" transform="matrix(1.00, 0.00, -0.00, -1.00, 78.3, 10.9)">e</text><text xml:space="preserve" font-family="Aller" font-size="36.0" fill="#FEFFFF" transform="matrix(1.00, 0.00, -0.00, -1.00, 98.3, 10.9)"> </text><text xml:space="preserve" font-family="Aller" font-size="36.0" fill="#FEFFFF" transform="matrix(1.00, 0.00, -0.00, -1.00, 106.8, 10.9)">p</text><text xml:space="preserve" font-family="Aller" font-size="36.0" fill="#FEFFFF" transform="matrix(1.00, 0.00, -0.00, -1.00, 128.0, 10.9)">r</text><text xml:space="preserve" font-family="Aller" font-size="36.0" fill="#FEFFFF" transform="matrix(1.00, 0.00, -0.00, -1.00, 140.9, 10.9)">o</text><text xml:space="preserve" font-family="Aller" font-size="36.0" fill="#FEFFFF" transform="matrix(1.00, 0.00, -0.00, -1.00, 161.5, 10.9)">g</text><text xml:space="preserve" font-family="Aller" font-size="36.0" fill="#FEFFFF" transform="matrix(1.00, 0.00, -0.00, -1.00, 181.4, 10.9)">r</text><text xml:space="preserve" font-family="Aller" font-size="36.0" fill="#FEFFFF" transform="matrix(1.00, 0.00, -0.00, -1.00, 194.4, 10.9)">a</text><text xml:space="preserve" font-family="Aller" font-size="36.0" fill="#FEFFFF" transform="matrix(1.00, 0.00, -0.00, -1.00, 213.0, 10.9)">m</text></g></svg>