<?xml version="1.0" encoding="UTF-8" standalone="no"?><svg xmlns="http://www.w3.org/2000/svg" xmlns:xlink="http://www.w3.org/1999/xlink" clip-rule="evenodd" stroke-miterlimit="4.00" viewBox="0 0 391 37"><desc>SVG generated by Keynote</desc><defs></defs><g transform="matrix(1.00, 0.00, -0.00, -1.00, 0.0, 37.0)"><text xml:space="preserve" font-family="Helvetica-Light" font-size="27.1" fill="#FEFFFF" transform="matrix(1.00, 0.00, -0.00, -1.00, 0.1, 12.0)">•</text><text xml:space="preserve" font-family="Helvetica-Light" font-size="36.1" fill="#FEFFFF" transform="matrix(1.00, 0.00, -0.00, -1.00, 33.0, 9.0)">O</text><text xml:space="preserve" font-family="Helvetica-Light" font-size="36.1" fill="#FEFFFF" transform="matrix(1.00, 0.00, -0.00, -1.00, 61.1, 9.0)">p</text><text xml:space="preserve" font-family="Helvetica-Light" font-size="36.1" fill="#FEFFFF" transform="matrix(1.00, 0.00, -0.00, -1.00, 83.1, 9.0)">e</text><text xml:space="preserve" font-family="Helvetica-Light" font-size="36.1" fill="#FEFFFF" transform="matrix(1.00, 0.00, -0.00, -1.00, 103.2, 9.0)">n</text><text xml:space="preserve" font-family="Helvetica-Light" font-size="36.1" fill="#FEFFFF" transform="matrix(1.00, 0.00, -0.00, -1.00, 123.3, 9.0)">D</text><text xml:space="preserve" font-family="Helvetica-Light" font-size="36.1" fill="#FEFFFF" transform="matrix(1.00, 0.00, -0.00, -1.00, 149.4, 9.0)">r</text><text xml:space="preserve" font-family="Helvetica-Light" font-size="36.1" fill="#FEFFFF" transform="matrix(1.00, 0.00, -0.00, -1.00, 160.7, 9.0)">o</text><text xml:space="preserve" font-family="Helvetica-Light" font-size="36.1" fill="#FEFFFF" transform="matrix(1.00, 0.00, -0.00, -1.00, 180.8, 9.0)">n</text><text xml:space="preserve" font-family="Helvetica-Light" font-size="36.1" fill="#FEFFFF" transform="matrix(1.00, 0.00, -0.00, -1.00, 200.9, 9.0)">e</text><text xml:space="preserve" font-family="Helvetica-Light" font-size="36.1" fill="#FEFFFF" transform="matrix(1.00, 0.00, -0.00, -1.00, 220.9, 9.0)">M</text><text xml:space="preserve" font-family="Helvetica-Light" font-size="36.1" fill="#FEFFFF" transform="matrix(1.00, 0.00, -0.00, -1.00, 251.0, 9.0)">a</text><text xml:space="preserve" font-family="Helvetica-Light" font-size="36.1" fill="#FEFFFF" transform="matrix(1.00, 0.00, -0.00, -1.00, 271.1, 9.0)">p</text><text xml:space="preserve" font-family="Helvetica-Light" font-size="36.1" fill="#FEFFFF" transform="matrix(1.00, 0.00, -0.00, -1.00, 293.1, 9.0)"> </text><text xml:space="preserve" font-family="Helvetica-Light" font-size="36.1" fill="#FEFFFF" transform="matrix(1.00, 0.00, -0.00, -1.00, 303.2, 9.0)">C</text><text xml:space="preserve" font-family="Helvetica-Light" font-size="36.1" fill="#FEFFFF" transform="matrix(1.00, 0.00, -0.00, -1.00, 329.2, 9.0)">o</text><text xml:space="preserve" font-family="Helvetica-Light" font-size="36.1" fill="#FEFFFF" transform="matrix(1.00, 0.00, -0.00, -1.00, 349.3, 9.0)">r</text><text xml:space="preserve" font-family="Helvetica-Light" font-size="36.1" fill="#FEFFFF" transform="matrix(1.00, 0.00, -0.00, -1.00, 360.7, 9.0)">e</text><text xml:space="preserve" font-family="Helvetica-Light" font-size="36.1" fill="#FEFFFF" transform="matrix(1.00, 0.00, -0.00, -1.00, 380.8, 9.0)">:</text></g></svg>