<?xml version="1.0" encoding="UTF-8" standalone="no"?><svg xmlns="http://www.w3.org/2000/svg" xmlns:xlink="http://www.w3.org/1999/xlink" clip-rule="evenodd" stroke-miterlimit="4.00" viewBox="0 0 1020 518"><desc>SVG generated by Keynote</desc><defs></defs><g transform="matrix(1.00, 0.00, -0.00, -1.00, 0.0, 518.0)"><g><clipPath id="clip-78"><path d="M 2.0 516.0 L 1018.0 516.0 L 1018.0 2.0 L 2.0 2.0 Z M 1.8 516.5 "></path></clipPath><g clip-path="url(#clip-78)"><g><clipPath id="clip-79"><path d="M 218.1 8.1 C 186.5 19.0 168.6 27.1 144.5 41.5 C 90.3 74.1 44.0 119.0 24.3 158.2 C 16.1 174.4 8.8 197.0 5.1 217.6 C 1.5 237.7 0.7 270.2 3.3 288.3 C 9.2 328.7 19.8 357.0 39.6 385.0 C 49.9 399.6 82.5 432.3 100.9 446.4 C 140.3 476.8 175.9 496.0 219.8 510.5 L 237.7 516.0 L 510.1 516.0 L 782.4 516.0 L 800.2 510.5 C 834.8 499.0 861.7 486.0 890.3 467.0 C 916.4 449.6 931.3 437.4 952.6 416.1 C 974.4 394.4 984.5 381.3 994.9 361.1 C 1020.2 312.3 1025.5 245.2 1008.2 190.4 C 1002.8 173.2 1001.2 169.0 995.7 158.2 C 980.3 127.5 950.4 94.9 910.1 64.9 C 873.6 37.7 839.8 20.2 796.5 6.2 L 782.2 2.0 L 509.4 2.0 L 236.7 2.0 L 218.1 8.1 "></path></clipPath><g clip-path="url(#clip-79)"><image xlink:href="92D4C8D578F64D4252DA970C51090E5E.png" width="960.00" height="489.00" transform="matrix(1.07, 0.00, -0.00, -1.07, -2.0, 520.0)"></image></g></g></g></g></g></svg>