<?xml version="1.0" encoding="UTF-8" standalone="no"?><svg xmlns="http://www.w3.org/2000/svg" xmlns:xlink="http://www.w3.org/1999/xlink" clip-rule="evenodd" stroke-miterlimit="4.00" viewBox="0 0 519 264"><desc>SVG generated by Keynote</desc><defs></defs><g transform="matrix(1.00, 0.00, -0.00, -1.00, 0.0, 264.0)"><g><clipPath id="clip-71"><path d="M 2.0 263.0 L 517.0 263.0 L 517.0 1.0 L 2.0 1.0 Z M 1.8 262.6 "></path></clipPath><g clip-path="url(#clip-71)"><g><clipPath id="clip-72"><path d="M 111.5 4.7 C 95.5 10.2 86.4 14.4 74.2 21.7 C 46.7 38.2 23.2 61.0 13.2 80.9 C 9.0 89.1 5.3 100.6 3.5 111.0 C 1.6 121.2 1.2 137.7 2.6 146.8 C 5.6 167.4 10.9 181.7 21.0 195.9 C 26.2 203.3 42.7 219.9 52.1 227.1 C 72.1 242.5 90.1 252.2 112.4 259.6 L 121.5 263.0 L 259.6 263.0 L 397.8 263.0 L 406.8 259.6 C 424.4 253.8 438.0 247.1 452.5 237.5 C 465.7 228.7 473.3 222.5 484.1 211.7 C 495.2 200.7 500.3 194.0 505.6 183.8 C 518.4 159.0 521.1 125.0 512.3 97.2 C 509.6 88.5 508.8 86.4 506.0 80.9 C 498.1 65.3 483.0 48.8 462.6 33.5 C 444.0 19.7 426.9 10.9 404.9 3.8 L 397.7 1.0 L 259.3 1.0 L 120.9 1.0 L 111.5 4.7 "></path></clipPath><g clip-path="url(#clip-72)"><image xlink:href="../../0A18A961-58FC-4E49-AEA6-4CD5852EE50F/assets/5EF0F129858033EF074810CDAC3C46D2.png" width="520.00" height="265.00" transform="matrix(1.00, 0.00, -0.00, -1.00, 0.0, 264.0)"></image></g></g></g></g></g></svg>