<?xml version="1.0" encoding="UTF-8" standalone="no"?><svg xmlns="http://www.w3.org/2000/svg" xmlns:xlink="http://www.w3.org/1999/xlink" clip-rule="evenodd" stroke-miterlimit="4.00" viewBox="0 0 417 37"><desc>SVG generated by Keynote</desc><defs></defs><g transform="matrix(1.00, 0.00, -0.00, -1.00, 0.0, 37.0)"><text xml:space="preserve" font-family="Helvetica-Light" font-size="27.1" fill="#FEFFFF" transform="matrix(1.00, 0.00, -0.00, -1.00, 0.1, 12.1)">•</text><text xml:space="preserve" font-family="Helvetica-Light" font-size="36.1" fill="#FEFFFF" transform="matrix(1.00, 0.00, -0.00, -1.00, 33.0, 9.0)">L</text><text xml:space="preserve" font-family="Helvetica-Light" font-size="36.1" fill="#FEFFFF" transform="matrix(1.00, 0.00, -0.00, -1.00, 53.1, 9.0)">o</text><text xml:space="preserve" font-family="Helvetica-Light" font-size="36.1" fill="#FEFFFF" transform="matrix(1.00, 0.00, -0.00, -1.00, 73.1, 9.0)">g</text><text xml:space="preserve" font-family="Helvetica-Light" font-size="36.1" fill="#FEFFFF" transform="matrix(1.00, 0.00, -0.00, -1.00, 95.2, 9.0)">i</text><text xml:space="preserve" font-family="Helvetica-Light" font-size="36.1" fill="#FEFFFF" transform="matrix(1.00, 0.00, -0.00, -1.00, 103.2, 9.0)">s</text><text xml:space="preserve" font-family="Helvetica-Light" font-size="36.1" fill="#FEFFFF" transform="matrix(1.00, 0.00, -0.00, -1.00, 121.3, 9.0)">t</text><text xml:space="preserve" font-family="Helvetica-Light" font-size="36.1" fill="#FEFFFF" transform="matrix(1.00, 0.00, -0.00, -1.00, 131.3, 9.0)">i</text><text xml:space="preserve" font-family="Helvetica-Light" font-size="36.1" fill="#FEFFFF" transform="matrix(1.00, 0.00, -0.00, -1.00, 139.3, 9.0)">c</text><text xml:space="preserve" font-family="Helvetica-Light" font-size="36.1" fill="#FEFFFF" transform="matrix(1.00, 0.00, -0.00, -1.00, 159.4, 9.0)">a</text><text xml:space="preserve" font-family="Helvetica-Light" font-size="36.1" fill="#FEFFFF" transform="matrix(1.00, 0.00, -0.00, -1.00, 179.5, 9.0)">l</text><text xml:space="preserve" font-family="Helvetica-Light" font-size="36.1" fill="#FEFFFF" transform="matrix(1.00, 0.00, -0.00, -1.00, 187.5, 9.0)"> </text><text xml:space="preserve" font-family="Helvetica-Light" font-size="36.1" fill="#FEFFFF" transform="matrix(1.00, 0.00, -0.00, -1.00, 197.5, 9.0)">S</text><text xml:space="preserve" font-family="Helvetica-Light" font-size="36.1" fill="#FEFFFF" transform="matrix(1.00, 0.00, -0.00, -1.00, 219.6, 9.0)">u</text><text xml:space="preserve" font-family="Helvetica-Light" font-size="36.1" fill="#FEFFFF" transform="matrix(1.00, 0.00, -0.00, -1.00, 239.6, 9.0)">p</text><text xml:space="preserve" font-family="Helvetica-Light" font-size="36.1" fill="#FEFFFF" transform="matrix(1.00, 0.00, -0.00, -1.00, 261.7, 9.0)">p</text><text xml:space="preserve" font-family="Helvetica-Light" font-size="36.1" fill="#FEFFFF" transform="matrix(1.00, 0.00, -0.00, -1.00, 283.8, 9.0)">o</text><text xml:space="preserve" font-family="Helvetica-Light" font-size="36.1" fill="#FEFFFF" transform="matrix(1.00, 0.00, -0.00, -1.00, 303.8, 9.0)">r</text><text xml:space="preserve" font-family="Helvetica-Light" font-size="36.1" fill="#FEFFFF" transform="matrix(1.00, 0.00, -0.00, -1.00, 316.5, 9.0)">t</text><text xml:space="preserve" font-family="Helvetica-Light" font-size="36.1" fill="#FEFFFF" transform="matrix(1.00, 0.00, -0.00, -1.00, 326.5, 9.0)">:</text><text xml:space="preserve" font-family="Helvetica-Light" font-size="36.1" fill="#FEFFFF" transform="matrix(1.00, 0.00, -0.00, -1.00, 336.6, 9.0)"> </text><text xml:space="preserve" font-family="Helvetica-Light" font-size="36.1" fill="#FEFFFF" transform="matrix(1.00, 0.00, -0.00, -1.00, 346.6, 9.0)">V</text><text xml:space="preserve" font-family="Helvetica-Light" font-size="36.1" fill="#FEFFFF" transform="matrix(1.00, 0.00, -0.00, -1.00, 366.7, 9.0)">e</text><text xml:space="preserve" font-family="Helvetica-Light" font-size="36.1" fill="#FEFFFF" transform="matrix(1.00, 0.00, -0.00, -1.00, 386.7, 9.0)">l</text><text xml:space="preserve" font-family="Helvetica-Light" font-size="36.1" fill="#FEFFFF" transform="matrix(1.00, 0.00, -0.00, -1.00, 394.8, 9.0)">a</text></g></svg>