<?xml version="1.0" encoding="UTF-8" standalone="no"?><svg xmlns="http://www.w3.org/2000/svg" xmlns:xlink="http://www.w3.org/1999/xlink" clip-rule="evenodd" stroke-miterlimit="4.00" viewBox="0 0 344 33"><desc>SVG generated by Keynote</desc><defs></defs><g transform="matrix(1.00, 0.00, -0.00, -1.00, 0.0, 33.0)"><text xml:space="preserve" font-family="Helvetica-Light" font-size="27.1" fill="#FEFFFF" transform="matrix(1.00, 0.00, -0.00, -1.00, 0.1, 7.8)">•</text><text xml:space="preserve" font-family="Helvetica-Light" font-size="36.1" fill="#FEFFFF" transform="matrix(1.00, 0.00, -0.00, -1.00, 33.0, 4.0)">L</text><text xml:space="preserve" font-family="Helvetica-Light" font-size="36.1" fill="#FEFFFF" transform="matrix(1.00, 0.00, -0.00, -1.00, 53.1, 4.0)">e</text><text xml:space="preserve" font-family="Helvetica-Light" font-size="36.1" fill="#FEFFFF" transform="matrix(1.00, 0.00, -0.00, -1.00, 73.1, 4.0)">a</text><text xml:space="preserve" font-family="Helvetica-Light" font-size="36.1" fill="#FEFFFF" transform="matrix(1.00, 0.00, -0.00, -1.00, 93.2, 4.0)">d</text><text xml:space="preserve" font-family="Helvetica-Light" font-size="36.1" fill="#FEFFFF" transform="matrix(1.00, 0.00, -0.00, -1.00, 115.3, 4.0)">:</text><text xml:space="preserve" font-family="Helvetica-Light" font-size="36.1" fill="#FEFFFF" transform="matrix(1.00, 0.00, -0.00, -1.00, 125.3, 4.0)"> </text><text xml:space="preserve" font-family="Helvetica-Light" font-size="36.1" fill="#FEFFFF" transform="matrix(1.00, 0.00, -0.00, -1.00, 135.3, 4.0)">S</text><text xml:space="preserve" font-family="Helvetica-Light" font-size="36.1" fill="#FEFFFF" transform="matrix(1.00, 0.00, -0.00, -1.00, 157.4, 4.0)">h</text><text xml:space="preserve" font-family="Helvetica-Light" font-size="36.1" fill="#FEFFFF" transform="matrix(1.00, 0.00, -0.00, -1.00, 177.5, 4.0)">a</text><text xml:space="preserve" font-family="Helvetica-Light" font-size="36.1" fill="#FEFFFF" transform="matrix(1.00, 0.00, -0.00, -1.00, 197.5, 4.0)">d</text><text xml:space="preserve" font-family="Helvetica-Light" font-size="36.1" fill="#FEFFFF" transform="matrix(1.00, 0.00, -0.00, -1.00, 219.6, 4.0)">o</text><text xml:space="preserve" font-family="Helvetica-Light" font-size="36.1" fill="#FEFFFF" transform="matrix(1.00, 0.00, -0.00, -1.00, 239.7, 4.0)">w</text><text xml:space="preserve" font-family="Helvetica-Light" font-size="36.1" fill="#FEFFFF" transform="matrix(1.00, 0.00, -0.00, -1.00, 265.7, 4.0)">V</text><text xml:space="preserve" font-family="Helvetica-Light" font-size="36.1" fill="#FEFFFF" transform="matrix(1.00, 0.00, -0.00, -1.00, 287.1, 4.0)">i</text><text xml:space="preserve" font-family="Helvetica-Light" font-size="36.1" fill="#FEFFFF" transform="matrix(1.00, 0.00, -0.00, -1.00, 295.2, 4.0)">e</text><text xml:space="preserve" font-family="Helvetica-Light" font-size="36.1" fill="#FEFFFF" transform="matrix(1.00, 0.00, -0.00, -1.00, 315.2, 4.0)">w</text></g></svg>