<?xml version="1.0" encoding="UTF-8" standalone="no"?><svg xmlns="http://www.w3.org/2000/svg" xmlns:xlink="http://www.w3.org/1999/xlink" clip-rule="evenodd" stroke-miterlimit="4.00" viewBox="0 0 1024 768"><desc>SVG generated by Keynote</desc><defs></defs><g transform="matrix(1.00, 0.00, -0.00, -1.00, 0.0, 768.0)"><path d="M 0.0 768.0 L 1024.0 768.0 L 1024.0 0.0 L 0.0 0.0 Z M 0.0 768.0 " fill="#000000"></path><g><clipPath id="clip-46"><path d="M 510.0 432.0 L 1021.0 432.0 L 1021.0 174.0 L 510.0 174.0 Z M 510.3 432.0 "></path></clipPath><g clip-path="url(#clip-46)"><g><clipPath id="clip-47"><path d="M 765.5 432.0 C 689.8 431.9 630.3 431.5 629.8 431.1 C 629.1 430.5 623.7 428.4 617.6 426.4 C 591.4 417.6 566.5 402.0 543.9 379.9 C 533.0 369.3 527.2 361.2 521.3 348.7 C 516.7 338.9 512.0 320.5 512.0 312.4 C 512.0 309.5 511.5 306.8 510.8 306.4 C 510.6 306.3 510.4 304.7 510.3 301.7 C 510.3 301.7 510.3 301.6 510.3 301.6 C 510.4 298.6 510.6 297.0 510.8 296.9 C 511.5 296.5 512.0 294.1 512.0 291.6 C 512.0 286.7 515.1 269.8 516.7 265.9 C 524.4 247.2 529.5 238.7 539.9 227.6 C 549.9 216.9 561.4 207.5 576.0 197.8 C 589.3 189.1 598.7 184.4 614.9 178.3 L 627.5 174.0 L 764.9 174.0 L 902.3 174.0 L 913.9 177.7 C 941.7 187.7 965.9 202.9 987.0 223.6 C 1006.1 242.4 1016.7 265.4 1018.9 292.5 C 1019.3 297.2 1020.0 301.2 1020.5 301.6 C 1020.0 302.1 1019.3 306.4 1018.9 311.4 C 1018.2 322.1 1014.7 336.4 1010.2 347.5 C 1001.7 368.1 977.8 392.4 948.5 410.0 C 939.5 415.4 916.3 426.6 916.3 425.6 C 916.3 424.8 902.8 429.8 901.5 431.1 C 900.9 431.6 841.2 431.9 765.5 432.0 Z M 765.5 432.0 "></path></clipPath><g clip-path="url(#clip-47)"><image xlink:href="../../EEB3AF9B-9B49-4CE6-915F-4E61BB6B1C5B/assets/6BBFA57DAAA273AF811984DC3495C033.jpeg" width="512.00" height="261.00" transform="matrix(1.00, 0.00, -0.00, -1.00, 510.0, 432.0)"></image></g></g></g></g><text xml:space="preserve" font-family="Aller-Bold" font-weight="bold" font-size="80.0" fill="#A7D3A9" transform="matrix(1.00, 0.00, -0.00, -1.00, 246.0, 629.0)">G</text><text xml:space="preserve" font-family="Aller-Bold" font-weight="bold" font-size="80.0" fill="#A7D3A9" transform="matrix(1.00, 0.00, -0.00, -1.00, 299.4, 629.0)">r</text><text xml:space="preserve" font-family="Aller-Bold" font-weight="bold" font-size="80.0" fill="#A7D3A9" transform="matrix(1.00, 0.00, -0.00, -1.00, 330.8, 629.0)">a</text><text xml:space="preserve" font-family="Aller-Bold" font-weight="bold" font-size="80.0" fill="#A7D3A9" transform="matrix(1.00, 0.00, -0.00, -1.00, 372.6, 629.0)">n</text><text xml:space="preserve" font-family="Aller-Bold" font-weight="bold" font-size="80.0" fill="#A7D3A9" transform="matrix(1.00, 0.00, -0.00, -1.00, 419.5, 629.0)">t</text><text xml:space="preserve" font-family="Aller-Bold" font-weight="bold" font-size="80.0" fill="#A7D3A9" transform="matrix(1.00, 0.00, -0.00, -1.00, 450.2, 629.0)"> </text><text xml:space="preserve" font-family="Aller-Bold" font-weight="bold" font-size="80.0" fill="#A7D3A9" transform="matrix(1.00, 0.00, -0.00, -1.00, 467.8, 629.0)">P</text><text xml:space="preserve" font-family="Aller-Bold" font-weight="bold" font-size="80.0" fill="#A7D3A9" transform="matrix(1.00, 0.00, -0.00, -1.00, 513.6, 629.0)">a</text><text xml:space="preserve" font-family="Aller-Bold" font-weight="bold" font-size="80.0" fill="#A7D3A9" transform="matrix(1.00, 0.00, -0.00, -1.00, 555.4, 629.0)">r</text><text xml:space="preserve" font-family="Aller-Bold" font-weight="bold" font-size="80.0" fill="#A7D3A9" transform="matrix(1.00, 0.00, -0.00, -1.00, 587.5, 629.0)">t</text><text xml:space="preserve" font-family="Aller-Bold" font-weight="bold" font-size="80.0" fill="#A7D3A9" transform="matrix(1.00, 0.00, -0.00, -1.00, 618.2, 629.0)">n</text><text xml:space="preserve" font-family="Aller-Bold" font-weight="bold" font-size="80.0" fill="#A7D3A9" transform="matrix(1.00, 0.00, -0.00, -1.00, 665.1, 629.0)">e</text><text xml:space="preserve" font-family="Aller-Bold" font-weight="bold" font-size="80.0" fill="#A7D3A9" transform="matrix(1.00, 0.00, -0.00, -1.00, 710.1, 629.0)">r</text><text xml:space="preserve" font-family="Aller-Bold" font-weight="bold" font-size="80.0" fill="#A7D3A9" transform="matrix(1.00, 0.00, -0.00, -1.00, 741.4, 629.0)">s</text><text xml:space="preserve" font-family="Helvetica-Light" font-size="28.5" fill="#FEFFFF" transform="matrix(1.00, 0.00, -0.00, -1.00, 10.1, 409.1)">•</text><text xml:space="preserve" font-family="Helvetica-Light" font-size="38.0" fill="#FEFFFF" transform="matrix(1.00, 0.00, -0.00, -1.00, 45.0, 406.0)">P</text><text xml:space="preserve" font-family="Helvetica-Light" font-size="38.0" fill="#FEFFFF" transform="matrix(1.00, 0.00, -0.00, -1.00, 68.2, 406.0)">a</text><text xml:space="preserve" font-family="Helvetica-Light" font-size="38.0" fill="#FEFFFF" transform="matrix(1.00, 0.00, -0.00, -1.00, 89.3, 406.0)">r</text><text xml:space="preserve" font-family="Helvetica-Light" font-size="38.0" fill="#FEFFFF" transform="matrix(1.00, 0.00, -0.00, -1.00, 102.7, 406.0)">t</text><text xml:space="preserve" font-family="Helvetica-Light" font-size="38.0" fill="#FEFFFF" transform="matrix(1.00, 0.00, -0.00, -1.00, 113.2, 406.0)">n</text><text xml:space="preserve" font-family="Helvetica-Light" font-size="38.0" fill="#FEFFFF" transform="matrix(1.00, 0.00, -0.00, -1.00, 134.4, 406.0)">e</text><text xml:space="preserve" font-family="Helvetica-Light" font-size="38.0" fill="#FEFFFF" transform="matrix(1.00, 0.00, -0.00, -1.00, 155.5, 406.0)">r</text><text xml:space="preserve" font-family="Helvetica-Light" font-size="38.0" fill="#FEFFFF" transform="matrix(1.00, 0.00, -0.00, -1.00, 168.2, 406.0)">s</text><text xml:space="preserve" font-family="Helvetica-Light" font-size="38.0" fill="#FEFFFF" transform="matrix(1.00, 0.00, -0.00, -1.00, 187.2, 406.0)">:</text><text xml:space="preserve" font-family="Helvetica-Light" font-size="38.0" fill="#FEFFFF" transform="matrix(1.00, 0.00, -0.00, -1.00, 197.7, 406.0)"> </text><text xml:space="preserve" font-family="Helvetica-Light" font-size="28.5" fill="#FEFFFF" transform="matrix(1.00, 0.00, -0.00, -1.00, 45.1, 321.1)">•</text><text xml:space="preserve" font-family="Helvetica-Light" font-size="38.0" fill="#FEFFFF" transform="matrix(1.00, 0.00, -0.00, -1.00, 80.0, 318.0)">L</text><text xml:space="preserve" font-family="Helvetica-Light" font-size="38.0" fill="#FEFFFF" transform="matrix(1.00, 0.00, -0.00, -1.00, 101.1, 318.0)">e</text><text xml:space="preserve" font-family="Helvetica-Light" font-size="38.0" fill="#FEFFFF" transform="matrix(1.00, 0.00, -0.00, -1.00, 122.3, 318.0)">a</text><text xml:space="preserve" font-family="Helvetica-Light" font-size="38.0" fill="#FEFFFF" transform="matrix(1.00, 0.00, -0.00, -1.00, 143.4, 318.0)">d</text><text xml:space="preserve" font-family="Helvetica-Light" font-size="38.0" fill="#FEFFFF" transform="matrix(1.00, 0.00, -0.00, -1.00, 166.6, 318.0)">:</text><text xml:space="preserve" font-family="Helvetica-Light" font-size="38.0" fill="#FEFFFF" transform="matrix(1.00, 0.00, -0.00, -1.00, 177.2, 318.0)"> </text><text xml:space="preserve" font-family="Helvetica-Light" font-size="38.0" fill="#FEFFFF" transform="matrix(1.00, 0.00, -0.00, -1.00, 187.7, 318.0)">S</text><text xml:space="preserve" font-family="Helvetica-Light" font-size="38.0" fill="#FEFFFF" transform="matrix(1.00, 0.00, -0.00, -1.00, 210.9, 318.0)">h</text><text xml:space="preserve" font-family="Helvetica-Light" font-size="38.0" fill="#FEFFFF" transform="matrix(1.00, 0.00, -0.00, -1.00, 232.1, 318.0)">a</text><text xml:space="preserve" font-family="Helvetica-Light" font-size="38.0" fill="#FEFFFF" transform="matrix(1.00, 0.00, -0.00, -1.00, 253.2, 318.0)">d</text><text xml:space="preserve" font-family="Helvetica-Light" font-size="38.0" fill="#FEFFFF" transform="matrix(1.00, 0.00, -0.00, -1.00, 276.4, 318.0)">o</text><text xml:space="preserve" font-family="Helvetica-Light" font-size="38.0" fill="#FEFFFF" transform="matrix(1.00, 0.00, -0.00, -1.00, 297.5, 318.0)">w</text><text xml:space="preserve" font-family="Helvetica-Light" font-size="38.0" fill="#FEFFFF" transform="matrix(1.00, 0.00, -0.00, -1.00, 325.0, 318.0)">V</text><text xml:space="preserve" font-family="Helvetica-Light" font-size="38.0" fill="#FEFFFF" transform="matrix(1.00, 0.00, -0.00, -1.00, 347.5, 318.0)">i</text><text xml:space="preserve" font-family="Helvetica-Light" font-size="38.0" fill="#FEFFFF" transform="matrix(1.00, 0.00, -0.00, -1.00, 356.0, 318.0)">e</text><text xml:space="preserve" font-family="Helvetica-Light" font-size="38.0" fill="#FEFFFF" transform="matrix(1.00, 0.00, -0.00, -1.00, 377.1, 318.0)">w</text><text xml:space="preserve" font-family="Helvetica-Light" font-size="38.0" fill="#FEFFFF" transform="matrix(1.00, 0.00, -0.00, -1.00, 404.5, 318.0)"> </text><text xml:space="preserve" font-family="Helvetica-Light" font-size="38.0" fill="#FEFFFF" transform="matrix(1.00, 0.00, -0.00, -1.00, 415.1, 318.0)"> </text><text xml:space="preserve" font-family="Helvetica-Light" font-size="38.0" fill="#FEFFFF" transform="matrix(1.00, 0.00, -0.00, -1.00, 425.6, 318.0)"> </text><text xml:space="preserve" font-family="Helvetica-Light" font-size="28.5" fill="#FEFFFF" transform="matrix(1.00, 0.00, -0.00, -1.00, 45.1, 233.1)">•</text><text xml:space="preserve" font-family="Helvetica-Light" font-size="38.0" fill="#FEFFFF" transform="matrix(1.00, 0.00, -0.00, -1.00, 80.0, 230.0)">R</text><text xml:space="preserve" font-family="Helvetica-Light" font-size="38.0" fill="#FEFFFF" transform="matrix(1.00, 0.00, -0.00, -1.00, 105.3, 230.0)">e</text><text xml:space="preserve" font-family="Helvetica-Light" font-size="38.0" fill="#FEFFFF" transform="matrix(1.00, 0.00, -0.00, -1.00, 126.5, 230.0)">s</text><text xml:space="preserve" font-family="Helvetica-Light" font-size="38.0" fill="#FEFFFF" transform="matrix(1.00, 0.00, -0.00, -1.00, 145.5, 230.0)">e</text><text xml:space="preserve" font-family="Helvetica-Light" font-size="38.0" fill="#FEFFFF" transform="matrix(1.00, 0.00, -0.00, -1.00, 166.6, 230.0)">a</text><text xml:space="preserve" font-family="Helvetica-Light" font-size="38.0" fill="#FEFFFF" transform="matrix(1.00, 0.00, -0.00, -1.00, 187.7, 230.0)">r</text><text xml:space="preserve" font-family="Helvetica-Light" font-size="38.0" fill="#FEFFFF" transform="matrix(1.00, 0.00, -0.00, -1.00, 199.7, 230.0)">c</text><text xml:space="preserve" font-family="Helvetica-Light" font-size="38.0" fill="#FEFFFF" transform="matrix(1.00, 0.00, -0.00, -1.00, 220.8, 230.0)">h</text><text xml:space="preserve" font-family="Helvetica-Light" font-size="38.0" fill="#FEFFFF" transform="matrix(1.00, 0.00, -0.00, -1.00, 242.0, 230.0)"> </text><text xml:space="preserve" font-family="Helvetica-Light" font-size="38.0" fill="#FEFFFF" transform="matrix(1.00, 0.00, -0.00, -1.00, 252.5, 230.0)">a</text><text xml:space="preserve" font-family="Helvetica-Light" font-size="38.0" fill="#FEFFFF" transform="matrix(1.00, 0.00, -0.00, -1.00, 273.6, 230.0)">n</text><text xml:space="preserve" font-family="Helvetica-Light" font-size="38.0" fill="#FEFFFF" transform="matrix(1.00, 0.00, -0.00, -1.00, 294.8, 230.0)">d</text><text xml:space="preserve" font-family="Helvetica-Light" font-size="38.0" fill="#FEFFFF" transform="matrix(1.00, 0.00, -0.00, -1.00, 318.0, 230.0)"> </text><text xml:space="preserve" font-family="Helvetica-Light" font-size="38.0" fill="#FEFFFF" transform="matrix(1.00, 0.00, -0.00, -1.00, 80.0, 184.0)">I</text><text xml:space="preserve" font-family="Helvetica-Light" font-size="38.0" fill="#FEFFFF" transform="matrix(1.00, 0.00, -0.00, -1.00, 90.6, 184.0)">n</text><text xml:space="preserve" font-family="Helvetica-Light" font-size="38.0" fill="#FEFFFF" transform="matrix(1.00, 0.00, -0.00, -1.00, 111.7, 184.0)">t</text><text xml:space="preserve" font-family="Helvetica-Light" font-size="38.0" fill="#FEFFFF" transform="matrix(1.00, 0.00, -0.00, -1.00, 122.3, 184.0)">e</text><text xml:space="preserve" font-family="Helvetica-Light" font-size="38.0" fill="#FEFFFF" transform="matrix(1.00, 0.00, -0.00, -1.00, 143.4, 184.0)">g</text><text xml:space="preserve" font-family="Helvetica-Light" font-size="38.0" fill="#FEFFFF" transform="matrix(1.00, 0.00, -0.00, -1.00, 166.6, 184.0)">r</text><text xml:space="preserve" font-family="Helvetica-Light" font-size="38.0" fill="#FEFFFF" transform="matrix(1.00, 0.00, -0.00, -1.00, 179.3, 184.0)">a</text><text xml:space="preserve" font-family="Helvetica-Light" font-size="38.0" fill="#FEFFFF" transform="matrix(1.00, 0.00, -0.00, -1.00, 200.4, 184.0)">t</text><text xml:space="preserve" font-family="Helvetica-Light" font-size="38.0" fill="#FEFFFF" transform="matrix(1.00, 0.00, -0.00, -1.00, 210.9, 184.0)">i</text><text xml:space="preserve" font-family="Helvetica-Light" font-size="38.0" fill="#FEFFFF" transform="matrix(1.00, 0.00, -0.00, -1.00, 219.4, 184.0)">o</text><text xml:space="preserve" font-family="Helvetica-Light" font-size="38.0" fill="#FEFFFF" transform="matrix(1.00, 0.00, -0.00, -1.00, 240.5, 184.0)">n</text><text xml:space="preserve" font-family="Helvetica-Light" font-size="38.0" fill="#FEFFFF" transform="matrix(1.00, 0.00, -0.00, -1.00, 261.6, 184.0)">:</text><text xml:space="preserve" font-family="Helvetica-Light" font-size="38.0" fill="#FEFFFF" transform="matrix(1.00, 0.00, -0.00, -1.00, 272.2, 184.0)"> </text><text xml:space="preserve" font-family="Helvetica-Light" font-size="38.0" fill="#FEFFFF" transform="matrix(1.00, 0.00, -0.00, -1.00, 282.8, 184.0)">U</text><text xml:space="preserve" font-family="Helvetica-Light" font-size="38.0" fill="#FEFFFF" transform="matrix(1.00, 0.00, -0.00, -1.00, 310.2, 184.0)">n</text><text xml:space="preserve" font-family="Helvetica-Light" font-size="38.0" fill="#FEFFFF" transform="matrix(1.00, 0.00, -0.00, -1.00, 331.3, 184.0)">i</text><text xml:space="preserve" font-family="Helvetica-Light" font-size="38.0" fill="#FEFFFF" transform="matrix(1.00, 0.00, -0.00, -1.00, 339.8, 184.0)">v</text><text xml:space="preserve" font-family="Helvetica-Light" font-size="38.0" fill="#FEFFFF" transform="matrix(1.00, 0.00, -0.00, -1.00, 358.8, 184.0)">e</text><text xml:space="preserve" font-family="Helvetica-Light" font-size="38.0" fill="#FEFFFF" transform="matrix(1.00, 0.00, -0.00, -1.00, 379.9, 184.0)">r</text><text xml:space="preserve" font-family="Helvetica-Light" font-size="38.0" fill="#FEFFFF" transform="matrix(1.00, 0.00, -0.00, -1.00, 392.5, 184.0)">s</text><text xml:space="preserve" font-family="Helvetica-Light" font-size="38.0" fill="#FEFFFF" transform="matrix(1.00, 0.00, -0.00, -1.00, 411.5, 184.0)">i</text><text xml:space="preserve" font-family="Helvetica-Light" font-size="38.0" fill="#FEFFFF" transform="matrix(1.00, 0.00, -0.00, -1.00, 420.0, 184.0)">t</text><text xml:space="preserve" font-family="Helvetica-Light" font-size="38.0" fill="#FEFFFF" transform="matrix(1.00, 0.00, -0.00, -1.00, 430.5, 184.0)">y</text><text xml:space="preserve" font-family="Helvetica-Light" font-size="38.0" fill="#FEFFFF" transform="matrix(1.00, 0.00, -0.00, -1.00, 449.5, 184.0)"> </text><text xml:space="preserve" font-family="Helvetica-Light" font-size="38.0" fill="#FEFFFF" transform="matrix(1.00, 0.00, -0.00, -1.00, 460.1, 184.0)">o</text><text xml:space="preserve" font-family="Helvetica-Light" font-size="38.0" fill="#FEFFFF" transform="matrix(1.00, 0.00, -0.00, -1.00, 481.2, 184.0)">f</text><text xml:space="preserve" font-family="Helvetica-Light" font-size="38.0" fill="#FEFFFF" transform="matrix(1.00, 0.00, -0.00, -1.00, 491.8, 184.0)"> </text><text xml:space="preserve" font-family="Helvetica-Light" font-size="38.0" fill="#FEFFFF" transform="matrix(1.00, 0.00, -0.00, -1.00, 80.0, 138.0)">W</text><text xml:space="preserve" font-family="Helvetica-Light" font-size="38.0" fill="#FEFFFF" transform="matrix(1.00, 0.00, -0.00, -1.00, 113.1, 138.0)">o</text><text xml:space="preserve" font-family="Helvetica-Light" font-size="38.0" fill="#FEFFFF" transform="matrix(1.00, 0.00, -0.00, -1.00, 134.2, 138.0)">l</text><text xml:space="preserve" font-family="Helvetica-Light" font-size="38.0" fill="#FEFFFF" transform="matrix(1.00, 0.00, -0.00, -1.00, 142.7, 138.0)">l</text><text xml:space="preserve" font-family="Helvetica-Light" font-size="38.0" fill="#FEFFFF" transform="matrix(1.00, 0.00, -0.00, -1.00, 151.1, 138.0)">o</text><text xml:space="preserve" font-family="Helvetica-Light" font-size="38.0" fill="#FEFFFF" transform="matrix(1.00, 0.00, -0.00, -1.00, 172.2, 138.0)">n</text><text xml:space="preserve" font-family="Helvetica-Light" font-size="38.0" fill="#FEFFFF" transform="matrix(1.00, 0.00, -0.00, -1.00, 193.4, 138.0)">g</text><text xml:space="preserve" font-family="Helvetica-Light" font-size="38.0" fill="#FEFFFF" transform="matrix(1.00, 0.00, -0.00, -1.00, 216.6, 138.0)">o</text><text xml:space="preserve" font-family="Helvetica-Light" font-size="38.0" fill="#FEFFFF" transform="matrix(1.00, 0.00, -0.00, -1.00, 237.7, 138.0)">n</text><text xml:space="preserve" font-family="Helvetica-Light" font-size="38.0" fill="#FEFFFF" transform="matrix(1.00, 0.00, -0.00, -1.00, 258.8, 138.0)">g</text><text xml:space="preserve" font-family="Helvetica-Light" font-size="11.0" fill="#FEFFFF" transform="matrix(1.00, 0.00, -0.00, -1.00, 461.0, 13.0)">B</text><text xml:space="preserve" font-family="Helvetica-Light" font-size="11.0" fill="#FEFFFF" transform="matrix(1.00, 0.00, -0.00, -1.00, 468.3, 13.0)">y</text><text xml:space="preserve" font-family="Helvetica-Light" font-size="11.0" fill="#FEFFFF" transform="matrix(1.00, 0.00, -0.00, -1.00, 473.8, 13.0)"> </text><text xml:space="preserve" font-family="Helvetica-Light" font-size="11.0" fill="#FEFFFF" transform="matrix(1.00, 0.00, -0.00, -1.00, 476.9, 13.0)">S</text><text xml:space="preserve" font-family="Helvetica-Light" font-size="11.0" fill="#FEFFFF" transform="matrix(1.00, 0.00, -0.00, -1.00, 483.6, 13.0)">t</text><text xml:space="preserve" font-family="Helvetica-Light" font-size="11.0" fill="#FEFFFF" transform="matrix(1.00, 0.00, -0.00, -1.00, 486.7, 13.0)">r</text><text xml:space="preserve" font-family="Helvetica-Light" font-size="11.0" fill="#FEFFFF" transform="matrix(1.00, 0.00, -0.00, -1.00, 490.1, 13.0)">e</text><text xml:space="preserve" font-family="Helvetica-Light" font-size="11.0" fill="#FEFFFF" transform="matrix(1.00, 0.00, -0.00, -1.00, 496.3, 13.0)">b</text><text xml:space="preserve" font-family="Helvetica-Light" font-size="11.0" fill="#FEFFFF" transform="matrix(1.00, 0.00, -0.00, -1.00, 503.0, 13.0)">e</text><text xml:space="preserve" font-family="Helvetica-Light" font-size="11.0" fill="#FEFFFF" transform="matrix(1.00, 0.00, -0.00, -1.00, 509.1, 13.0)"> </text><text xml:space="preserve" font-family="Helvetica-Light" font-size="11.0" fill="#FEFFFF" transform="matrix(1.00, 0.00, -0.00, -1.00, 512.1, 13.0)">(</text><text xml:space="preserve" font-family="Helvetica-Light" font-size="11.0" fill="#FEFFFF" transform="matrix(1.00, 0.00, -0.00, -1.00, 515.8, 13.0)">O</text><text xml:space="preserve" font-family="Helvetica-Light" font-size="11.0" fill="#FEFFFF" transform="matrix(1.00, 0.00, -0.00, -1.00, 524.4, 13.0)">w</text><text xml:space="preserve" font-family="Helvetica-Light" font-size="11.0" fill="#FEFFFF" transform="matrix(1.00, 0.00, -0.00, -1.00, 532.3, 13.0)">n</text><text xml:space="preserve" font-family="Helvetica-Light" font-size="11.0" fill="#FEFFFF" transform="matrix(1.00, 0.00, -0.00, -1.00, 538.4, 13.0)"> </text><text xml:space="preserve" font-family="Helvetica-Light" font-size="11.0" fill="#FEFFFF" transform="matrix(1.00, 0.00, -0.00, -1.00, 541.5, 13.0)">w</text><text xml:space="preserve" font-family="Helvetica-Light" font-size="11.0" fill="#FEFFFF" transform="matrix(1.00, 0.00, -0.00, -1.00, 549.4, 13.0)">o</text><text xml:space="preserve" font-family="Helvetica-Light" font-size="11.0" fill="#FEFFFF" transform="matrix(1.00, 0.00, -0.00, -1.00, 555.5, 13.0)">r</text><text xml:space="preserve" font-family="Helvetica-Light" font-size="11.0" fill="#FEFFFF" transform="matrix(1.00, 0.00, -0.00, -1.00, 559.2, 13.0)">k</text><text xml:space="preserve" font-family="Helvetica-Light" font-size="11.0" fill="#FEFFFF" transform="matrix(1.00, 0.00, -0.00, -1.00, 564.7, 13.0)">)</text><text xml:space="preserve" font-family="Helvetica-Light" font-size="11.0" fill="#FEFFFF" transform="matrix(1.00, 0.00, -0.00, -1.00, 568.4, 13.0)"> </text><text xml:space="preserve" font-family="Helvetica-Light" font-size="11.0" fill="#FEFFFF" transform="matrix(1.00, 0.00, -0.00, -1.00, 571.4, 13.0)">[</text><text xml:space="preserve" font-family="Helvetica-Light" font-size="11.0" fill="#FEFFFF" transform="matrix(1.00, 0.00, -0.00, -1.00, 575.1, 13.0)">C</text><text xml:space="preserve" font-family="Helvetica-Light" font-size="11.0" fill="#FEFFFF" transform="matrix(1.00, 0.00, -0.00, -1.00, 583.0, 13.0)">C</text><text xml:space="preserve" font-family="Helvetica-Light" font-size="11.0" fill="#FEFFFF" transform="matrix(1.00, 0.00, -0.00, -1.00, 591.0, 13.0)"> </text><text xml:space="preserve" font-family="Helvetica-Light" font-size="11.0" fill="#FEFFFF" transform="matrix(1.00, 0.00, -0.00, -1.00, 594.0, 13.0)">B</text><text xml:space="preserve" font-family="Helvetica-Light" font-size="11.0" fill="#FEFFFF" transform="matrix(1.00, 0.00, -0.00, -1.00, 601.4, 13.0)">Y</text><text xml:space="preserve" font-family="Helvetica-Light" font-size="11.0" fill="#FEFFFF" transform="matrix(1.00, 0.00, -0.00, -1.00, 606.9, 13.0)">-</text><text xml:space="preserve" font-family="Helvetica-Light" font-size="11.0" fill="#FEFFFF" transform="matrix(1.00, 0.00, -0.00, -1.00, 610.5, 13.0)">S</text><text xml:space="preserve" font-family="Helvetica-Light" font-size="11.0" fill="#FEFFFF" transform="matrix(1.00, 0.00, -0.00, -1.00, 617.3, 13.0)">A</text><text xml:space="preserve" font-family="Helvetica-Light" font-size="11.0" fill="#FEFFFF" transform="matrix(1.00, 0.00, -0.00, -1.00, 624.6, 13.0)"> </text><text xml:space="preserve" font-family="Helvetica-Light" font-size="11.0" fill="#FEFFFF" transform="matrix(1.00, 0.00, -0.00, -1.00, 627.6, 13.0)">3</text><text xml:space="preserve" font-family="Helvetica-Light" font-size="11.0" fill="#FEFFFF" transform="matrix(1.00, 0.00, -0.00, -1.00, 633.8, 13.0)">.</text><text xml:space="preserve" font-family="Helvetica-Light" font-size="11.0" fill="#FEFFFF" transform="matrix(1.00, 0.00, -0.00, -1.00, 636.8, 13.0)">0</text><text xml:space="preserve" font-family="Helvetica-Light" font-size="11.0" fill="#FEFFFF" transform="matrix(1.00, 0.00, -0.00, -1.00, 642.9, 13.0)"> </text><text xml:space="preserve" font-family="Helvetica-Light" font-size="11.0" fill="#FEFFFF" transform="matrix(1.00, 0.00, -0.00, -1.00, 646.0, 13.0)">(</text><text xml:space="preserve" font-family="Helvetica-Light" font-size="11.0" fill="#FEFFFF" transform="matrix(1.00, 0.00, -0.00, -1.00, 649.7, 13.0)">h</text><text xml:space="preserve" font-family="Helvetica-Light" font-size="11.0" fill="#FEFFFF" transform="matrix(1.00, 0.00, -0.00, -1.00, 655.8, 13.0)">t</text><text xml:space="preserve" font-family="Helvetica-Light" font-size="11.0" fill="#FEFFFF" transform="matrix(1.00, 0.00, -0.00, -1.00, 658.8, 13.0)">t</text><text xml:space="preserve" font-family="Helvetica-Light" font-size="11.0" fill="#FEFFFF" transform="matrix(1.00, 0.00, -0.00, -1.00, 661.9, 13.0)">p</text><text xml:space="preserve" font-family="Helvetica-Light" font-size="11.0" fill="#FEFFFF" transform="matrix(1.00, 0.00, -0.00, -1.00, 668.6, 13.0)">:</text><text xml:space="preserve" font-family="Helvetica-Light" font-size="11.0" fill="#FEFFFF" transform="matrix(1.00, 0.00, -0.00, -1.00, 671.7, 13.0)">/</text><text xml:space="preserve" font-family="Helvetica-Light" font-size="11.0" fill="#FEFFFF" transform="matrix(1.00, 0.00, -0.00, -1.00, 674.7, 13.0)">/</text><text xml:space="preserve" font-family="Helvetica-Light" font-size="11.0" fill="#FEFFFF" transform="matrix(1.00, 0.00, -0.00, -1.00, 677.8, 13.0)">c</text><text xml:space="preserve" font-family="Helvetica-Light" font-size="11.0" fill="#FEFFFF" transform="matrix(1.00, 0.00, -0.00, -1.00, 683.9, 13.0)">r</text><text xml:space="preserve" font-family="Helvetica-Light" font-size="11.0" fill="#FEFFFF" transform="matrix(1.00, 0.00, -0.00, -1.00, 687.4, 13.0)">e</text><text xml:space="preserve" font-family="Helvetica-Light" font-size="11.0" fill="#FEFFFF" transform="matrix(1.00, 0.00, -0.00, -1.00, 693.5, 13.0)">a</text><text xml:space="preserve" font-family="Helvetica-Light" font-size="11.0" fill="#FEFFFF" transform="matrix(1.00, 0.00, -0.00, -1.00, 699.6, 13.0)">t</text><text xml:space="preserve" font-family="Helvetica-Light" font-size="11.0" fill="#FEFFFF" transform="matrix(1.00, 0.00, -0.00, -1.00, 702.7, 13.0)">i</text><text xml:space="preserve" font-family="Helvetica-Light" font-size="11.0" fill="#FEFFFF" transform="matrix(1.00, 0.00, -0.00, -1.00, 705.1, 13.0)">v</text><text xml:space="preserve" font-family="Helvetica-Light" font-size="11.0" fill="#FEFFFF" transform="matrix(1.00, 0.00, -0.00, -1.00, 710.6, 13.0)">e</text><text xml:space="preserve" font-family="Helvetica-Light" font-size="11.0" fill="#FEFFFF" transform="matrix(1.00, 0.00, -0.00, -1.00, 716.7, 13.0)">c</text><text xml:space="preserve" font-family="Helvetica-Light" font-size="11.0" fill="#FEFFFF" transform="matrix(1.00, 0.00, -0.00, -1.00, 722.8, 13.0)">o</text><text xml:space="preserve" font-family="Helvetica-Light" font-size="11.0" fill="#FEFFFF" transform="matrix(1.00, 0.00, -0.00, -1.00, 728.9, 13.0)">m</text><text xml:space="preserve" font-family="Helvetica-Light" font-size="11.0" fill="#FEFFFF" transform="matrix(1.00, 0.00, -0.00, -1.00, 738.1, 13.0)">m</text><text xml:space="preserve" font-family="Helvetica-Light" font-size="11.0" fill="#FEFFFF" transform="matrix(1.00, 0.00, -0.00, -1.00, 747.3, 13.0)">o</text><text xml:space="preserve" font-family="Helvetica-Light" font-size="11.0" fill="#FEFFFF" transform="matrix(1.00, 0.00, -0.00, -1.00, 753.4, 13.0)">n</text><text xml:space="preserve" font-family="Helvetica-Light" font-size="11.0" fill="#FEFFFF" transform="matrix(1.00, 0.00, -0.00, -1.00, 759.5, 13.0)">s</text><text xml:space="preserve" font-family="Helvetica-Light" font-size="11.0" fill="#FEFFFF" transform="matrix(1.00, 0.00, -0.00, -1.00, 765.0, 13.0)">.</text><text xml:space="preserve" font-family="Helvetica-Light" font-size="11.0" fill="#FEFFFF" transform="matrix(1.00, 0.00, -0.00, -1.00, 768.1, 13.0)">o</text><text xml:space="preserve" font-family="Helvetica-Light" font-size="11.0" fill="#FEFFFF" transform="matrix(1.00, 0.00, -0.00, -1.00, 774.2, 13.0)">r</text><text xml:space="preserve" font-family="Helvetica-Light" font-size="11.0" fill="#FEFFFF" transform="matrix(1.00, 0.00, -0.00, -1.00, 777.8, 13.0)">g</text><text xml:space="preserve" font-family="Helvetica-Light" font-size="11.0" fill="#FEFFFF" transform="matrix(1.00, 0.00, -0.00, -1.00, 784.6, 13.0)">/</text><text xml:space="preserve" font-family="Helvetica-Light" font-size="11.0" fill="#FEFFFF" transform="matrix(1.00, 0.00, -0.00, -1.00, 787.6, 13.0)">l</text><text xml:space="preserve" font-family="Helvetica-Light" font-size="11.0" fill="#FEFFFF" transform="matrix(1.00, 0.00, -0.00, -1.00, 790.1, 13.0)">i</text><text xml:space="preserve" font-family="Helvetica-Light" font-size="11.0" fill="#FEFFFF" transform="matrix(1.00, 0.00, -0.00, -1.00, 792.5, 13.0)">c</text><text xml:space="preserve" font-family="Helvetica-Light" font-size="11.0" fill="#FEFFFF" transform="matrix(1.00, 0.00, -0.00, -1.00, 798.6, 13.0)">e</text><text xml:space="preserve" font-family="Helvetica-Light" font-size="11.0" fill="#FEFFFF" transform="matrix(1.00, 0.00, -0.00, -1.00, 804.7, 13.0)">n</text><text xml:space="preserve" font-family="Helvetica-Light" font-size="11.0" fill="#FEFFFF" transform="matrix(1.00, 0.00, -0.00, -1.00, 810.9, 13.0)">s</text><text xml:space="preserve" font-family="Helvetica-Light" font-size="11.0" fill="#FEFFFF" transform="matrix(1.00, 0.00, -0.00, -1.00, 816.4, 13.0)">e</text><text xml:space="preserve" font-family="Helvetica-Light" font-size="11.0" fill="#FEFFFF" transform="matrix(1.00, 0.00, -0.00, -1.00, 822.5, 13.0)">s</text><text xml:space="preserve" font-family="Helvetica-Light" font-size="11.0" fill="#FEFFFF" transform="matrix(1.00, 0.00, -0.00, -1.00, 828.0, 13.0)">/</text><text xml:space="preserve" font-family="Helvetica-Light" font-size="11.0" fill="#FEFFFF" transform="matrix(1.00, 0.00, -0.00, -1.00, 831.0, 13.0)">b</text><text xml:space="preserve" font-family="Helvetica-Light" font-size="11.0" fill="#FEFFFF" transform="matrix(1.00, 0.00, -0.00, -1.00, 837.7, 13.0)">y</text><text xml:space="preserve" font-family="Helvetica-Light" font-size="11.0" fill="#FEFFFF" transform="matrix(1.00, 0.00, -0.00, -1.00, 843.2, 13.0)">-</text><text xml:space="preserve" font-family="Helvetica-Light" font-size="11.0" fill="#FEFFFF" transform="matrix(1.00, 0.00, -0.00, -1.00, 846.9, 13.0)">s</text><text xml:space="preserve" font-family="Helvetica-Light" font-size="11.0" fill="#FEFFFF" transform="matrix(1.00, 0.00, -0.00, -1.00, 852.4, 13.0)">a</text><text xml:space="preserve" font-family="Helvetica-Light" font-size="11.0" fill="#FEFFFF" transform="matrix(1.00, 0.00, -0.00, -1.00, 858.5, 13.0)">/</text><text xml:space="preserve" font-family="Helvetica-Light" font-size="11.0" fill="#FEFFFF" transform="matrix(1.00, 0.00, -0.00, -1.00, 861.6, 13.0)">3</text><text xml:space="preserve" font-family="Helvetica-Light" font-size="11.0" fill="#FEFFFF" transform="matrix(1.00, 0.00, -0.00, -1.00, 867.7, 13.0)">.</text><text xml:space="preserve" font-family="Helvetica-Light" font-size="11.0" fill="#FEFFFF" transform="matrix(1.00, 0.00, -0.00, -1.00, 870.8, 13.0)">0</text><text xml:space="preserve" font-family="Helvetica-Light" font-size="11.0" fill="#FEFFFF" transform="matrix(1.00, 0.00, -0.00, -1.00, 876.9, 13.0)">)</text><text xml:space="preserve" font-family="Helvetica-Light" font-size="11.0" fill="#FEFFFF" transform="matrix(1.00, 0.00, -0.00, -1.00, 880.5, 13.0)">]</text><text xml:space="preserve" font-family="Helvetica-Light" font-size="11.0" fill="#FEFFFF" transform="matrix(1.00, 0.00, -0.00, -1.00, 884.2, 13.0)">,</text><text xml:space="preserve" font-family="Helvetica-Light" font-size="11.0" fill="#FEFFFF" transform="matrix(1.00, 0.00, -0.00, -1.00, 887.3, 13.0)"> </text><text xml:space="preserve" font-family="Helvetica-Light" font-size="11.0" fill="#FEFFFF" transform="matrix(1.00, 0.00, -0.00, -1.00, 890.3, 13.0)">v</text><text xml:space="preserve" font-family="Helvetica-Light" font-size="11.0" fill="#FEFFFF" transform="matrix(1.00, 0.00, -0.00, -1.00, 895.8, 13.0)">i</text><text xml:space="preserve" font-family="Helvetica-Light" font-size="11.0" fill="#FEFFFF" transform="matrix(1.00, 0.00, -0.00, -1.00, 898.3, 13.0)">a</text><text xml:space="preserve" font-family="Helvetica-Light" font-size="11.0" fill="#FEFFFF" transform="matrix(1.00, 0.00, -0.00, -1.00, 904.4, 13.0)"> </text><text xml:space="preserve" font-family="Helvetica-Light" font-size="11.0" fill="#FEFFFF" transform="matrix(1.00, 0.00, -0.00, -1.00, 907.4, 13.0)">W</text><text xml:space="preserve" font-family="Helvetica-Light" font-size="11.0" fill="#FEFFFF" transform="matrix(1.00, 0.00, -0.00, -1.00, 917.2, 13.0)">i</text><text xml:space="preserve" font-family="Helvetica-Light" font-size="11.0" fill="#FEFFFF" transform="matrix(1.00, 0.00, -0.00, -1.00, 919.7, 13.0)">k</text><text xml:space="preserve" font-family="Helvetica-Light" font-size="11.0" fill="#FEFFFF" transform="matrix(1.00, 0.00, -0.00, -1.00, 925.2, 13.0)">i</text><text xml:space="preserve" font-family="Helvetica-Light" font-size="11.0" fill="#FEFFFF" transform="matrix(1.00, 0.00, -0.00, -1.00, 927.6, 13.0)">m</text><text xml:space="preserve" font-family="Helvetica-Light" font-size="11.0" fill="#FEFFFF" transform="matrix(1.00, 0.00, -0.00, -1.00, 936.8, 13.0)">e</text><text xml:space="preserve" font-family="Helvetica-Light" font-size="11.0" fill="#FEFFFF" transform="matrix(1.00, 0.00, -0.00, -1.00, 942.9, 13.0)">d</text><text xml:space="preserve" font-family="Helvetica-Light" font-size="11.0" fill="#FEFFFF" transform="matrix(1.00, 0.00, -0.00, -1.00, 949.6, 13.0)">i</text><text xml:space="preserve" font-family="Helvetica-Light" font-size="11.0" fill="#FEFFFF" transform="matrix(1.00, 0.00, -0.00, -1.00, 952.0, 13.0)">a</text><text xml:space="preserve" font-family="Helvetica-Light" font-size="11.0" fill="#FEFFFF" transform="matrix(1.00, 0.00, -0.00, -1.00, 958.2, 13.0)"> </text><text xml:space="preserve" font-family="Helvetica-Light" font-size="11.0" fill="#FEFFFF" transform="matrix(1.00, 0.00, -0.00, -1.00, 961.2, 13.0)">C</text><text xml:space="preserve" font-family="Helvetica-Light" font-size="11.0" fill="#FEFFFF" transform="matrix(1.00, 0.00, -0.00, -1.00, 969.2, 13.0)">o</text><text xml:space="preserve" font-family="Helvetica-Light" font-size="11.0" fill="#FEFFFF" transform="matrix(1.00, 0.00, -0.00, -1.00, 975.3, 13.0)">m</text><text xml:space="preserve" font-family="Helvetica-Light" font-size="11.0" fill="#FEFFFF" transform="matrix(1.00, 0.00, -0.00, -1.00, 984.4, 13.0)">m</text><text xml:space="preserve" font-family="Helvetica-Light" font-size="11.0" fill="#FEFFFF" transform="matrix(1.00, 0.00, -0.00, -1.00, 993.6, 13.0)">o</text><text xml:space="preserve" font-family="Helvetica-Light" font-size="11.0" fill="#FEFFFF" transform="matrix(1.00, 0.00, -0.00, -1.00, 999.7, 13.0)">n</text><text xml:space="preserve" font-family="Helvetica-Light" font-size="11.0" fill="#FEFFFF" transform="matrix(1.00, 0.00, -0.00, -1.00, 1005.8, 13.0)">s</text><image xlink:href="231F4B1C0DDCA917F37E4C7C01832966.png" width="606.00" height="30.00" transform="matrix(1.00, 0.03, 0.03, -1.01, 365.7, 243.6)" opacity="0.50"></image><path d="M 0.0 0.0 L 575.9 0.0 L 578.4 0.0 " fill="none" stroke="#FEFFFE" stroke-width="5.00" transform="matrix(1.00, 0.03, 0.03, -1.00, 371.2, 230.6)"></path><path d="M 947.2 238.9 L 967.2 249.8 L 946.5 259.3 Z M 947.2 238.9 " fill="#FEFFFE"></path><g><clipPath id="clip-48"><path d="M 772.5 381.2 C 771.0 382.8 771.0 385.2 772.5 386.8 C 774.0 388.3 776.5 388.3 778.1 386.8 C 779.6 385.2 779.6 382.8 778.1 381.2 C 776.5 379.7 774.0 379.7 772.5 381.2 Z M 772.5 381.2 "></path></clipPath><g clip-path="url(#clip-48)"><image xlink:href="../../EEB3AF9B-9B49-4CE6-915F-4E61BB6B1C5B/assets/AFF4D1F361AD28AA82012E14045EB299.jpeg" width="128.00" height="128.00" transform="matrix(1.00, 0.00, -0.00, -1.00, 771.3, 387.9)"></image><path d="M 771.3 387.9 L 779.2 387.9 L 779.2 380.1 L 771.3 380.1 Z M 771.3 387.9 " fill="#860E00" fill-opacity="0.88"></path></g></g><g><clipPath id="clip-49"><path d="M 964.7 247.4 C 963.2 248.9 963.2 251.4 964.7 253.0 C 966.3 254.5 968.7 254.5 970.3 253.0 C 971.8 251.4 971.8 248.9 970.3 247.4 C 968.7 245.9 966.3 245.9 964.7 247.4 Z M 964.7 247.4 "></path></clipPath><g clip-path="url(#clip-49)"><image xlink:href="../../EEB3AF9B-9B49-4CE6-915F-4E61BB6B1C5B/assets/AFF4D1F361AD28AA82012E14045EB299.jpeg" width="128.00" height="128.00" transform="matrix(1.00, 0.00, -0.00, -1.00, 963.6, 254.1)"></image><path d="M 963.6 254.1 L 971.4 254.1 L 971.4 246.2 L 963.6 246.2 Z M 963.6 254.1 " fill="#860E00" fill-opacity="0.88"></path></g></g></g></svg>